<?xml version="1.0" encoding="UTF-8" standalone="no"?>
<svg
   xmlns:dc="http://purl.org/dc/elements/1.1/"
   xmlns:cc="http://creativecommons.org/ns#"
   xmlns:rdf="http://www.w3.org/1999/02/22-rdf-syntax-ns#"
   xmlns:svg="http://www.w3.org/2000/svg"
   xmlns="http://www.w3.org/2000/svg"
   xmlns:sodipodi="http://sodipodi.sourceforge.net/DTD/sodipodi-0.dtd"
   xmlns:inkscape="http://www.inkscape.org/namespaces/inkscape"
   style="font-style:normal;font-weight:normal;font-size:12px;font-family:Dialog;color-interpolation:auto;fill:#000000;fill-opacity:1;stroke:#000000;stroke-width:1;stroke-linecap:square;stroke-linejoin:miter;stroke-miterlimit:10;stroke-dasharray:none;stroke-dashoffset:0;stroke-opacity:1;color-rendering:auto;image-rendering:auto;shape-rendering:auto;text-rendering:auto"
   width="254mm"
   height="177.8mm"
   id="svg2"
   version="1.1"
   inkscape:version="0.91 r13725"
   sodipodi:docname="190414_211549_export.svg">
  <metadata
     id="metadata423">
    <rdf:RDF>
      <cc:Work
         rdf:about="">
        <dc:format>image/svg+xml</dc:format>
        <dc:type
           rdf:resource="http://purl.org/dc/dcmitype/StillImage" />
        <dc:title></dc:title>
      </cc:Work>
    </rdf:RDF>
  </metadata>
  <sodipodi:namedview
     pagecolor="#ffffff"
     bordercolor="#666666"
     borderopacity="1"
     objecttolerance="10"
     gridtolerance="10"
     guidetolerance="10"
     inkscape:pageopacity="0"
     inkscape:pageshadow="2"
     inkscape:window-width="1333"
     inkscape:window-height="822"
     id="namedview421"
     showgrid="false"
     units="mm"
     inkscape:zoom="0.26222222"
     inkscape:cx="-192.20339"
     inkscape:cy="450"
     inkscape:window-x="0"
     inkscape:window-y="0"
     inkscape:window-maximized="0"
     inkscape:current-layer="svg2" />
  <!--Generated by the Batik Graphics2D SVG Generator-->
  <defs
     id="genericDefs" />
  <g
     id="g5"
     transform="matrix(0.94126498,0,0,0.94126498,213.50153,-89.784739)">
    <g
       style="stroke-linecap:round"
       transform="translate(315,450)"
       id="g7">
      <circle
         r="200"
         style="fill:none"
         cx="0"
         cy="0"
         id="circle9" />
    </g>
    <g
       style="stroke-linecap:round"
       transform="translate(315,450)"
       id="g11">
      <circle
         r="150"
         style="fill:none"
         cx="0"
         cy="0"
         id="circle13" />
      <circle
         r="175"
         style="fill:none"
         cx="0"
         cy="0"
         id="circle15" />
      <circle
         r="250"
         style="fill:none"
         cx="0"
         cy="0"
         id="circle17" />
      <circle
         r="300"
         style="fill:none"
         cx="0"
         cy="0"
         id="circle19" />
      <rect
         x="0"
         y="0"
         transform="matrix(0.99950656,0.03141076,-0.03141076,0.99950656,0,0)"
         width="161.9603"
         style="fill:none"
         height="2"
         id="rect21" />
      <rect
         x="0"
         y="0"
         transform="matrix(0.99802673,0.06279052,-0.06279052,0.99802673,0,0)"
         width="167.66161"
         style="fill:none"
         height="2"
         id="rect23" />
      <rect
         x="0"
         y="0"
         transform="matrix(0.99556196,0.09410831,-0.09410831,0.99556196,0,0)"
         width="167.4106"
         style="fill:none"
         height="2"
         id="rect25" />
      <rect
         x="0"
         y="0"
         transform="matrix(0.9921147,0.12533323,-0.12533323,0.9921147,0,0)"
         width="165.8992"
         style="fill:none"
         height="2"
         id="rect27" />
      <rect
         x="0"
         y="0"
         transform="matrix(0.98768834,0.15643447,-0.15643447,0.98768834,0,0)"
         width="175.7421"
         style="fill:none"
         height="2"
         id="rect29" />
      <rect
         x="0"
         y="0"
         transform="matrix(0.98228725,0.18738131,-0.18738131,0.98228725,0,0)"
         width="171.6252"
         style="fill:none"
         height="2"
         id="rect31" />
      <rect
         x="0"
         y="0"
         transform="matrix(0.97591676,0.21814324,-0.21814324,0.97591676,0,0)"
         width="151.7601"
         style="fill:none"
         height="2"
         id="rect33" />
      <rect
         x="0"
         y="0"
         transform="matrix(0.96858316,0.24868989,-0.24868989,0.96858316,0,0)"
         width="160.248"
         style="fill:none"
         height="2"
         id="rect35" />
      <rect
         x="0"
         y="0"
         transform="matrix(0.96029369,0.27899111,-0.27899111,0.96029369,0,0)"
         width="187.5663"
         style="fill:none"
         height="2"
         id="rect37" />
      <rect
         x="0"
         y="0"
         transform="matrix(0.95105652,0.30901699,-0.30901699,0.95105652,0,0)"
         width="201.3916"
         style="fill:none"
         height="2"
         id="rect39" />
      <rect
         x="0"
         y="0"
         transform="matrix(0.94088077,0.33873792,-0.33873792,0.94088077,0,0)"
         width="214.935"
         style="fill:none"
         height="2"
         id="rect41" />
      <rect
         x="0"
         y="0"
         transform="matrix(0.92977649,0.36812455,-0.36812455,0.92977649,0,0)"
         width="223.4012"
         style="fill:none"
         height="2"
         id="rect43" />
      <rect
         x="0"
         y="0"
         transform="matrix(0.91775463,0.39714789,-0.39714789,0.91775463,0,0)"
         width="218.651"
         style="fill:none"
         height="2"
         id="rect45" />
      <rect
         x="0"
         y="0"
         transform="matrix(0.90482705,0.42577929,-0.42577929,0.90482705,0,0)"
         width="211.4864"
         style="fill:none"
         height="2"
         id="rect47" />
      <rect
         x="0"
         y="0"
         transform="matrix(0.89100652,0.4539905,-0.4539905,0.89100652,0,0)"
         width="218.5918"
         style="fill:none"
         height="2"
         id="rect49" />
      <rect
         x="0"
         y="0"
         transform="matrix(0.87630668,0.48175367,-0.48175367,0.87630668,0,0)"
         width="227.5994"
         style="fill:none"
         height="2"
         id="rect51" />
      <rect
         x="0"
         y="0"
         transform="matrix(0.86074203,0.50904142,-0.50904142,0.86074203,0,0)"
         width="217.5343"
         style="fill:none"
         height="2"
         id="rect53" />
      <rect
         x="0"
         y="0"
         transform="matrix(0.84432793,0.53582679,-0.53582679,0.84432793,0,0)"
         width="198.2794"
         style="fill:none"
         height="2"
         id="rect55" />
      <rect
         x="0"
         y="0"
         transform="matrix(0.82708057,0.56208338,-0.56208338,0.82708057,0,0)"
         width="172.6017"
         style="fill:none"
         height="2"
         id="rect57" />
      <rect
         x="0"
         y="0"
         transform="matrix(0.80901699,0.58778525,-0.58778525,0.80901699,0,0)"
         width="135.88609"
         style="fill:none"
         height="2"
         id="rect59" />
      <rect
         x="0"
         y="0"
         transform="matrix(0.79015501,0.61290705,-0.61290705,0.79015501,0,0)"
         width="127.9883"
         style="fill:none"
         height="2"
         id="rect61" />
      <rect
         x="0"
         y="0"
         transform="matrix(0.77051324,0.63742399,-0.63742399,0.77051324,0,0)"
         width="129.4931"
         style="fill:none"
         height="2"
         id="rect63" />
      <rect
         x="0"
         y="0"
         transform="matrix(0.75011107,0.66131187,-0.66131187,0.75011107,0,0)"
         width="148.47701"
         style="fill:none"
         height="2"
         id="rect65" />
      <rect
         x="0"
         y="0"
         transform="matrix(0.72896863,0.68454711,-0.68454711,0.72896863,0,0)"
         width="150.3071"
         style="fill:none"
         height="2"
         id="rect67" />
      <rect
         x="0"
         y="0"
         transform="matrix(0.70710678,0.70710678,-0.70710678,0.70710678,0,0)"
         width="155.4774"
         style="fill:none"
         height="2"
         id="rect69" />
      <rect
         x="0"
         y="0"
         transform="matrix(0.68454711,0.72896863,-0.72896863,0.68454711,0,0)"
         width="158.53281"
         style="fill:none"
         height="2"
         id="rect71" />
      <rect
         x="0"
         y="0"
         transform="matrix(0.66131187,0.75011107,-0.75011107,0.66131187,0,0)"
         width="153.5209"
         style="fill:none"
         height="2"
         id="rect73" />
      <rect
         x="0"
         y="0"
         transform="matrix(0.63742399,0.77051324,-0.77051324,0.63742399,0,0)"
         width="150.1553"
         style="fill:none"
         height="2"
         id="rect75" />
      <rect
         x="0"
         y="0"
         transform="matrix(0.61290705,0.79015501,-0.79015501,0.61290705,0,0)"
         width="146.7057"
         style="fill:none"
         height="2"
         id="rect77" />
      <rect
         x="0"
         y="0"
         transform="matrix(0.58778525,0.80901699,-0.80901699,0.58778525,0,0)"
         width="144.44991"
         style="fill:none"
         height="2"
         id="rect79" />
      <rect
         x="0"
         y="0"
         transform="matrix(0.56208338,0.82708057,-0.82708057,0.56208338,0,0)"
         width="136.3343"
         style="fill:none"
         height="2"
         id="rect81" />
      <rect
         x="0"
         y="0"
         transform="matrix(0.53582679,0.84432793,-0.84432793,0.53582679,0,0)"
         width="127.5805"
         style="fill:none"
         height="2"
         id="rect83" />
      <rect
         x="0"
         y="0"
         transform="matrix(0.50904142,0.86074203,-0.86074203,0.50904142,0,0)"
         width="119.3717"
         style="fill:none"
         height="2"
         id="rect85" />
      <rect
         x="0"
         y="0"
         transform="matrix(0.48175367,0.87630668,-0.87630668,0.48175367,0,0)"
         width="123.498"
         style="fill:none"
         height="2"
         id="rect87" />
      <rect
         x="0"
         y="0"
         transform="matrix(0.4539905,0.89100652,-0.89100652,0.4539905,0,0)"
         width="109.7255"
         style="fill:none"
         height="2"
         id="rect89" />
      <rect
         x="0"
         y="0"
         transform="matrix(0.42577929,0.90482705,-0.90482705,0.42577929,0,0)"
         width="127.0684"
         style="fill:none"
         height="2"
         id="rect91" />
      <rect
         x="0"
         y="0"
         transform="matrix(0.39714789,0.91775463,-0.91775463,0.39714789,0,0)"
         width="151.7355"
         style="fill:none"
         height="2"
         id="rect93" />
      <rect
         x="0"
         y="0"
         transform="matrix(0.36812455,0.92977649,-0.92977649,0.36812455,0,0)"
         width="168.7363"
         style="fill:none"
         height="2"
         id="rect95" />
      <rect
         x="0"
         y="0"
         transform="matrix(0.33873792,0.94088077,-0.94088077,0.33873792,0,0)"
         width="175.7142"
         style="fill:none"
         height="2"
         id="rect97" />
      <rect
         x="0"
         y="0"
         transform="matrix(0.30901699,0.95105652,-0.95105652,0.30901699,0,0)"
         width="187.0305"
         style="fill:none"
         height="2"
         id="rect99" />
      <rect
         x="0"
         y="0"
         transform="matrix(0.27899111,0.96029369,-0.96029369,0.27899111,0,0)"
         width="196.2968"
         style="fill:none"
         height="2"
         id="rect101" />
      <rect
         x="0"
         y="0"
         transform="matrix(0.24868989,0.96858316,-0.96858316,0.24868989,0,0)"
         width="185.2097"
         style="fill:none"
         height="2"
         id="rect103" />
      <rect
         x="0"
         y="0"
         transform="matrix(0.21814324,0.97591676,-0.97591676,0.21814324,0,0)"
         width="176.93961"
         style="fill:none"
         height="2"
         id="rect105" />
      <rect
         x="0"
         y="0"
         transform="matrix(0.18738131,0.98228725,-0.98228725,0.18738131,0,0)"
         width="180.7515"
         style="fill:none"
         height="2"
         id="rect107" />
      <rect
         x="0"
         y="0"
         transform="matrix(0.15643447,0.98768834,-0.98768834,0.15643447,0,0)"
         width="177.9191"
         style="fill:none"
         height="2"
         id="rect109" />
      <rect
         x="0"
         y="0"
         transform="matrix(0.12533323,0.9921147,-0.9921147,0.12533323,0,0)"
         width="156.0909"
         style="fill:none"
         height="2"
         id="rect111" />
      <rect
         x="0"
         y="0"
         transform="matrix(0.09410831,0.99556196,-0.99556196,0.09410831,0,0)"
         width="140.4404"
         style="fill:none"
         height="2"
         id="rect113" />
      <rect
         x="0"
         y="0"
         transform="matrix(0.06279052,0.99802673,-0.99802673,0.06279052,0,0)"
         width="160.3531"
         style="fill:none"
         height="2"
         id="rect115" />
      <rect
         x="0"
         y="0"
         transform="matrix(0.03141076,0.99950656,-0.99950656,0.03141076,0,0)"
         width="179.54359"
         style="fill:none"
         height="2"
         id="rect117" />
      <rect
         x="0"
         y="0"
         transform="matrix(0,1,-1,0,0,0)"
         width="193.2487"
         style="fill:none"
         height="2"
         id="rect119" />
      <rect
         x="0"
         y="0"
         transform="matrix(-0.03141076,0.99950656,-0.99950656,-0.03141076,0,0)"
         width="208.75169"
         style="fill:none"
         height="2"
         id="rect121" />
      <rect
         x="0"
         y="0"
         transform="matrix(-0.06279052,0.99802673,-0.99802673,-0.06279052,0,0)"
         width="236.5762"
         style="fill:none"
         height="2"
         id="rect123" />
      <rect
         x="0"
         y="0"
         transform="matrix(-0.09410831,0.99556196,-0.99556196,-0.09410831,0,0)"
         width="244.049"
         style="fill:none"
         height="2"
         id="rect125" />
      <rect
         x="0"
         y="0"
         transform="matrix(-0.12533323,0.9921147,-0.9921147,-0.12533323,0,0)"
         width="245.0569"
         style="fill:none"
         height="2"
         id="rect127" />
      <rect
         x="0"
         y="0"
         transform="matrix(-0.15643447,0.98768834,-0.98768834,-0.15643447,0,0)"
         width="266.164"
         style="fill:none"
         height="2"
         id="rect129" />
      <rect
         x="0"
         y="0"
         transform="matrix(-0.18738131,0.98228725,-0.98228725,-0.18738131,0,0)"
         width="276.91119"
         style="fill:none"
         height="2"
         id="rect131" />
      <rect
         x="0"
         y="0"
         transform="matrix(-0.21814324,0.97591676,-0.97591676,-0.21814324,0,0)"
         width="278.0448"
         style="fill:none"
         height="2"
         id="rect133" />
      <rect
         x="0"
         y="0"
         transform="matrix(-0.24868989,0.96858316,-0.96858316,-0.24868989,0,0)"
         width="277.94791"
         style="fill:none"
         height="2"
         id="rect135" />
      <rect
         x="0"
         y="0"
         transform="matrix(-0.27899111,0.96029369,-0.96029369,-0.27899111,0,0)"
         width="277.0025"
         style="fill:none"
         height="2"
         id="rect137" />
      <rect
         x="0"
         y="0"
         transform="matrix(-0.30901699,0.95105652,-0.95105652,-0.30901699,0,0)"
         width="282.70541"
         style="fill:none"
         height="2"
         id="rect139" />
      <rect
         x="0"
         y="0"
         transform="matrix(-0.33873792,0.94088077,-0.94088077,-0.33873792,0,0)"
         width="265.4277"
         style="fill:none"
         height="2"
         id="rect141" />
      <rect
         x="0"
         y="0"
         transform="matrix(-0.36812455,0.92977649,-0.92977649,-0.36812455,0,0)"
         width="277.819"
         style="fill:none"
         height="2"
         id="rect143" />
      <rect
         x="0"
         y="0"
         transform="matrix(-0.39714789,0.91775463,-0.91775463,-0.39714789,0,0)"
         width="282.73889"
         style="fill:none"
         height="2"
         id="rect145" />
      <rect
         x="0"
         y="0"
         transform="matrix(-0.42577929,0.90482705,-0.90482705,-0.42577929,0,0)"
         width="280.51901"
         style="fill:none"
         height="2"
         id="rect147" />
      <rect
         x="0"
         y="0"
         transform="matrix(-0.4539905,0.89100652,-0.89100652,-0.4539905,0,0)"
         width="272.56641"
         style="fill:none"
         height="2"
         id="rect149" />
      <rect
         x="0"
         y="0"
         transform="matrix(-0.48175367,0.87630668,-0.87630668,-0.48175367,0,0)"
         width="286.31119"
         style="fill:none"
         height="2"
         id="rect151" />
      <rect
         x="0"
         y="0"
         transform="matrix(-0.50904142,0.86074203,-0.86074203,-0.50904142,0,0)"
         width="273.36649"
         style="fill:none"
         height="2"
         id="rect153" />
      <rect
         x="0"
         y="0"
         transform="matrix(-0.53582679,0.84432793,-0.84432793,-0.53582679,0,0)"
         width="264.79031"
         style="fill:none"
         height="2"
         id="rect155" />
      <rect
         x="0"
         y="0"
         transform="matrix(-0.56208338,0.82708057,-0.82708057,-0.56208338,0,0)"
         width="264.64389"
         style="fill:none"
         height="2"
         id="rect157" />
      <rect
         x="0"
         y="0"
         transform="matrix(-0.58778525,0.80901699,-0.80901699,-0.58778525,0,0)"
         width="258.5321"
         style="fill:none"
         height="2"
         id="rect159" />
      <rect
         x="0"
         y="0"
         transform="matrix(-0.61290705,0.79015501,-0.79015501,-0.61290705,0,0)"
         width="259.12509"
         style="fill:none"
         height="2"
         id="rect161" />
      <rect
         x="0"
         y="0"
         transform="matrix(-0.63742399,0.77051324,-0.77051324,-0.63742399,0,0)"
         width="251.4729"
         style="fill:none"
         height="2"
         id="rect163" />
      <rect
         x="0"
         y="0"
         transform="matrix(-0.66131187,0.75011107,-0.75011107,-0.66131187,0,0)"
         width="265.43121"
         style="fill:none"
         height="2"
         id="rect165" />
      <rect
         x="0"
         y="0"
         transform="matrix(-0.68454711,0.72896863,-0.72896863,-0.68454711,0,0)"
         width="269.13861"
         style="fill:none"
         height="2"
         id="rect167" />
      <rect
         x="0"
         y="0"
         transform="matrix(-0.70710678,0.70710678,-0.70710678,-0.70710678,0,0)"
         width="231.7756"
         style="fill:none"
         height="2"
         id="rect169" />
      <rect
         x="0"
         y="0"
         transform="matrix(-0.72896863,0.68454711,-0.68454711,-0.72896863,0,0)"
         width="210.1127"
         style="fill:none"
         height="2"
         id="rect171" />
      <rect
         x="0"
         y="0"
         transform="matrix(-0.75011107,0.66131187,-0.66131187,-0.75011107,0,0)"
         width="222.62041"
         style="fill:none"
         height="2"
         id="rect173" />
      <rect
         x="0"
         y="0"
         transform="matrix(-0.77051324,0.63742399,-0.63742399,-0.77051324,0,0)"
         width="240.75771"
         style="fill:none"
         height="2"
         id="rect175" />
      <rect
         x="0"
         y="0"
         transform="matrix(-0.79015501,0.61290705,-0.61290705,-0.79015501,0,0)"
         width="257.4682"
         style="fill:none"
         height="2"
         id="rect177" />
      <rect
         x="0"
         y="0"
         transform="matrix(-0.80901699,0.58778525,-0.58778525,-0.80901699,0,0)"
         width="278.82761"
         style="fill:none"
         height="2"
         id="rect179" />
      <rect
         x="0"
         y="0"
         transform="matrix(-0.82708057,0.56208338,-0.56208338,-0.82708057,0,0)"
         width="272.97809"
         style="fill:none"
         height="2"
         id="rect181" />
      <rect
         x="0"
         y="0"
         transform="matrix(-0.84432793,0.53582679,-0.53582679,-0.84432793,0,0)"
         width="285.9046"
         style="fill:none"
         height="2"
         id="rect183" />
      <rect
         x="0"
         y="0"
         transform="matrix(-0.86074203,0.50904142,-0.50904142,-0.86074203,0,0)"
         width="283.8093"
         style="fill:none"
         height="2"
         id="rect185" />
      <rect
         x="0"
         y="0"
         transform="matrix(-0.87630668,0.48175367,-0.48175367,-0.87630668,0,0)"
         width="285.73901"
         style="fill:none"
         height="2"
         id="rect187" />
      <rect
         x="0"
         y="0"
         transform="matrix(-0.89100652,0.4539905,-0.4539905,-0.89100652,0,0)"
         width="288.20581"
         style="fill:none"
         height="2"
         id="rect189" />
      <rect
         x="0"
         y="0"
         transform="matrix(-0.90482705,0.42577929,-0.42577929,-0.90482705,0,0)"
         width="271.0842"
         style="fill:none"
         height="2"
         id="rect191" />
      <rect
         x="0"
         y="0"
         transform="matrix(-0.91775463,0.39714789,-0.39714789,-0.91775463,0,0)"
         width="269.87149"
         style="fill:none"
         height="2"
         id="rect193" />
      <rect
         x="0"
         y="0"
         transform="matrix(-0.92977649,0.36812455,-0.36812455,-0.92977649,0,0)"
         width="271.76779"
         style="fill:none"
         height="2"
         id="rect195" />
      <rect
         x="0"
         y="0"
         transform="matrix(-0.94088077,0.33873792,-0.33873792,-0.94088077,0,0)"
         width="265.1868"
         style="fill:none"
         height="2"
         id="rect197" />
      <rect
         x="0"
         y="0"
         transform="matrix(-0.95105652,0.30901699,-0.30901699,-0.95105652,0,0)"
         width="237.7164"
         style="fill:none"
         height="2"
         id="rect199" />
      <rect
         x="0"
         y="0"
         transform="matrix(-0.96029369,0.27899111,-0.27899111,-0.96029369,0,0)"
         width="221.6573"
         style="fill:none"
         height="2"
         id="rect201" />
      <rect
         x="0"
         y="0"
         transform="matrix(-0.96858316,0.24868989,-0.24868989,-0.96858316,0,0)"
         width="218.7256"
         style="fill:none"
         height="2"
         id="rect203" />
      <rect
         x="0"
         y="0"
         transform="matrix(-0.97591676,0.21814324,-0.21814324,-0.97591676,0,0)"
         width="212.99471"
         style="fill:none"
         height="2"
         id="rect205" />
      <rect
         x="0"
         y="0"
         transform="matrix(-0.98228725,0.18738131,-0.18738131,-0.98228725,0,0)"
         width="201.968"
         style="fill:none"
         height="2"
         id="rect207" />
      <rect
         x="0"
         y="0"
         transform="matrix(-0.98768834,0.15643447,-0.15643447,-0.98768834,0,0)"
         width="221.53349"
         style="fill:none"
         height="2"
         id="rect209" />
      <rect
         x="0"
         y="0"
         transform="matrix(-0.9921147,0.12533323,-0.12533323,-0.9921147,0,0)"
         width="218.19521"
         style="fill:none"
         height="2"
         id="rect211" />
      <rect
         x="0"
         y="0"
         transform="matrix(-0.99556196,0.09410831,-0.09410831,-0.99556196,0,0)"
         width="200.4079"
         style="fill:none"
         height="2"
         id="rect213" />
      <rect
         x="0"
         y="0"
         transform="matrix(-0.99802673,0.06279052,-0.06279052,-0.99802673,0,0)"
         width="167.2827"
         style="fill:none"
         height="2"
         id="rect215" />
      <rect
         x="0"
         y="0"
         transform="matrix(-0.99950656,0.03141076,-0.03141076,-0.99950656,0,0)"
         width="131.7612"
         style="fill:none"
         height="2"
         id="rect217" />
      <rect
         x="0"
         y="0"
         transform="scale(-1,-1)"
         width="116.795"
         style="fill:none"
         height="2"
         id="rect219" />
      <rect
         x="0"
         y="0"
         transform="matrix(-0.99950656,-0.03141076,0.03141076,-0.99950656,0,0)"
         width="116.3686"
         style="fill:none"
         height="2"
         id="rect221" />
      <rect
         x="0"
         y="0"
         transform="matrix(-0.99802673,-0.06279052,0.06279052,-0.99802673,0,0)"
         width="135.88651"
         style="fill:none"
         height="2"
         id="rect223" />
      <rect
         x="0"
         y="0"
         transform="matrix(-0.99556196,-0.09410831,0.09410831,-0.99556196,0,0)"
         width="172.9843"
         style="fill:none"
         height="2"
         id="rect225" />
      <rect
         x="0"
         y="0"
         transform="matrix(-0.9921147,-0.12533323,0.12533323,-0.9921147,0,0)"
         width="190.27049"
         style="fill:none"
         height="2"
         id="rect227" />
      <rect
         x="0"
         y="0"
         transform="matrix(-0.98768834,-0.15643447,0.15643447,-0.98768834,0,0)"
         width="180.9386"
         style="fill:none"
         height="2"
         id="rect229" />
      <rect
         x="0"
         y="0"
         transform="matrix(-0.98228725,-0.18738131,0.18738131,-0.98228725,0,0)"
         width="193.44569"
         style="fill:none"
         height="2"
         id="rect231" />
      <rect
         x="0"
         y="0"
         transform="matrix(-0.97591676,-0.21814324,0.21814324,-0.97591676,0,0)"
         width="206.7458"
         style="fill:none"
         height="2"
         id="rect233" />
      <rect
         x="0"
         y="0"
         transform="matrix(-0.96858316,-0.24868989,0.24868989,-0.96858316,0,0)"
         width="212.08189"
         style="fill:none"
         height="2"
         id="rect235" />
      <rect
         x="0"
         y="0"
         transform="matrix(-0.96029369,-0.27899111,0.27899111,-0.96029369,0,0)"
         width="234.68941"
         style="fill:none"
         height="2"
         id="rect237" />
      <rect
         x="0"
         y="0"
         transform="matrix(-0.95105652,-0.30901699,0.30901699,-0.95105652,0,0)"
         width="280.42389"
         style="fill:none"
         height="2"
         id="rect239" />
      <rect
         x="0"
         y="0"
         transform="matrix(-0.94088077,-0.33873792,0.33873792,-0.94088077,0,0)"
         width="285.48581"
         style="fill:none"
         height="2"
         id="rect241" />
      <rect
         x="0"
         y="0"
         transform="matrix(-0.92977649,-0.36812455,0.36812455,-0.92977649,0,0)"
         width="296.23941"
         style="fill:none"
         height="2"
         id="rect243" />
      <rect
         x="0"
         y="0"
         transform="matrix(-0.91775463,-0.39714789,0.39714789,-0.91775463,0,0)"
         width="296.13031"
         style="fill:none"
         height="2"
         id="rect245" />
      <rect
         x="0"
         y="0"
         transform="matrix(-0.90482705,-0.42577929,0.42577929,-0.90482705,0,0)"
         width="296.52509"
         style="fill:none"
         height="2"
         id="rect247" />
      <rect
         x="0"
         y="0"
         transform="matrix(-0.89100652,-0.4539905,0.4539905,-0.89100652,0,0)"
         width="317.36469"
         style="fill:none"
         height="2"
         id="rect249" />
      <rect
         x="0"
         y="0"
         transform="matrix(-0.87630668,-0.48175367,0.48175367,-0.87630668,0,0)"
         width="338.10541"
         style="fill:none"
         height="2"
         id="rect251" />
      <rect
         x="0"
         y="0"
         transform="matrix(-0.86074203,-0.50904142,0.50904142,-0.86074203,0,0)"
         width="334.17181"
         style="fill:none"
         height="2"
         id="rect253" />
      <rect
         x="0"
         y="0"
         transform="matrix(-0.84432793,-0.53582679,0.53582679,-0.84432793,0,0)"
         width="342.84579"
         style="fill:none"
         height="2"
         id="rect255" />
      <rect
         x="0"
         y="0"
         transform="matrix(-0.82708057,-0.56208338,0.56208338,-0.82708057,0,0)"
         width="348.03491"
         style="fill:none"
         height="2"
         id="rect257" />
      <rect
         x="0"
         y="0"
         transform="matrix(-0.80901699,-0.58778525,0.58778525,-0.80901699,0,0)"
         width="332.91791"
         style="fill:none"
         height="2"
         id="rect259" />
      <rect
         x="0"
         y="0"
         transform="matrix(-0.79015501,-0.61290705,0.61290705,-0.79015501,0,0)"
         width="331.61279"
         style="fill:none"
         height="2"
         id="rect261" />
      <rect
         x="0"
         y="0"
         transform="matrix(-0.77051324,-0.63742399,0.63742399,-0.77051324,0,0)"
         width="325.99811"
         style="fill:none"
         height="2"
         id="rect263" />
      <rect
         x="0"
         y="0"
         transform="matrix(-0.75011107,-0.66131187,0.66131187,-0.75011107,0,0)"
         width="305.64371"
         style="fill:none"
         height="2"
         id="rect265" />
      <rect
         x="0"
         y="0"
         transform="matrix(-0.72896863,-0.68454711,0.68454711,-0.72896863,0,0)"
         width="295.6033"
         style="fill:none"
         height="2"
         id="rect267" />
      <rect
         x="0"
         y="0"
         transform="matrix(-0.70710678,-0.70710678,0.70710678,-0.70710678,0,0)"
         width="294.77631"
         style="fill:none"
         height="2"
         id="rect269" />
      <rect
         x="0"
         y="0"
         transform="matrix(-0.68454711,-0.72896863,0.72896863,-0.68454711,0,0)"
         width="290.7576"
         style="fill:none"
         height="2"
         id="rect271" />
      <rect
         x="0"
         y="0"
         transform="matrix(-0.66131187,-0.75011107,0.75011107,-0.66131187,0,0)"
         width="272.19901"
         style="fill:none"
         height="2"
         id="rect273" />
      <rect
         x="0"
         y="0"
         transform="matrix(-0.63742399,-0.77051324,0.77051324,-0.63742399,0,0)"
         width="246.2226"
         style="fill:none"
         height="2"
         id="rect275" />
      <rect
         x="0"
         y="0"
         transform="matrix(-0.61290705,-0.79015501,0.79015501,-0.61290705,0,0)"
         width="240.1711"
         style="fill:none"
         height="2"
         id="rect277" />
      <rect
         x="0"
         y="0"
         transform="matrix(-0.58778525,-0.80901699,0.80901699,-0.58778525,0,0)"
         width="269.2627"
         style="fill:none"
         height="2"
         id="rect279" />
      <rect
         x="0"
         y="0"
         transform="matrix(-0.56208338,-0.82708057,0.82708057,-0.56208338,0,0)"
         width="279.54849"
         style="fill:none"
         height="2"
         id="rect281" />
      <rect
         x="0"
         y="0"
         transform="matrix(-0.53582679,-0.84432793,0.84432793,-0.53582679,0,0)"
         width="261.85739"
         style="fill:none"
         height="2"
         id="rect283" />
      <rect
         x="0"
         y="0"
         transform="matrix(-0.50904142,-0.86074203,0.86074203,-0.50904142,0,0)"
         width="262.285"
         style="fill:none"
         height="2"
         id="rect285" />
      <rect
         x="0"
         y="0"
         transform="matrix(-0.48175367,-0.87630668,0.87630668,-0.48175367,0,0)"
         width="274.92719"
         style="fill:none"
         height="2"
         id="rect287" />
      <rect
         x="0"
         y="0"
         transform="matrix(-0.4539905,-0.89100652,0.89100652,-0.4539905,0,0)"
         width="261.42841"
         style="fill:none"
         height="2"
         id="rect289" />
      <rect
         x="0"
         y="0"
         transform="matrix(-0.42577929,-0.90482705,0.90482705,-0.42577929,0,0)"
         width="243.84351"
         style="fill:none"
         height="2"
         id="rect291" />
      <rect
         x="0"
         y="0"
         transform="matrix(-0.39714789,-0.91775463,0.91775463,-0.39714789,0,0)"
         width="261.29861"
         style="fill:none"
         height="2"
         id="rect293" />
      <rect
         x="0"
         y="0"
         transform="matrix(-0.36812455,-0.92977649,0.92977649,-0.36812455,0,0)"
         width="280.8649"
         style="fill:none"
         height="2"
         id="rect295" />
      <rect
         x="0"
         y="0"
         transform="matrix(-0.33873792,-0.94088077,0.94088077,-0.33873792,0,0)"
         width="284.30219"
         style="fill:none"
         height="2"
         id="rect297" />
      <rect
         x="0"
         y="0"
         transform="matrix(-0.30901699,-0.95105652,0.95105652,-0.30901699,0,0)"
         width="262.00241"
         style="fill:none"
         height="2"
         id="rect299" />
      <rect
         x="0"
         y="0"
         transform="matrix(-0.27899111,-0.96029369,0.96029369,-0.27899111,0,0)"
         width="245.5235"
         style="fill:none"
         height="2"
         id="rect301" />
      <rect
         x="0"
         y="0"
         transform="matrix(-0.24868989,-0.96858316,0.96858316,-0.24868989,0,0)"
         width="261.2811"
         style="fill:none"
         height="2"
         id="rect303" />
      <rect
         x="0"
         y="0"
         transform="matrix(-0.21814324,-0.97591676,0.97591676,-0.21814324,0,0)"
         width="268.77271"
         style="fill:none"
         height="2"
         id="rect305" />
      <rect
         x="0"
         y="0"
         transform="matrix(-0.18738131,-0.98228725,0.98228725,-0.18738131,0,0)"
         width="262.2178"
         style="fill:none"
         height="2"
         id="rect307" />
      <rect
         x="0"
         y="0"
         transform="matrix(-0.15643447,-0.98768834,0.98768834,-0.15643447,0,0)"
         width="274.0643"
         style="fill:none"
         height="2"
         id="rect309" />
      <rect
         x="0"
         y="0"
         transform="matrix(-0.12533323,-0.9921147,0.9921147,-0.12533323,0,0)"
         width="275.15799"
         style="fill:none"
         height="2"
         id="rect311" />
      <rect
         x="0"
         y="0"
         transform="matrix(-0.09410831,-0.99556196,0.99556196,-0.09410831,0,0)"
         width="271.76041"
         style="fill:none"
         height="2"
         id="rect313" />
      <rect
         x="0"
         y="0"
         transform="matrix(-0.06279052,-0.99802673,0.99802673,-0.06279052,0,0)"
         width="277.7597"
         style="fill:none"
         height="2"
         id="rect315" />
      <rect
         x="0"
         y="0"
         transform="matrix(-0.03141076,-0.99950656,0.99950656,-0.03141076,0,0)"
         width="269.87531"
         style="fill:none"
         height="2"
         id="rect317" />
      <rect
         x="0"
         y="0"
         transform="matrix(0,-1,1,0,0,0)"
         width="252.64571"
         style="fill:none"
         height="2"
         id="rect319" />
      <rect
         x="0"
         y="0"
         transform="matrix(0.03141076,-0.99950656,0.99950656,0.03141076,0,0)"
         width="271.5314"
         style="fill:none"
         height="2"
         id="rect321" />
      <rect
         x="0"
         y="0"
         transform="matrix(0.06279052,-0.99802673,0.99802673,0.06279052,0,0)"
         width="287.14969"
         style="fill:none"
         height="2"
         id="rect323" />
      <rect
         x="0"
         y="0"
         transform="matrix(0.09410831,-0.99556196,0.99556196,0.09410831,0,0)"
         width="303.27399"
         style="fill:none"
         height="2"
         id="rect325" />
      <rect
         x="0"
         y="0"
         transform="matrix(0.12533323,-0.9921147,0.9921147,0.12533323,0,0)"
         width="304.61249"
         style="fill:none"
         height="2"
         id="rect327" />
      <rect
         x="0"
         y="0"
         transform="matrix(0.15643447,-0.98768834,0.98768834,0.15643447,0,0)"
         width="269.42389"
         style="fill:none"
         height="2"
         id="rect329" />
      <rect
         x="0"
         y="0"
         transform="matrix(0.18738131,-0.98228725,0.98228725,0.18738131,0,0)"
         width="236.49831"
         style="fill:none"
         height="2"
         id="rect331" />
      <rect
         x="0"
         y="0"
         transform="matrix(0.21814324,-0.97591676,0.97591676,0.21814324,0,0)"
         width="195.44389"
         style="fill:none"
         height="2"
         id="rect333" />
      <rect
         x="0"
         y="0"
         transform="matrix(0.24868989,-0.96858316,0.96858316,0.24868989,0,0)"
         width="169.138"
         style="fill:none"
         height="2"
         id="rect335" />
      <rect
         x="0"
         y="0"
         transform="matrix(0.27899111,-0.96029369,0.96029369,0.27899111,0,0)"
         width="167.3681"
         style="fill:none"
         height="2"
         id="rect337" />
      <rect
         x="0"
         y="0"
         transform="matrix(0.30901699,-0.95105652,0.95105652,0.30901699,0,0)"
         width="170.5163"
         style="fill:none"
         height="2"
         id="rect339" />
      <rect
         x="0"
         y="0"
         transform="matrix(0.33873792,-0.94088077,0.94088077,0.33873792,0,0)"
         width="202.8947"
         style="fill:none"
         height="2"
         id="rect341" />
      <rect
         x="0"
         y="0"
         transform="matrix(0.36812455,-0.92977649,0.92977649,0.36812455,0,0)"
         width="206.30701"
         style="fill:none"
         height="2"
         id="rect343" />
      <rect
         x="0"
         y="0"
         transform="matrix(0.39714789,-0.91775463,0.91775463,0.39714789,0,0)"
         width="215.424"
         style="fill:none"
         height="2"
         id="rect345" />
      <rect
         x="0"
         y="0"
         transform="matrix(0.42577929,-0.90482705,0.90482705,0.42577929,0,0)"
         width="216.54781"
         style="fill:none"
         height="2"
         id="rect347" />
      <rect
         x="0"
         y="0"
         transform="matrix(0.4539905,-0.89100652,0.89100652,0.4539905,0,0)"
         width="217.7589"
         style="fill:none"
         height="2"
         id="rect349" />
      <rect
         x="0"
         y="0"
         transform="matrix(0.48175367,-0.87630668,0.87630668,0.48175367,0,0)"
         width="229.0674"
         style="fill:none"
         height="2"
         id="rect351" />
      <rect
         x="0"
         y="0"
         transform="matrix(0.50904142,-0.86074203,0.86074203,0.50904142,0,0)"
         width="233.36951"
         style="fill:none"
         height="2"
         id="rect353" />
      <rect
         x="0"
         y="0"
         transform="matrix(0.53582679,-0.84432793,0.84432793,0.53582679,0,0)"
         width="218.83949"
         style="fill:none"
         height="2"
         id="rect355" />
      <rect
         x="0"
         y="0"
         transform="matrix(0.56208338,-0.82708057,0.82708057,0.56208338,0,0)"
         width="218.5451"
         style="fill:none"
         height="2"
         id="rect357" />
      <rect
         x="0"
         y="0"
         transform="matrix(0.58778525,-0.80901699,0.80901699,0.58778525,0,0)"
         width="219.37981"
         style="fill:none"
         height="2"
         id="rect359" />
      <rect
         x="0"
         y="0"
         transform="matrix(0.61290705,-0.79015501,0.79015501,0.61290705,0,0)"
         width="229.6097"
         style="fill:none"
         height="2"
         id="rect361" />
      <rect
         x="0"
         y="0"
         transform="matrix(0.63742399,-0.77051324,0.77051324,0.63742399,0,0)"
         width="212.01891"
         style="fill:none"
         height="2"
         id="rect363" />
      <rect
         x="0"
         y="0"
         transform="matrix(0.66131187,-0.75011107,0.75011107,0.66131187,0,0)"
         width="208.715"
         style="fill:none"
         height="2"
         id="rect365" />
      <rect
         x="0"
         y="0"
         transform="matrix(0.68454711,-0.72896863,0.72896863,0.68454711,0,0)"
         width="212.2074"
         style="fill:none"
         height="2"
         id="rect367" />
      <rect
         x="0"
         y="0"
         transform="matrix(0.70710678,-0.70710678,0.70710678,0.70710678,0,0)"
         width="233.4761"
         style="fill:none"
         height="2"
         id="rect369" />
      <rect
         x="0"
         y="0"
         transform="matrix(0.72896863,-0.68454711,0.68454711,0.72896863,0,0)"
         width="227.4238"
         style="fill:none"
         height="2"
         id="rect371" />
      <rect
         x="0"
         y="0"
         transform="matrix(0.75011107,-0.66131187,0.66131187,0.75011107,0,0)"
         width="221.328"
         style="fill:none"
         height="2"
         id="rect373" />
      <rect
         x="0"
         y="0"
         transform="matrix(0.77051324,-0.63742399,0.63742399,0.77051324,0,0)"
         width="203.4976"
         style="fill:none"
         height="2"
         id="rect375" />
      <rect
         x="0"
         y="0"
         transform="matrix(0.79015501,-0.61290705,0.61290705,0.79015501,0,0)"
         width="194.3206"
         style="fill:none"
         height="2"
         id="rect377" />
      <rect
         x="0"
         y="0"
         transform="matrix(0.80901699,-0.58778525,0.58778525,0.80901699,0,0)"
         width="190.5845"
         style="fill:none"
         height="2"
         id="rect379" />
      <rect
         x="0"
         y="0"
         transform="matrix(0.82708057,-0.56208338,0.56208338,0.82708057,0,0)"
         width="206.9725"
         style="fill:none"
         height="2"
         id="rect381" />
      <rect
         x="0"
         y="0"
         transform="matrix(0.84432793,-0.53582679,0.53582679,0.84432793,0,0)"
         width="214.8084"
         style="fill:none"
         height="2"
         id="rect383" />
      <rect
         x="0"
         y="0"
         transform="matrix(0.86074203,-0.50904142,0.50904142,0.86074203,0,0)"
         width="207.2569"
         style="fill:none"
         height="2"
         id="rect385" />
      <rect
         x="0"
         y="0"
         transform="matrix(0.87630668,-0.48175367,0.48175367,0.87630668,0,0)"
         width="196.0334"
         style="fill:none"
         height="2"
         id="rect387" />
      <rect
         x="0"
         y="0"
         transform="matrix(0.89100652,-0.4539905,0.4539905,0.89100652,0,0)"
         width="187.6689"
         style="fill:none"
         height="2"
         id="rect389" />
      <rect
         x="0"
         y="0"
         transform="matrix(0.90482705,-0.42577929,0.42577929,0.90482705,0,0)"
         width="174.0415"
         style="fill:none"
         height="2"
         id="rect391" />
      <rect
         x="0"
         y="0"
         transform="matrix(0.91775463,-0.39714789,0.39714789,0.91775463,0,0)"
         width="152.8497"
         style="fill:none"
         height="2"
         id="rect393" />
      <rect
         x="0"
         y="0"
         transform="matrix(0.92977649,-0.36812455,0.36812455,0.92977649,0,0)"
         width="140.56931"
         style="fill:none"
         height="2"
         id="rect395" />
      <rect
         x="0"
         y="0"
         transform="matrix(0.94088077,-0.33873792,0.33873792,0.94088077,0,0)"
         width="128.4198"
         style="fill:none"
         height="2"
         id="rect397" />
      <rect
         x="0"
         y="0"
         transform="matrix(0.95105652,-0.30901699,0.30901699,0.95105652,0,0)"
         width="133.6721"
         style="fill:none"
         height="2"
         id="rect399" />
      <rect
         x="0"
         y="0"
         transform="matrix(0.96029369,-0.27899111,0.27899111,0.96029369,0,0)"
         width="128.5571"
         style="fill:none"
         height="2"
         id="rect401" />
      <rect
         x="0"
         y="0"
         transform="matrix(0.96858316,-0.24868989,0.24868989,0.96858316,0,0)"
         width="133.78619"
         style="fill:none"
         height="2"
         id="rect403" />
      <rect
         x="0"
         y="0"
         transform="matrix(0.97591676,-0.21814324,0.21814324,0.97591676,0,0)"
         width="109.8487"
         style="fill:none"
         height="2"
         id="rect405" />
      <rect
         x="0"
         y="0"
         transform="matrix(0.98228725,-0.18738131,0.18738131,0.98228725,0,0)"
         width="98.527"
         style="fill:none"
         height="2"
         id="rect407" />
      <rect
         x="0"
         y="0"
         transform="matrix(0.98768834,-0.15643447,0.15643447,0.98768834,0,0)"
         width="120.6852"
         style="fill:none"
         height="2"
         id="rect409" />
      <rect
         x="0"
         y="0"
         transform="matrix(0.9921147,-0.12533323,0.12533323,0.9921147,0,0)"
         width="150.92821"
         style="fill:none"
         height="2"
         id="rect411" />
      <rect
         x="0"
         y="0"
         transform="matrix(0.99556196,-0.09410831,0.09410831,0.99556196,0,0)"
         width="165.4371"
         style="fill:none"
         height="2"
         id="rect413" />
      <rect
         x="0"
         y="0"
         transform="matrix(0.99802673,-0.06279052,0.06279052,0.99802673,0,0)"
         width="167.5793"
         style="fill:none"
         height="2"
         id="rect415" />
      <rect
         x="0"
         y="0"
         transform="matrix(0.99950656,-0.03141076,0.03141076,0.99950656,0,0)"
         width="158.27499"
         style="fill:none"
         height="2"
         id="rect417" />
      <rect
         x="0"
         y="0"
         width="161.1115"
         style="fill:none"
         height="2"
         id="rect419" />
    </g>
  </g>
</svg>
