<?xml version="1.0" encoding="UTF-8" standalone="no"?>
<svg
   xmlns:dc="http://purl.org/dc/elements/1.1/"
   xmlns:cc="http://creativecommons.org/ns#"
   xmlns:rdf="http://www.w3.org/1999/02/22-rdf-syntax-ns#"
   xmlns:svg="http://www.w3.org/2000/svg"
   xmlns="http://www.w3.org/2000/svg"
   xmlns:sodipodi="http://sodipodi.sourceforge.net/DTD/sodipodi-0.dtd"
   xmlns:inkscape="http://www.inkscape.org/namespaces/inkscape"
   style="font-style:normal;font-weight:normal;font-size:12px;font-family:Dialog;color-interpolation:auto;fill:#000000;fill-opacity:1;stroke:#000000;stroke-width:1;stroke-linecap:square;stroke-linejoin:miter;stroke-miterlimit:10;stroke-dasharray:none;stroke-dashoffset:0;stroke-opacity:1;color-rendering:auto;image-rendering:auto;shape-rendering:auto;text-rendering:auto"
   width="254mm"
   height="177.8mm"
   id="svg2"
   version="1.1"
   inkscape:version="0.91 r13725"
   sodipodi:docname="190414_162836_export.svg">
  <metadata
     id="metadata357">
    <rdf:RDF>
      <cc:Work
         rdf:about="">
        <dc:format>image/svg+xml</dc:format>
        <dc:type
           rdf:resource="http://purl.org/dc/dcmitype/StillImage" />
        <dc:title></dc:title>
      </cc:Work>
    </rdf:RDF>
  </metadata>
  <sodipodi:namedview
     pagecolor="#ffffff"
     bordercolor="#666666"
     borderopacity="1"
     objecttolerance="10"
     gridtolerance="10"
     guidetolerance="10"
     inkscape:pageopacity="0"
     inkscape:pageshadow="2"
     inkscape:window-width="1346"
     inkscape:window-height="740"
     id="namedview355"
     showgrid="false"
     units="mm"
     inkscape:zoom="0.74167645"
     inkscape:cx="333.12436"
     inkscape:cy="309.33091"
     inkscape:window-x="0"
     inkscape:window-y="0"
     inkscape:window-maximized="0"
     inkscape:current-layer="svg2" />
  <!--Generated by the Batik Graphics2D SVG Generator-->
  <defs
     id="genericDefs" />
  <g
     id="g5"
     transform="matrix(1.9552446,0,0,1.9552446,-165.90205,-564.86006)">
    <g
       style="stroke-linecap:round"
       transform="translate(315,450)"
       id="g7">
      <path
         style="fill:none"
         d="M 0,50 C 73.8587,200 20,30 100,100"
         id="path9"
         inkscape:connector-curvature="0" />
    </g>
    <g
       style="stroke-linecap:round"
       transform="matrix(0.95105652,0.30901699,-0.30901699,0.95105652,315,450)"
       id="g11">
      <ellipse
         rx="36.929401"
         ry="100"
         style="fill:none"
         cx="0"
         cy="50"
         id="ellipse13" />
      <path
         d="M 0,50 C 73.8587,200 20,30 100,100"
         style="fill:none"
         transform="matrix(0.95105652,0.30901699,-0.30901699,0.95105652,0,0)"
         id="path15"
         inkscape:connector-curvature="0" />
      <ellipse
         transform="matrix(0.80901699,0.58778525,-0.58778525,0.80901699,0,0)"
         style="fill:none"
         rx="36.929401"
         cx="0"
         ry="100"
         cy="50"
         id="ellipse17" />
      <path
         d="M 0,50 C 73.8587,200 20,30 100,100"
         style="fill:none"
         transform="matrix(0.58778525,0.80901699,-0.80901699,0.58778525,0,0)"
         id="path19"
         inkscape:connector-curvature="0" />
      <ellipse
         transform="matrix(0.30901699,0.95105652,-0.95105652,0.30901699,0,0)"
         style="fill:none"
         rx="36.929401"
         cx="0"
         ry="100"
         cy="50"
         id="ellipse21" />
      <path
         d="M 0,50 C 73.8587,200 20,30 100,100"
         style="fill:none"
         transform="matrix(0,1,-1,0,0,0)"
         id="path23"
         inkscape:connector-curvature="0" />
      <ellipse
         transform="matrix(-0.30901699,0.95105652,-0.95105652,-0.30901699,0,0)"
         style="fill:none"
         rx="36.929401"
         cx="0"
         ry="100"
         cy="50"
         id="ellipse25" />
      <path
         d="M 0,50 C 73.8587,200 20,30 100,100"
         style="fill:none"
         transform="matrix(-0.58778525,0.80901699,-0.80901699,-0.58778525,0,0)"
         id="path27"
         inkscape:connector-curvature="0" />
      <ellipse
         transform="matrix(-0.80901699,0.58778525,-0.58778525,-0.80901699,0,0)"
         style="fill:none"
         rx="36.929401"
         cx="0"
         ry="100"
         cy="50"
         id="ellipse29" />
      <path
         d="M 0,50 C 73.8587,200 20,30 100,100"
         style="fill:none"
         transform="matrix(-0.95105652,0.30901699,-0.30901699,-0.95105652,0,0)"
         id="path31"
         inkscape:connector-curvature="0" />
      <ellipse
         transform="scale(-1,-1)"
         style="fill:none"
         rx="36.929401"
         cx="0"
         ry="100"
         cy="50"
         id="ellipse33" />
      <path
         d="M 0,50 C 73.8587,200 20,30 100,100"
         style="fill:none"
         transform="matrix(-0.95105652,-0.30901699,0.30901699,-0.95105652,0,0)"
         id="path35"
         inkscape:connector-curvature="0" />
      <ellipse
         transform="matrix(-0.80901699,-0.58778525,0.58778525,-0.80901699,0,0)"
         style="fill:none"
         rx="36.929401"
         cx="0"
         ry="100"
         cy="50"
         id="ellipse37" />
      <path
         d="M 0,50 C 73.8587,200 20,30 100,100"
         style="fill:none"
         transform="matrix(-0.58778525,-0.80901699,0.80901699,-0.58778525,0,0)"
         id="path39"
         inkscape:connector-curvature="0" />
      <ellipse
         transform="matrix(-0.30901699,-0.95105652,0.95105652,-0.30901699,0,0)"
         style="fill:none"
         rx="36.929401"
         cx="0"
         ry="100"
         cy="50"
         id="ellipse41" />
      <path
         d="M 0,50 C 73.8587,200 20,30 100,100"
         style="fill:none"
         transform="matrix(0,-1,1,0,0,0)"
         id="path43"
         inkscape:connector-curvature="0" />
      <ellipse
         transform="matrix(0.30901699,-0.95105652,0.95105652,0.30901699,0,0)"
         style="fill:none"
         rx="36.929401"
         cx="0"
         ry="100"
         cy="50"
         id="ellipse45" />
      <path
         d="M 0,50 C 73.8587,200 20,30 100,100"
         style="fill:none"
         transform="matrix(0.58778525,-0.80901699,0.80901699,0.58778525,0,0)"
         id="path47"
         inkscape:connector-curvature="0" />
      <ellipse
         transform="matrix(0.80901699,-0.58778525,0.58778525,0.80901699,0,0)"
         style="fill:none"
         rx="36.929401"
         cx="0"
         ry="100"
         cy="50"
         id="ellipse49" />
      <path
         d="M 0,50 C 73.8587,200 20,30 100,100"
         style="fill:none"
         transform="matrix(0.95105652,-0.30901699,0.30901699,0.95105652,0,0)"
         id="path51"
         inkscape:connector-curvature="0" />
      <ellipse
         style="fill:none"
         rx="36.929401"
         cx="0"
         ry="100"
         cy="50"
         id="ellipse53" />
      <path
         d="M 0,50 C 73.8587,200 20,30 100,100"
         style="fill:none"
         transform="matrix(0.95105652,0.30901699,-0.30901699,0.95105652,0,0)"
         id="path55"
         inkscape:connector-curvature="0" />
      <ellipse
         transform="matrix(0.80901699,0.58778525,-0.58778525,0.80901699,0,0)"
         style="fill:none"
         rx="36.929401"
         cx="0"
         ry="100"
         cy="50"
         id="ellipse57" />
      <path
         d="M 0,50 C 73.8587,200 20,30 100,100"
         style="fill:none"
         transform="matrix(0.58778525,0.80901699,-0.80901699,0.58778525,0,0)"
         id="path59"
         inkscape:connector-curvature="0" />
      <ellipse
         transform="matrix(0.30901699,0.95105652,-0.95105652,0.30901699,0,0)"
         style="fill:none"
         rx="36.929401"
         cx="0"
         ry="100"
         cy="50"
         id="ellipse61" />
      <path
         d="M 0,50 C 73.8587,200 20,30 100,100"
         style="fill:none"
         transform="matrix(0,1,-1,0,0,0)"
         id="path63"
         inkscape:connector-curvature="0" />
      <ellipse
         transform="matrix(-0.30901699,0.95105652,-0.95105652,-0.30901699,0,0)"
         style="fill:none"
         rx="36.929401"
         cx="0"
         ry="100"
         cy="50"
         id="ellipse65" />
      <path
         d="M 0,50 C 73.8587,200 20,30 100,100"
         style="fill:none"
         transform="matrix(-0.58778525,0.80901699,-0.80901699,-0.58778525,0,0)"
         id="path67"
         inkscape:connector-curvature="0" />
      <ellipse
         transform="matrix(-0.80901699,0.58778525,-0.58778525,-0.80901699,0,0)"
         style="fill:none"
         rx="36.929401"
         cx="0"
         ry="100"
         cy="50"
         id="ellipse69" />
      <path
         d="M 0,50 C 76.133,200 20,30 100,100"
         style="fill:none"
         transform="matrix(-0.95105652,0.30901699,-0.30901699,-0.95105652,0,0)"
         id="path71"
         inkscape:connector-curvature="0" />
      <ellipse
         transform="scale(-1,-1)"
         style="fill:none"
         rx="38.066502"
         cx="0"
         ry="100"
         cy="50"
         id="ellipse73" />
      <path
         d="M 0,50 C 76.133,200 20,30 100,100"
         style="fill:none"
         transform="matrix(-0.95105652,-0.30901699,0.30901699,-0.95105652,0,0)"
         id="path75"
         inkscape:connector-curvature="0" />
      <ellipse
         transform="matrix(-0.80901699,-0.58778525,0.58778525,-0.80901699,0,0)"
         style="fill:none"
         rx="38.066502"
         cx="0"
         ry="100"
         cy="50"
         id="ellipse77" />
      <path
         d="M 0,50 C 76.133,200 20,30 100,100"
         style="fill:none"
         transform="matrix(-0.58778525,-0.80901699,0.80901699,-0.58778525,0,0)"
         id="path79"
         inkscape:connector-curvature="0" />
      <ellipse
         transform="matrix(-0.30901699,-0.95105652,0.95105652,-0.30901699,0,0)"
         style="fill:none"
         rx="38.066502"
         cx="0"
         ry="100"
         cy="50"
         id="ellipse81" />
      <path
         d="M 0,50 C 76.133,200 20,30 100,100"
         style="fill:none"
         transform="matrix(0,-1,1,0,0,0)"
         id="path83"
         inkscape:connector-curvature="0" />
      <ellipse
         transform="matrix(0.30901699,-0.95105652,0.95105652,0.30901699,0,0)"
         style="fill:none"
         rx="38.066502"
         cx="0"
         ry="100"
         cy="50"
         id="ellipse85" />
      <path
         d="M 0,50 C 76.133,200 20,30 100,100"
         style="fill:none"
         transform="matrix(0.58778525,-0.80901699,0.80901699,0.58778525,0,0)"
         id="path87"
         inkscape:connector-curvature="0" />
      <ellipse
         transform="matrix(0.80901699,-0.58778525,0.58778525,0.80901699,0,0)"
         style="fill:none"
         rx="38.066502"
         cx="0"
         ry="100"
         cy="50"
         id="ellipse89" />
      <path
         d="M 0,50 C 76.133,200 20,30 100,100"
         style="fill:none"
         transform="matrix(0.95105652,-0.30901699,0.30901699,0.95105652,0,0)"
         id="path91"
         inkscape:connector-curvature="0" />
      <ellipse
         style="fill:none"
         rx="38.066502"
         cx="0"
         ry="100"
         cy="50"
         id="ellipse93" />
      <path
         d="M 0,50 C 76.133,200 20,30 100,100"
         style="fill:none"
         transform="matrix(0.95105652,0.30901699,-0.30901699,0.95105652,0,0)"
         id="path95"
         inkscape:connector-curvature="0" />
      <ellipse
         transform="matrix(0.80901699,0.58778525,-0.58778525,0.80901699,0,0)"
         style="fill:none"
         rx="38.066502"
         cx="0"
         ry="100"
         cy="50"
         id="ellipse97" />
      <path
         d="M 0,50 C 76.133,200 20,30 100,100"
         style="fill:none"
         transform="matrix(0.58778525,0.80901699,-0.80901699,0.58778525,0,0)"
         id="path99"
         inkscape:connector-curvature="0" />
      <ellipse
         transform="matrix(0.30901699,0.95105652,-0.95105652,0.30901699,0,0)"
         style="fill:none"
         rx="38.066502"
         cx="0"
         ry="100"
         cy="50"
         id="ellipse101" />
      <path
         d="M 0,50 C 76.133,200 20,30 100,100"
         style="fill:none"
         transform="matrix(0,1,-1,0,0,0)"
         id="path103"
         inkscape:connector-curvature="0" />
      <ellipse
         transform="matrix(-0.30901699,0.95105652,-0.95105652,-0.30901699,0,0)"
         style="fill:none"
         rx="38.066502"
         cx="0"
         ry="100"
         cy="50"
         id="ellipse105" />
      <path
         d="M 0,50 C 76.133,200 20,30 100,100"
         style="fill:none"
         transform="matrix(-0.58778525,0.80901699,-0.80901699,-0.58778525,0,0)"
         id="path107"
         inkscape:connector-curvature="0" />
      <ellipse
         transform="matrix(-0.80901699,0.58778525,-0.58778525,-0.80901699,0,0)"
         style="fill:none"
         rx="38.066502"
         cx="0"
         ry="100"
         cy="50"
         id="ellipse109" />
      <path
         d="M 0,50 C 76.133,200 20,30 100,100"
         style="fill:none"
         transform="matrix(-0.95105652,0.30901699,-0.30901699,-0.95105652,0,0)"
         id="path111"
         inkscape:connector-curvature="0" />
      <ellipse
         transform="scale(-1,-1)"
         style="fill:none"
         rx="38.066502"
         cx="0"
         ry="100"
         cy="50"
         id="ellipse113" />
      <path
         d="M 0,50 C 76.133,200 20,30 100,100"
         style="fill:none"
         transform="matrix(-0.95105652,-0.30901699,0.30901699,-0.95105652,0,0)"
         id="path115"
         inkscape:connector-curvature="0" />
      <ellipse
         transform="matrix(-0.80901699,-0.58778525,0.58778525,-0.80901699,0,0)"
         style="fill:none"
         rx="38.066502"
         cx="0"
         ry="100"
         cy="50"
         id="ellipse117" />
      <path
         d="M 0,50 C 76.133,200 20,30 100,100"
         style="fill:none"
         transform="matrix(-0.58778525,-0.80901699,0.80901699,-0.58778525,0,0)"
         id="path119"
         inkscape:connector-curvature="0" />
      <ellipse
         transform="matrix(-0.30901699,-0.95105652,0.95105652,-0.30901699,0,0)"
         style="fill:none"
         rx="38.066502"
         cx="0"
         ry="100"
         cy="50"
         id="ellipse121" />
      <path
         d="M 0,50 C 76.133,200 20,30 100,100"
         style="fill:none"
         transform="matrix(0,-1,1,0,0,0)"
         id="path123"
         inkscape:connector-curvature="0" />
      <ellipse
         transform="matrix(0.30901699,-0.95105652,0.95105652,0.30901699,0,0)"
         style="fill:none"
         rx="38.066502"
         cx="0"
         ry="100"
         cy="50"
         id="ellipse125" />
      <path
         d="M 0,50 C 76.133,200 20,30 100,100"
         style="fill:none"
         transform="matrix(0.58778525,-0.80901699,0.80901699,0.58778525,0,0)"
         id="path127"
         inkscape:connector-curvature="0" />
      <ellipse
         transform="matrix(0.80901699,-0.58778525,0.58778525,0.80901699,0,0)"
         style="fill:none"
         rx="38.066502"
         cx="0"
         ry="100"
         cy="50"
         id="ellipse129" />
      <path
         d="M 0,50 C 76.133,200 20,30 100,100"
         style="fill:none"
         transform="matrix(0.95105652,-0.30901699,0.30901699,0.95105652,0,0)"
         id="path131"
         inkscape:connector-curvature="0" />
      <ellipse
         style="fill:none"
         rx="38.066502"
         cx="0"
         ry="100"
         cy="50"
         id="ellipse133" />
      <path
         d="M 0,50 C 76.133,200 20,30 100,100"
         style="fill:none"
         transform="matrix(0.95105652,0.30901699,-0.30901699,0.95105652,0,0)"
         id="path135"
         inkscape:connector-curvature="0" />
      <ellipse
         transform="matrix(0.80901699,0.58778525,-0.58778525,0.80901699,0,0)"
         style="fill:none"
         rx="38.066502"
         cx="0"
         ry="100"
         cy="50"
         id="ellipse137" />
      <path
         d="M 0,50 C 76.133,200 20,30 100,100"
         style="fill:none"
         transform="matrix(0.58778525,0.80901699,-0.80901699,0.58778525,0,0)"
         id="path139"
         inkscape:connector-curvature="0" />
      <ellipse
         transform="matrix(0.30901699,0.95105652,-0.95105652,0.30901699,0,0)"
         style="fill:none"
         rx="38.066502"
         cx="0"
         ry="100"
         cy="50"
         id="ellipse141" />
      <path
         d="M 0,50 C 76.133,200 20,30 100,100"
         style="fill:none"
         transform="matrix(0,1,-1,0,0,0)"
         id="path143"
         inkscape:connector-curvature="0" />
      <ellipse
         transform="matrix(-0.30901699,0.95105652,-0.95105652,-0.30901699,0,0)"
         style="fill:none"
         rx="38.066502"
         cx="0"
         ry="100"
         cy="50"
         id="ellipse145" />
      <path
         d="M 0,50 C 76.133,200 20,30 100,100"
         style="fill:none"
         transform="matrix(-0.58778525,0.80901699,-0.80901699,-0.58778525,0,0)"
         id="path147"
         inkscape:connector-curvature="0" />
      <ellipse
         transform="matrix(-0.80901699,0.58778525,-0.58778525,-0.80901699,0,0)"
         style="fill:none"
         rx="38.066502"
         cx="0"
         ry="100"
         cy="50"
         id="ellipse149" />
      <path
         d="M 0,50 C 76.133,200 20,30 100,100"
         style="fill:none"
         transform="matrix(-0.95105652,0.30901699,-0.30901699,-0.95105652,0,0)"
         id="path151"
         inkscape:connector-curvature="0" />
      <ellipse
         transform="scale(-1,-1)"
         style="fill:none"
         rx="38.066502"
         cx="0"
         ry="100"
         cy="50"
         id="ellipse153" />
      <path
         d="M 0,50 C 76.133,200 20,30 100,100"
         style="fill:none"
         transform="matrix(-0.95105652,-0.30901699,0.30901699,-0.95105652,0,0)"
         id="path155"
         inkscape:connector-curvature="0" />
      <ellipse
         transform="matrix(-0.80901699,-0.58778525,0.58778525,-0.80901699,0,0)"
         style="fill:none"
         rx="38.066502"
         cx="0"
         ry="100"
         cy="50"
         id="ellipse157" />
      <path
         d="M 0,50 C 76.306,200 20,30 100,100"
         style="fill:none"
         transform="matrix(-0.58778525,-0.80901699,0.80901699,-0.58778525,0,0)"
         id="path159"
         inkscape:connector-curvature="0" />
      <ellipse
         transform="matrix(-0.30901699,-0.95105652,0.95105652,-0.30901699,0,0)"
         style="fill:none"
         rx="38.153"
         cx="0"
         ry="100"
         cy="50"
         id="ellipse161" />
      <path
         d="M 0,50 C 76.306,200 20,30 100,100"
         style="fill:none"
         transform="matrix(0,-1,1,0,0,0)"
         id="path163"
         inkscape:connector-curvature="0" />
      <ellipse
         transform="matrix(0.30901699,-0.95105652,0.95105652,0.30901699,0,0)"
         style="fill:none"
         rx="38.153"
         cx="0"
         ry="100"
         cy="50"
         id="ellipse165" />
      <path
         d="M 0,50 C 76.306,200 20,30 100,100"
         style="fill:none"
         transform="matrix(0.58778525,-0.80901699,0.80901699,0.58778525,0,0)"
         id="path167"
         inkscape:connector-curvature="0" />
      <ellipse
         transform="matrix(0.80901699,-0.58778525,0.58778525,0.80901699,0,0)"
         style="fill:none"
         rx="38.153"
         cx="0"
         ry="100"
         cy="50"
         id="ellipse169" />
      <path
         d="M 0,50 C 76.306,200 20,30 100,100"
         style="fill:none"
         transform="matrix(0.95105652,-0.30901699,0.30901699,0.95105652,0,0)"
         id="path171"
         inkscape:connector-curvature="0" />
      <ellipse
         style="fill:none"
         rx="38.153"
         cx="0"
         ry="100"
         cy="50"
         id="ellipse173" />
      <path
         d="M 0,50 C 76.306,200 20,30 100,100"
         style="fill:none"
         transform="matrix(0.95105652,0.30901699,-0.30901699,0.95105652,0,0)"
         id="path175"
         inkscape:connector-curvature="0" />
      <ellipse
         transform="matrix(0.80901699,0.58778525,-0.58778525,0.80901699,0,0)"
         style="fill:none"
         rx="38.153"
         cx="0"
         ry="100"
         cy="50"
         id="ellipse177" />
      <path
         d="M 0,50 C 76.306,200 20,30 100,100"
         style="fill:none"
         transform="matrix(0.58778525,0.80901699,-0.80901699,0.58778525,0,0)"
         id="path179"
         inkscape:connector-curvature="0" />
      <ellipse
         transform="matrix(0.30901699,0.95105652,-0.95105652,0.30901699,0,0)"
         style="fill:none"
         rx="38.153"
         cx="0"
         ry="100"
         cy="50"
         id="ellipse181" />
      <path
         d="M 0,50 C 76.306,200 20,30 100,100"
         style="fill:none"
         transform="matrix(0,1,-1,0,0,0)"
         id="path183"
         inkscape:connector-curvature="0" />
      <ellipse
         transform="matrix(-0.30901699,0.95105652,-0.95105652,-0.30901699,0,0)"
         style="fill:none"
         rx="38.153"
         cx="0"
         ry="100"
         cy="50"
         id="ellipse185" />
      <path
         d="M 0,50 C 76.306,200 20,30 100,100"
         style="fill:none"
         transform="matrix(-0.58778525,0.80901699,-0.80901699,-0.58778525,0,0)"
         id="path187"
         inkscape:connector-curvature="0" />
      <ellipse
         transform="matrix(-0.80901699,0.58778525,-0.58778525,-0.80901699,0,0)"
         style="fill:none"
         rx="38.153"
         cx="0"
         ry="100"
         cy="50"
         id="ellipse189" />
      <path
         d="M 0,50 C 76.306,200 20,30 100,100"
         style="fill:none"
         transform="matrix(-0.95105652,0.30901699,-0.30901699,-0.95105652,0,0)"
         id="path191"
         inkscape:connector-curvature="0" />
      <ellipse
         transform="scale(-1,-1)"
         style="fill:none"
         rx="38.153"
         cx="0"
         ry="100"
         cy="50"
         id="ellipse193" />
      <path
         d="M 0,50 C 76.306,200 20,30 100,100"
         style="fill:none"
         transform="matrix(-0.95105652,-0.30901699,0.30901699,-0.95105652,0,0)"
         id="path195"
         inkscape:connector-curvature="0" />
      <ellipse
         transform="matrix(-0.80901699,-0.58778525,0.58778525,-0.80901699,0,0)"
         style="fill:none"
         rx="38.153"
         cx="0"
         ry="100"
         cy="50"
         id="ellipse197" />
      <path
         d="M 0,50 C 76.306,200 20,30 100,100"
         style="fill:none"
         transform="matrix(-0.58778525,-0.80901699,0.80901699,-0.58778525,0,0)"
         id="path199"
         inkscape:connector-curvature="0" />
      <ellipse
         transform="matrix(-0.30901699,-0.95105652,0.95105652,-0.30901699,0,0)"
         style="fill:none"
         rx="38.153"
         cx="0"
         ry="100"
         cy="50"
         id="ellipse201" />
      <path
         d="M 0,50 C 76.306,200 20,30 100,100"
         style="fill:none"
         transform="matrix(0,-1,1,0,0,0)"
         id="path203"
         inkscape:connector-curvature="0" />
      <ellipse
         transform="matrix(0.30901699,-0.95105652,0.95105652,0.30901699,0,0)"
         style="fill:none"
         rx="38.153"
         cx="0"
         ry="100"
         cy="50"
         id="ellipse205" />
      <path
         d="M 0,50 C 76.306,200 20,30 100,100"
         style="fill:none"
         transform="matrix(0.58778525,-0.80901699,0.80901699,0.58778525,0,0)"
         id="path207"
         inkscape:connector-curvature="0" />
      <ellipse
         transform="matrix(0.80901699,-0.58778525,0.58778525,0.80901699,0,0)"
         style="fill:none"
         rx="38.153"
         cx="0"
         ry="100"
         cy="50"
         id="ellipse209" />
      <path
         d="M 0,50 C 76.306,200 20,30 100,100"
         style="fill:none"
         transform="matrix(0.95105652,-0.30901699,0.30901699,0.95105652,0,0)"
         id="path211"
         inkscape:connector-curvature="0" />
      <ellipse
         transform="matrix(1,1.7453292e-6,-1.7453292e-6,1,0,0)"
         style="fill:none"
         rx="38.153"
         cx="0"
         ry="100"
         cy="50"
         id="ellipse213" />
      <path
         d="M 0,50 C 76.306,200 20,30 100,100"
         style="fill:none"
         transform="matrix(0.95105598,0.30901865,-0.30901865,0.95105598,0,0)"
         id="path215"
         inkscape:connector-curvature="0" />
      <ellipse
         transform="matrix(0.80901597,0.58778666,-0.58778666,0.80901597,0,0)"
         style="fill:none"
         rx="38.153"
         cx="0"
         ry="100"
         cy="50"
         id="ellipse217" />
      <path
         d="M 0,50 C 76.306,200 20,30 100,100"
         style="fill:none"
         transform="matrix(0.58778384,0.80901802,-0.80901802,0.58778384,0,0)"
         id="path219"
         inkscape:connector-curvature="0" />
      <ellipse
         transform="matrix(0.30901533,0.95105706,-0.95105706,0.30901533,0,0)"
         style="fill:none"
         rx="38.153"
         cx="0"
         ry="100"
         cy="50"
         id="ellipse221" />
      <path
         d="M 0,50 C 76.306,200 20,30 100,100"
         style="fill:none"
         transform="matrix(-1.7453293e-6,1,-1,-1.7453293e-6,0,0)"
         id="path223"
         inkscape:connector-curvature="0" />
      <ellipse
         transform="matrix(-0.30901865,0.95105598,-0.95105598,-0.30901865,0,0)"
         style="fill:none"
         rx="38.153"
         cx="0"
         ry="100"
         cy="50"
         id="ellipse225" />
      <path
         d="M 0,50 C 76.306,200 20,30 100,100"
         style="fill:none"
         transform="matrix(-0.58778666,0.80901597,-0.80901597,-0.58778666,0,0)"
         id="path227"
         inkscape:connector-curvature="0" />
      <ellipse
         transform="matrix(-0.80901802,0.58778384,-0.58778384,-0.80901802,0,0)"
         style="fill:none"
         rx="38.153"
         cx="0"
         ry="100"
         cy="50"
         id="ellipse229" />
      <path
         d="M 0,50 C 76.306,200 20,30 100,100"
         style="fill:none"
         transform="matrix(-0.95105706,0.30901533,-0.30901533,-0.95105706,0,0)"
         id="path231"
         inkscape:connector-curvature="0" />
      <ellipse
         transform="matrix(-1,-1.7453293e-6,1.7453293e-6,-1,0,0)"
         style="fill:none"
         rx="38.153"
         cx="0"
         ry="100"
         cy="50"
         id="ellipse233" />
      <path
         d="M 0,50 C 76.306,200 20,30 100,100"
         style="fill:none"
         transform="matrix(-0.95105598,-0.30901865,0.30901865,-0.95105598,0,0)"
         id="path235"
         inkscape:connector-curvature="0" />
      <ellipse
         transform="matrix(-0.80901597,-0.58778666,0.58778666,-0.80901597,0,0)"
         style="fill:none"
         rx="38.153"
         cx="0"
         ry="100"
         cy="50"
         id="ellipse237" />
      <path
         d="M 0,50 C 76.306,200 20,30 100,100"
         style="fill:none"
         transform="matrix(-0.58778384,-0.80901802,0.80901802,-0.58778384,0,0)"
         id="path239"
         inkscape:connector-curvature="0" />
      <ellipse
         transform="matrix(-0.30901533,-0.95105706,0.95105706,-0.30901533,0,0)"
         style="fill:none"
         rx="38.153"
         cx="0"
         ry="100"
         cy="50"
         id="ellipse241" />
      <path
         d="M 0,50 C 76.306,200 20,30 100,100"
         style="fill:none"
         transform="matrix(1.7453293e-6,-1,1,1.7453293e-6,0,0)"
         id="path243"
         inkscape:connector-curvature="0" />
      <ellipse
         transform="matrix(0.30901865,-0.95105598,0.95105598,0.30901865,0,0)"
         style="fill:none"
         rx="38.153"
         cx="0"
         ry="100"
         cy="50"
         id="ellipse245" />
      <path
         d="M 0,50 C 84.8621,200 20,30 100,100"
         style="fill:none"
         transform="matrix(0.58778666,-0.80901597,0.80901597,0.58778666,0,0)"
         id="path247"
         inkscape:connector-curvature="0" />
      <ellipse
         transform="matrix(0.80901802,-0.58778384,0.58778384,0.80901802,0,0)"
         style="fill:none"
         rx="42.431099"
         cx="0"
         ry="100"
         cy="50"
         id="ellipse249" />
      <path
         d="M 0,50 C 84.8621,200 20,30 100,100"
         style="fill:none"
         transform="matrix(0.95105706,-0.30901533,0.30901533,0.95105706,0,0)"
         id="path251"
         inkscape:connector-curvature="0" />
      <ellipse
         transform="matrix(1,1.7453293e-6,-1.7453293e-6,1,0,0)"
         style="fill:none"
         rx="42.431099"
         cx="0"
         ry="100"
         cy="50"
         id="ellipse253" />
      <path
         d="M 0,50 C 84.8621,200 20,30 100,100"
         style="fill:none"
         transform="matrix(0.95105598,0.30901865,-0.30901865,0.95105598,0,0)"
         id="path255"
         inkscape:connector-curvature="0" />
      <ellipse
         transform="matrix(0.80901597,0.58778666,-0.58778666,0.80901597,0,0)"
         style="fill:none"
         rx="42.431099"
         cx="0"
         ry="100"
         cy="50"
         id="ellipse257" />
      <path
         d="M 0,50 C 84.8621,200 20,30 100,100"
         style="fill:none"
         transform="matrix(0.58778384,0.80901802,-0.80901802,0.58778384,0,0)"
         id="path259"
         inkscape:connector-curvature="0" />
      <ellipse
         transform="matrix(0.30901533,0.95105706,-0.95105706,0.30901533,0,0)"
         style="fill:none"
         rx="42.431099"
         cx="0"
         ry="100"
         cy="50"
         id="ellipse261" />
      <path
         d="M 0,50 C 84.8621,200 20,30 100,100"
         style="fill:none"
         transform="matrix(-1.7453293e-6,1,-1,-1.7453293e-6,0,0)"
         id="path263"
         inkscape:connector-curvature="0" />
      <ellipse
         transform="matrix(-0.30901865,0.95105598,-0.95105598,-0.30901865,0,0)"
         style="fill:none"
         rx="42.431099"
         cx="0"
         ry="100"
         cy="50"
         id="ellipse265" />
      <path
         d="M 0,50 C 84.8621,200 20,30 100,100"
         style="fill:none"
         transform="matrix(-0.58778666,0.80901597,-0.80901597,-0.58778666,0,0)"
         id="path267"
         inkscape:connector-curvature="0" />
      <ellipse
         transform="matrix(-0.80901802,0.58778384,-0.58778384,-0.80901802,0,0)"
         style="fill:none"
         rx="42.431099"
         cx="0"
         ry="100"
         cy="50"
         id="ellipse269" />
      <path
         d="M 0,50 C 84.8621,200 20,30 100,100"
         style="fill:none"
         transform="matrix(-0.95105706,0.30901533,-0.30901533,-0.95105706,0,0)"
         id="path271"
         inkscape:connector-curvature="0" />
      <ellipse
         transform="matrix(-1,-1.7453293e-6,1.7453293e-6,-1,0,0)"
         style="fill:none"
         rx="42.431099"
         cx="0"
         ry="100"
         cy="50"
         id="ellipse273" />
      <path
         d="M 0,50 C 84.8621,200 20,30 100,100"
         style="fill:none"
         transform="matrix(-0.95105598,-0.30901865,0.30901865,-0.95105598,0,0)"
         id="path275"
         inkscape:connector-curvature="0" />
      <ellipse
         transform="matrix(-0.80901597,-0.58778666,0.58778666,-0.80901597,0,0)"
         style="fill:none"
         rx="42.431099"
         cx="0"
         ry="100"
         cy="50"
         id="ellipse277" />
      <path
         d="M 0,50 C 84.8621,200 20,30 100,100"
         style="fill:none"
         transform="matrix(-0.58778384,-0.80901802,0.80901802,-0.58778384,0,0)"
         id="path279"
         inkscape:connector-curvature="0" />
      <ellipse
         transform="matrix(-0.30901533,-0.95105706,0.95105706,-0.30901533,0,0)"
         style="fill:none"
         rx="42.431099"
         cx="0"
         ry="100"
         cy="50"
         id="ellipse281" />
      <path
         d="M 0,50 C 84.8621,200 20,30 100,100"
         style="fill:none"
         transform="matrix(1.7453293e-6,-1,1,1.7453293e-6,0,0)"
         id="path283"
         inkscape:connector-curvature="0" />
      <ellipse
         transform="matrix(0.30901865,-0.95105598,0.95105598,0.30901865,0,0)"
         style="fill:none"
         rx="42.431099"
         cx="0"
         ry="100"
         cy="50"
         id="ellipse285" />
      <path
         d="M 0,50 C 84.8621,200 20,30 100,100"
         style="fill:none"
         transform="matrix(0.58778666,-0.80901597,0.80901597,0.58778666,0,0)"
         id="path287"
         inkscape:connector-curvature="0" />
      <ellipse
         transform="matrix(0.80901802,-0.58778384,0.58778384,0.80901802,0,0)"
         style="fill:none"
         rx="42.431099"
         cx="0"
         ry="100"
         cy="50"
         id="ellipse289" />
      <path
         d="M 0,50 C 84.8621,200 20,30 100,100"
         style="fill:none"
         transform="matrix(0.95105706,-0.30901533,0.30901533,0.95105706,0,0)"
         id="path291"
         inkscape:connector-curvature="0" />
      <ellipse
         transform="matrix(1,1.7453292e-6,-1.7453292e-6,1,0,0)"
         style="fill:none"
         rx="42.431099"
         cx="0"
         ry="100"
         cy="50"
         id="ellipse293" />
      <path
         d="M 0,50 C 120.3201,200 20,30 100,100"
         style="fill:none"
         transform="matrix(0.95105598,0.30901865,-0.30901865,0.95105598,0,0)"
         id="path295"
         inkscape:connector-curvature="0" />
      <ellipse
         transform="matrix(0.80901597,0.58778666,-0.58778666,0.80901597,0,0)"
         style="fill:none"
         rx="60.16"
         cx="0"
         ry="100"
         cy="50"
         id="ellipse297" />
      <path
         d="M 0,50 C 120.3201,200 20,30 100,100"
         style="fill:none"
         transform="matrix(0.58778384,0.80901802,-0.80901802,0.58778384,0,0)"
         id="path299"
         inkscape:connector-curvature="0" />
      <ellipse
         transform="matrix(0.30901533,0.95105706,-0.95105706,0.30901533,0,0)"
         style="fill:none"
         rx="60.16"
         cx="0"
         ry="100"
         cy="50"
         id="ellipse301" />
      <path
         d="M 0,50 C 120.3201,200 20,30 100,100"
         style="fill:none"
         transform="matrix(-1.7453293e-6,1,-1,-1.7453293e-6,0,0)"
         id="path303"
         inkscape:connector-curvature="0" />
      <ellipse
         transform="matrix(-0.30901865,0.95105598,-0.95105598,-0.30901865,0,0)"
         style="fill:none"
         rx="60.16"
         cx="0"
         ry="100"
         cy="50"
         id="ellipse305" />
      <path
         d="M 0,50 C 120.3201,200 20,30 100,100"
         style="fill:none"
         transform="matrix(-0.58778666,0.80901597,-0.80901597,-0.58778666,0,0)"
         id="path307"
         inkscape:connector-curvature="0" />
      <ellipse
         transform="matrix(-0.80901802,0.58778384,-0.58778384,-0.80901802,0,0)"
         style="fill:none"
         rx="60.16"
         cx="0"
         ry="100"
         cy="50"
         id="ellipse309" />
      <path
         d="M 0,50 C 120.3201,200 20,30 100,100"
         style="fill:none"
         transform="matrix(-0.95105706,0.30901533,-0.30901533,-0.95105706,0,0)"
         id="path311"
         inkscape:connector-curvature="0" />
      <ellipse
         transform="matrix(-1,-1.7453293e-6,1.7453293e-6,-1,0,0)"
         style="fill:none"
         rx="60.16"
         cx="0"
         ry="100"
         cy="50"
         id="ellipse313" />
      <path
         d="M 0,50 C 120.3201,200 20,30 100,100"
         style="fill:none"
         transform="matrix(-0.95105598,-0.30901865,0.30901865,-0.95105598,0,0)"
         id="path315"
         inkscape:connector-curvature="0" />
      <ellipse
         transform="matrix(-0.80901597,-0.58778666,0.58778666,-0.80901597,0,0)"
         style="fill:none"
         rx="60.16"
         cx="0"
         ry="100"
         cy="50"
         id="ellipse317" />
      <path
         d="M 0,50 C 120.3201,200 20,30 100,100"
         style="fill:none"
         transform="matrix(-0.58778384,-0.80901802,0.80901802,-0.58778384,0,0)"
         id="path319"
         inkscape:connector-curvature="0" />
      <ellipse
         transform="matrix(-0.30901533,-0.95105706,0.95105706,-0.30901533,0,0)"
         style="fill:none"
         rx="60.16"
         cx="0"
         ry="100"
         cy="50"
         id="ellipse321" />
      <path
         d="M 0,50 C 120.3201,200 20,30 100,100"
         style="fill:none"
         transform="matrix(1.7453293e-6,-1,1,1.7453293e-6,0,0)"
         id="path323"
         inkscape:connector-curvature="0" />
      <ellipse
         transform="matrix(0.30901865,-0.95105598,0.95105598,0.30901865,0,0)"
         style="fill:none"
         rx="60.16"
         cx="0"
         ry="100"
         cy="50"
         id="ellipse325" />
      <path
         d="M 0,50 C 120.3201,200 20,30 100,100"
         style="fill:none"
         transform="matrix(0.58778666,-0.80901597,0.80901597,0.58778666,0,0)"
         id="path327"
         inkscape:connector-curvature="0" />
      <ellipse
         transform="matrix(0.80901802,-0.58778384,0.58778384,0.80901802,0,0)"
         style="fill:none"
         rx="60.16"
         cx="0"
         ry="100"
         cy="50"
         id="ellipse329" />
      <path
         d="M 0,50 C 120.3201,200 20,30 100,100"
         style="fill:none"
         transform="matrix(0.95105706,-0.30901533,0.30901533,0.95105706,0,0)"
         id="path331"
         inkscape:connector-curvature="0" />
      <ellipse
         transform="matrix(1,1.7453293e-6,-1.7453293e-6,1,0,0)"
         style="fill:none"
         rx="60.16"
         cx="0"
         ry="100"
         cy="50"
         id="ellipse333" />
      <path
         d="M 0,50 C 120.3201,200 20,30 100,100"
         style="fill:none"
         transform="matrix(0.95105598,0.30901865,-0.30901865,0.95105598,0,0)"
         id="path335"
         inkscape:connector-curvature="0" />
      <ellipse
         transform="matrix(0.80901597,0.58778666,-0.58778666,0.80901597,0,0)"
         style="fill:none"
         rx="60.16"
         cx="0"
         ry="100"
         cy="50"
         id="ellipse337" />
      <path
         d="M 0,50 C 120.3201,200 20,30 100,100"
         style="fill:none"
         transform="matrix(0.58778384,0.80901802,-0.80901802,0.58778384,0,0)"
         id="path339"
         inkscape:connector-curvature="0" />
      <ellipse
         transform="matrix(0.30901533,0.95105706,-0.95105706,0.30901533,0,0)"
         style="fill:none"
         rx="60.16"
         cx="0"
         ry="100"
         cy="50"
         id="ellipse341" />
      <path
         d="M 0,50 C 120.3201,200 20,30 100,100"
         style="fill:none"
         transform="matrix(-1.7453292e-6,1,-1,-1.7453292e-6,0,0)"
         id="path343"
         inkscape:connector-curvature="0" />
      <ellipse
         transform="matrix(-0.30901865,0.95105598,-0.95105598,-0.30901865,0,0)"
         style="fill:none"
         rx="60.16"
         cx="0"
         ry="100"
         cy="50"
         id="ellipse345" />
      <path
         d="M 0,50 C 120.3201,200 20,30 100,100"
         style="fill:none"
         transform="matrix(-0.58778666,0.80901597,-0.80901597,-0.58778666,0,0)"
         id="path347"
         inkscape:connector-curvature="0" />
      <ellipse
         transform="matrix(-0.80901802,0.58778384,-0.58778384,-0.80901802,0,0)"
         style="fill:none"
         rx="60.16"
         cx="0"
         ry="100"
         cy="50"
         id="ellipse349" />
      <path
         d="M 0,50 C 120.3201,200 20,30 100,100"
         style="fill:none"
         transform="matrix(-0.95105706,0.30901533,-0.30901533,-0.95105706,0,0)"
         id="path351"
         inkscape:connector-curvature="0" />
      <ellipse
         transform="matrix(-1,-1.7453293e-6,1.7453293e-6,-1,0,0)"
         style="fill:none"
         rx="60.16"
         cx="0"
         ry="100"
         cy="50"
         id="ellipse353" />
    </g>
  </g>
</svg>
