<?xml version="1.0" encoding="UTF-8" standalone="no"?>
<svg
   xmlns:dc="http://purl.org/dc/elements/1.1/"
   xmlns:cc="http://creativecommons.org/ns#"
   xmlns:rdf="http://www.w3.org/1999/02/22-rdf-syntax-ns#"
   xmlns:svg="http://www.w3.org/2000/svg"
   xmlns="http://www.w3.org/2000/svg"
   xmlns:sodipodi="http://sodipodi.sourceforge.net/DTD/sodipodi-0.dtd"
   xmlns:inkscape="http://www.inkscape.org/namespaces/inkscape"
   style="font-style:normal;font-weight:normal;font-size:12px;font-family:Dialog;color-interpolation:auto;fill:#000000;fill-opacity:1;stroke:#000000;stroke-width:1;stroke-linecap:square;stroke-linejoin:miter;stroke-miterlimit:10;stroke-dasharray:none;stroke-dashoffset:0;stroke-opacity:1;color-rendering:auto;image-rendering:auto;shape-rendering:auto;text-rendering:auto"
   width="297mm"
   height="210mm"
   id="svg2"
   version="1.1"
   inkscape:version="0.91 r13725"
   sodipodi:docname="sketch_190412_axidraw__MORTEAU_et_BARAILLE.svg">
  <metadata
     id="metadata223">
    <rdf:RDF>
      <cc:Work
         rdf:about="">
        <dc:format>image/svg+xml</dc:format>
        <dc:type
           rdf:resource="http://purl.org/dc/dcmitype/StillImage" />
        <dc:title></dc:title>
      </cc:Work>
    </rdf:RDF>
  </metadata>
  <sodipodi:namedview
     pagecolor="#ffffff"
     bordercolor="#666666"
     borderopacity="1"
     objecttolerance="10"
     gridtolerance="10"
     guidetolerance="10"
     inkscape:pageopacity="0"
     inkscape:pageshadow="2"
     inkscape:window-width="1259"
     inkscape:window-height="763"
     id="namedview221"
     showgrid="false"
     units="mm"
     inkscape:zoom="0.26222222"
     inkscape:cx="-192.20339"
     inkscape:cy="450"
     inkscape:window-x="0"
     inkscape:window-y="0"
     inkscape:window-maximized="0"
     inkscape:current-layer="svg2" />
  <!--Generated by the Batik Graphics2D SVG Generator-->
  <defs
     id="genericDefs" />
  <g
     id="g5"
     transform="matrix(1.8172038,0,0,1.8172038,-45.800851,-445.50527)">
    <g
       style="stroke-linecap:round"
       transform="matrix(0.98392963,0.17855665,-0.17855665,0.98392963,315,450)"
       id="g7">
      <ellipse
         rx="5"
         ry="75"
         style="fill:none"
         cx="10"
         cy="33.897598"
         id="ellipse9" />
    </g>
    <g
       style="stroke-linecap:round"
       transform="matrix(0.98392963,0.17855665,-0.17855665,0.98392963,315,450)"
       id="g11">
      <ellipse
         rx="10"
         ry="25"
         style="fill:none"
         cx="10"
         cy="150"
         id="ellipse13" />
      <rect
         x="50"
         width="84.744003"
         height="5"
         y="0"
         style="fill:none"
         id="rect15" />
      <ellipse
         transform="matrix(0.93623505,0.35137436,-0.35137436,0.93623505,0,0)"
         style="fill:none"
         rx="5"
         cx="10"
         ry="75"
         cy="33.897598"
         id="ellipse17" />
      <ellipse
         transform="matrix(0.93623505,0.35137436,-0.35137436,0.93623505,0,0)"
         style="fill:none"
         rx="10"
         cx="10"
         ry="25"
         cy="150"
         id="ellipse19" />
      <rect
         x="50"
         y="0"
         transform="matrix(0.93623505,0.35137436,-0.35137436,0.93623505,0,0)"
         width="84.744003"
         style="fill:none"
         height="5"
         id="rect21" />
      <ellipse
         transform="matrix(0.75307097,0.65793929,-0.65793929,0.75307097,0,0)"
         style="fill:none"
         rx="5"
         cx="10"
         ry="75"
         cy="33.897598"
         id="ellipse23" />
      <ellipse
         transform="matrix(0.75307097,0.65793929,-0.65793929,0.75307097,0,0)"
         style="fill:none"
         rx="10"
         cx="10"
         ry="25"
         cy="150"
         id="ellipse25" />
      <rect
         x="50"
         y="0"
         transform="matrix(0.75307097,0.65793929,-0.65793929,0.75307097,0,0)"
         width="84.744003"
         style="fill:none"
         height="5"
         id="rect27" />
      <ellipse
         transform="matrix(0.47386844,0.88059565,-0.88059565,0.47386844,0,0)"
         style="fill:none"
         rx="5"
         cx="10"
         ry="75"
         cy="33.897598"
         id="ellipse29" />
      <ellipse
         transform="matrix(0.47386844,0.88059565,-0.88059565,0.47386844,0,0)"
         style="fill:none"
         rx="10"
         cx="10"
         ry="25"
         cy="150"
         id="ellipse31" />
      <rect
         x="50"
         y="0"
         transform="matrix(0.47386844,0.88059565,-0.88059565,0.47386844,0,0)"
         width="84.744003"
         style="fill:none"
         height="5"
         id="rect33" />
      <ellipse
         transform="matrix(0.13423351,0.99094973,-0.99094973,0.13423351,0,0)"
         style="fill:none"
         rx="5"
         cx="10"
         ry="75"
         cy="33.897598"
         id="ellipse35" />
      <ellipse
         transform="matrix(0.13423351,0.99094973,-0.99094973,0.13423351,0,0)"
         style="fill:none"
         rx="10"
         cx="10"
         ry="25"
         cy="150"
         id="ellipse37" />
      <rect
         x="50"
         y="0"
         transform="matrix(0.13423351,0.99094973,-0.99094973,0.13423351,0,0)"
         width="84.744003"
         style="fill:none"
         height="5"
         id="rect39" />
      <ellipse
         transform="matrix(-0.2225202,0.97492808,-0.97492808,-0.2225202,0,0)"
         style="fill:none"
         rx="5"
         cx="10"
         ry="75"
         cy="33.897598"
         id="ellipse41" />
      <ellipse
         transform="matrix(-0.2225202,0.97492808,-0.97492808,-0.2225202,0,0)"
         style="fill:none"
         rx="10"
         cx="10"
         ry="25"
         cy="150"
         id="ellipse43" />
      <rect
         x="50"
         y="0"
         transform="matrix(-0.2225202,0.97492808,-0.97492808,-0.2225202,0,0)"
         width="84.744003"
         style="fill:none"
         height="5"
         id="rect45" />
      <ellipse
         transform="matrix(-0.5508974,0.83457298,-0.83457298,-0.5508974,0,0)"
         style="fill:none"
         rx="5"
         cx="10"
         ry="75"
         cy="33.897598"
         id="ellipse47" />
      <ellipse
         transform="matrix(-0.5508974,0.83457298,-0.83457298,-0.5508974,0,0)"
         style="fill:none"
         rx="10"
         cx="10"
         ry="25"
         cy="150"
         id="ellipse49" />
      <rect
         x="50"
         y="0"
         transform="matrix(-0.5508974,0.83457298,-0.83457298,-0.5508974,0,0)"
         width="84.744003"
         style="fill:none"
         height="5"
         id="rect51" />
      <ellipse
         transform="matrix(-0.80901699,0.58778525,-0.58778525,-0.80901699,0,0)"
         style="fill:none"
         rx="5"
         cx="10"
         ry="75"
         cy="33.897598"
         id="ellipse53" />
      <ellipse
         transform="matrix(-0.80901699,0.58778525,-0.58778525,-0.80901699,0,0)"
         style="fill:none"
         rx="10"
         cx="10"
         ry="25"
         cy="150"
         id="ellipse55" />
      <rect
         x="50"
         y="0"
         transform="matrix(-0.80901699,0.58778525,-0.58778525,-0.80901699,0,0)"
         width="84.744003"
         style="fill:none"
         height="5"
         id="rect57" />
      <ellipse
         transform="matrix(-0.96396273,0.26603733,-0.26603733,-0.96396273,0,0)"
         style="fill:none"
         rx="5"
         cx="10"
         ry="75"
         cy="33.897598"
         id="ellipse59" />
      <ellipse
         transform="matrix(-0.96396273,0.26603733,-0.26603733,-0.96396273,0,0)"
         style="fill:none"
         rx="10"
         cx="10"
         ry="25"
         cy="150"
         id="ellipse61" />
      <rect
         x="50"
         y="0"
         transform="matrix(-0.96396273,0.26603733,-0.26603733,-0.96396273,0,0)"
         width="84.744003"
         style="fill:none"
         height="5"
         id="rect63" />
      <ellipse
         transform="matrix(-0.99597423,-0.08964005,0.08964005,-0.99597423,0,0)"
         style="fill:none"
         rx="5"
         cx="10"
         ry="75"
         cy="33.897598"
         id="ellipse65" />
      <ellipse
         transform="matrix(-0.99597423,-0.08964005,0.08964005,-0.99597423,0,0)"
         style="fill:none"
         rx="10"
         cx="10"
         ry="25"
         cy="150"
         id="ellipse67" />
      <rect
         x="50"
         y="0"
         transform="matrix(-0.99597423,-0.08964005,0.08964005,-0.99597423,0,0)"
         width="84.744003"
         style="fill:none"
         height="5"
         id="rect69" />
      <ellipse
         transform="matrix(-0.90096876,-0.43388396,0.43388396,-0.90096876,0,0)"
         style="fill:none"
         rx="5"
         cx="10"
         ry="75"
         cy="33.897598"
         id="ellipse71" />
      <ellipse
         transform="matrix(-0.90096876,-0.43388396,0.43388396,-0.90096876,0,0)"
         style="fill:none"
         rx="10"
         cx="10"
         ry="25"
         cy="150"
         id="ellipse73" />
      <rect
         x="50"
         y="0"
         transform="matrix(-0.90096876,-0.43388396,0.43388396,-0.90096876,0,0)"
         width="84.744003"
         style="fill:none"
         height="5"
         id="rect75" />
      <ellipse
         transform="matrix(-0.69106283,-0.72279469,0.72279469,-0.69106283,0,0)"
         style="fill:none"
         rx="5"
         cx="10"
         ry="75"
         cy="33.897598"
         id="ellipse77" />
      <ellipse
         transform="matrix(-0.69106283,-0.72279469,0.72279469,-0.69106283,0,0)"
         style="fill:none"
         rx="10"
         cx="10"
         ry="25"
         cy="150"
         id="ellipse79" />
      <rect
         x="50"
         y="0"
         transform="matrix(-0.69106283,-0.72279469,0.72279469,-0.69106283,0,0)"
         width="84.744003"
         style="fill:none"
         height="5"
         id="rect81" />
      <ellipse
         transform="matrix(-0.39302572,-0.91952748,0.91952748,-0.39302572,0,0)"
         style="fill:none"
         rx="5"
         cx="10"
         ry="75"
         cy="33.897598"
         id="ellipse83" />
      <ellipse
         transform="matrix(-0.39302572,-0.91952748,0.91952748,-0.39302572,0,0)"
         style="fill:none"
         rx="10"
         cx="10"
         ry="25"
         cy="150"
         id="ellipse85" />
      <rect
         x="50"
         y="0"
         transform="matrix(-0.39302572,-0.91952748,0.91952748,-0.39302572,0,0)"
         width="84.744003"
         style="fill:none"
         height="5"
         id="rect87" />
      <ellipse
         transform="matrix(-0.04486433,-0.99899309,0.99899309,-0.04486433,0,0)"
         style="fill:none"
         rx="5"
         cx="10"
         ry="75"
         cy="33.897598"
         id="ellipse89" />
      <ellipse
         transform="matrix(-0.04486433,-0.99899309,0.99899309,-0.04486433,0,0)"
         style="fill:none"
         rx="10"
         cx="10"
         ry="25"
         cy="150"
         id="ellipse91" />
      <rect
         x="50"
         y="0"
         transform="matrix(-0.04486433,-0.99899309,0.99899309,-0.04486433,0,0)"
         width="84.744003"
         style="fill:none"
         height="5"
         id="rect93" />
      <ellipse
         transform="matrix(0.30901699,-0.95105652,0.95105652,0.30901699,0,0)"
         style="fill:none"
         rx="5"
         cx="10"
         ry="75"
         cy="33.897598"
         id="ellipse95" />
      <ellipse
         transform="matrix(0.30901699,-0.95105652,0.95105652,0.30901699,0,0)"
         style="fill:none"
         rx="10"
         cx="10"
         ry="25"
         cy="150"
         id="ellipse97" />
      <rect
         x="50"
         y="0"
         transform="matrix(0.30901699,-0.95105652,0.95105652,0.30901699,0,0)"
         width="84.744003"
         style="fill:none"
         height="5"
         id="rect99" />
      <ellipse
         transform="matrix(0.62348941,-0.78183179,0.78183179,0.62348941,0,0)"
         style="fill:none"
         rx="5"
         cx="10"
         ry="75"
         cy="33.897598"
         id="ellipse101" />
      <ellipse
         transform="matrix(0.62348941,-0.78183179,0.78183179,0.62348941,0,0)"
         style="fill:none"
         rx="10"
         cx="10"
         ry="25"
         cy="150"
         id="ellipse103" />
      <rect
         x="50"
         y="0"
         transform="matrix(0.62348941,-0.78183179,0.78183179,0.62348941,0,0)"
         width="84.744003"
         style="fill:none"
         height="5"
         id="rect105" />
      <ellipse
         transform="matrix(0.85844918,-0.51289864,0.51289864,0.85844918,0,0)"
         style="fill:none"
         rx="5"
         cx="10"
         ry="75"
         cy="33.897598"
         id="ellipse107" />
      <ellipse
         transform="matrix(0.85844918,-0.51289864,0.51289864,0.85844918,0,0)"
         style="fill:none"
         rx="10"
         cx="10"
         ry="25"
         cy="150"
         id="ellipse109" />
      <rect
         x="50"
         y="0"
         transform="matrix(0.85844918,-0.51289864,0.51289864,0.85844918,0,0)"
         width="84.744003"
         style="fill:none"
         height="5"
         id="rect111" />
      <ellipse
         transform="matrix(0.98392963,-0.17855665,0.17855665,0.98392963,0,0)"
         style="fill:none"
         rx="5"
         cx="10"
         ry="75"
         cy="33.897598"
         id="ellipse113" />
      <ellipse
         transform="matrix(0.98392963,-0.17855665,0.17855665,0.98392963,0,0)"
         style="fill:none"
         rx="10"
         cx="10"
         ry="25"
         cy="150"
         id="ellipse115" />
      <rect
         x="50"
         y="0"
         transform="matrix(0.98392963,-0.17855665,0.17855665,0.98392963,0,0)"
         width="84.744003"
         style="fill:none"
         height="5"
         id="rect117" />
      <ellipse
         transform="matrix(0.98392963,0.17855665,-0.17855665,0.98392963,0,0)"
         style="fill:none"
         rx="5"
         cx="10"
         ry="75"
         cy="33.897598"
         id="ellipse119" />
      <ellipse
         transform="matrix(0.98392963,0.17855665,-0.17855665,0.98392963,0,0)"
         style="fill:none"
         rx="10"
         cx="10"
         ry="25"
         cy="150"
         id="ellipse121" />
      <rect
         x="50"
         y="0"
         transform="matrix(0.98392963,0.17855665,-0.17855665,0.98392963,0,0)"
         width="84.744003"
         style="fill:none"
         height="5"
         id="rect123" />
      <ellipse
         transform="matrix(0.85844918,0.51289864,-0.51289864,0.85844918,0,0)"
         style="fill:none"
         rx="5"
         cx="10"
         ry="75"
         cy="33.897598"
         id="ellipse125" />
      <ellipse
         transform="matrix(0.85844918,0.51289864,-0.51289864,0.85844918,0,0)"
         style="fill:none"
         rx="10"
         cx="10"
         ry="25"
         cy="150"
         id="ellipse127" />
      <rect
         x="50"
         y="0"
         transform="matrix(0.85844918,0.51289864,-0.51289864,0.85844918,0,0)"
         width="84.744003"
         style="fill:none"
         height="5"
         id="rect129" />
      <ellipse
         transform="matrix(0.62348941,0.78183179,-0.78183179,0.62348941,0,0)"
         style="fill:none"
         rx="5"
         cx="10"
         ry="75"
         cy="33.897598"
         id="ellipse131" />
      <ellipse
         transform="matrix(0.62348941,0.78183179,-0.78183179,0.62348941,0,0)"
         style="fill:none"
         rx="10"
         cx="10"
         ry="25"
         cy="150"
         id="ellipse133" />
      <rect
         x="50"
         y="0"
         transform="matrix(0.62348941,0.78183179,-0.78183179,0.62348941,0,0)"
         width="84.744003"
         style="fill:none"
         height="5"
         id="rect135" />
      <ellipse
         transform="matrix(0.30901699,0.95105652,-0.95105652,0.30901699,0,0)"
         style="fill:none"
         rx="5"
         cx="10"
         ry="75"
         cy="33.897598"
         id="ellipse137" />
      <ellipse
         transform="matrix(0.30901699,0.95105652,-0.95105652,0.30901699,0,0)"
         style="fill:none"
         rx="10"
         cx="10"
         ry="25"
         cy="150"
         id="ellipse139" />
      <rect
         x="50"
         y="0"
         transform="matrix(0.30901699,0.95105652,-0.95105652,0.30901699,0,0)"
         width="84.744003"
         style="fill:none"
         height="5"
         id="rect141" />
      <ellipse
         transform="matrix(-0.04486433,0.99899309,-0.99899309,-0.04486433,0,0)"
         style="fill:none"
         rx="5"
         cx="10"
         ry="75"
         cy="33.897598"
         id="ellipse143" />
      <ellipse
         transform="matrix(-0.04486433,0.99899309,-0.99899309,-0.04486433,0,0)"
         style="fill:none"
         rx="10"
         cx="10"
         ry="25"
         cy="150"
         id="ellipse145" />
      <rect
         x="50"
         y="0"
         transform="matrix(-0.04486433,0.99899309,-0.99899309,-0.04486433,0,0)"
         width="84.744003"
         style="fill:none"
         height="5"
         id="rect147" />
      <ellipse
         transform="matrix(-0.39302572,0.91952748,-0.91952748,-0.39302572,0,0)"
         style="fill:none"
         rx="5"
         cx="10"
         ry="75"
         cy="33.897598"
         id="ellipse149" />
      <ellipse
         transform="matrix(-0.39302572,0.91952748,-0.91952748,-0.39302572,0,0)"
         style="fill:none"
         rx="10"
         cx="10"
         ry="25"
         cy="150"
         id="ellipse151" />
      <rect
         x="50"
         y="0"
         transform="matrix(-0.39302572,0.91952748,-0.91952748,-0.39302572,0,0)"
         width="84.744003"
         style="fill:none"
         height="5"
         id="rect153" />
      <ellipse
         transform="matrix(-0.69106283,0.72279469,-0.72279469,-0.69106283,0,0)"
         style="fill:none"
         rx="5"
         cx="10"
         ry="75"
         cy="33.897598"
         id="ellipse155" />
      <ellipse
         transform="matrix(-0.69106283,0.72279469,-0.72279469,-0.69106283,0,0)"
         style="fill:none"
         rx="10"
         cx="10"
         ry="25"
         cy="150"
         id="ellipse157" />
      <rect
         x="50"
         y="0"
         transform="matrix(-0.69106283,0.72279469,-0.72279469,-0.69106283,0,0)"
         width="84.744003"
         style="fill:none"
         height="5"
         id="rect159" />
      <ellipse
         transform="matrix(-0.90096876,0.43388396,-0.43388396,-0.90096876,0,0)"
         style="fill:none"
         rx="5"
         cx="10"
         ry="75"
         cy="33.897598"
         id="ellipse161" />
      <ellipse
         transform="matrix(-0.90096876,0.43388396,-0.43388396,-0.90096876,0,0)"
         style="fill:none"
         rx="10"
         cx="10"
         ry="25"
         cy="150"
         id="ellipse163" />
      <rect
         x="50"
         y="0"
         transform="matrix(-0.90096876,0.43388396,-0.43388396,-0.90096876,0,0)"
         width="84.744003"
         style="fill:none"
         height="5"
         id="rect165" />
      <ellipse
         transform="matrix(-0.99597423,0.08964005,-0.08964005,-0.99597423,0,0)"
         style="fill:none"
         rx="5"
         cx="10"
         ry="75"
         cy="33.897598"
         id="ellipse167" />
      <ellipse
         transform="matrix(-0.99597423,0.08964005,-0.08964005,-0.99597423,0,0)"
         style="fill:none"
         rx="10"
         cx="10"
         ry="25"
         cy="150"
         id="ellipse169" />
      <rect
         x="50"
         y="0"
         transform="matrix(-0.99597423,0.08964005,-0.08964005,-0.99597423,0,0)"
         width="84.744003"
         style="fill:none"
         height="5"
         id="rect171" />
      <ellipse
         transform="matrix(-0.96396273,-0.26603733,0.26603733,-0.96396273,0,0)"
         style="fill:none"
         rx="5"
         cx="10"
         ry="75"
         cy="33.897598"
         id="ellipse173" />
      <ellipse
         transform="matrix(-0.96396273,-0.26603733,0.26603733,-0.96396273,0,0)"
         style="fill:none"
         rx="10"
         cx="10"
         ry="25"
         cy="150"
         id="ellipse175" />
      <rect
         x="50"
         y="0"
         transform="matrix(-0.96396273,-0.26603733,0.26603733,-0.96396273,0,0)"
         width="84.744003"
         style="fill:none"
         height="5"
         id="rect177" />
      <ellipse
         transform="matrix(-0.80901699,-0.58778525,0.58778525,-0.80901699,0,0)"
         style="fill:none"
         rx="5"
         cx="10"
         ry="75"
         cy="33.897598"
         id="ellipse179" />
      <ellipse
         transform="matrix(-0.80901699,-0.58778525,0.58778525,-0.80901699,0,0)"
         style="fill:none"
         rx="10"
         cx="10"
         ry="25"
         cy="150"
         id="ellipse181" />
      <rect
         x="50"
         y="0"
         transform="matrix(-0.80901699,-0.58778525,0.58778525,-0.80901699,0,0)"
         width="84.744003"
         style="fill:none"
         height="5"
         id="rect183" />
      <ellipse
         transform="matrix(-0.5508974,-0.83457298,0.83457298,-0.5508974,0,0)"
         style="fill:none"
         rx="5"
         cx="10"
         ry="75"
         cy="33.897598"
         id="ellipse185" />
      <ellipse
         transform="matrix(-0.5508974,-0.83457298,0.83457298,-0.5508974,0,0)"
         style="fill:none"
         rx="10"
         cx="10"
         ry="25"
         cy="150"
         id="ellipse187" />
      <rect
         x="50"
         y="0"
         transform="matrix(-0.5508974,-0.83457298,0.83457298,-0.5508974,0,0)"
         width="84.744003"
         style="fill:none"
         height="5"
         id="rect189" />
      <ellipse
         transform="matrix(-0.2225202,-0.97492808,0.97492808,-0.2225202,0,0)"
         style="fill:none"
         rx="5"
         cx="10"
         ry="75"
         cy="33.897598"
         id="ellipse191" />
      <ellipse
         transform="matrix(-0.2225202,-0.97492808,0.97492808,-0.2225202,0,0)"
         style="fill:none"
         rx="10"
         cx="10"
         ry="25"
         cy="150"
         id="ellipse193" />
      <rect
         x="50"
         y="0"
         transform="matrix(-0.2225202,-0.97492808,0.97492808,-0.2225202,0,0)"
         width="84.744003"
         style="fill:none"
         height="5"
         id="rect195" />
      <ellipse
         transform="matrix(0.13423351,-0.99094973,0.99094973,0.13423351,0,0)"
         style="fill:none"
         rx="5"
         cx="10"
         ry="75"
         cy="33.897598"
         id="ellipse197" />
      <ellipse
         transform="matrix(0.13423351,-0.99094973,0.99094973,0.13423351,0,0)"
         style="fill:none"
         rx="10"
         cx="10"
         ry="25"
         cy="150"
         id="ellipse199" />
      <rect
         x="50"
         y="0"
         transform="matrix(0.13423351,-0.99094973,0.99094973,0.13423351,0,0)"
         width="84.744003"
         style="fill:none"
         height="5"
         id="rect201" />
      <ellipse
         transform="matrix(0.47386844,-0.88059565,0.88059565,0.47386844,0,0)"
         style="fill:none"
         rx="5"
         cx="10"
         ry="75"
         cy="33.897598"
         id="ellipse203" />
      <ellipse
         transform="matrix(0.47386844,-0.88059565,0.88059565,0.47386844,0,0)"
         style="fill:none"
         rx="10"
         cx="10"
         ry="25"
         cy="150"
         id="ellipse205" />
      <rect
         x="50"
         y="0"
         transform="matrix(0.47386844,-0.88059565,0.88059565,0.47386844,0,0)"
         width="84.744003"
         style="fill:none"
         height="5"
         id="rect207" />
      <ellipse
         transform="matrix(0.75307097,-0.65793929,0.65793929,0.75307097,0,0)"
         style="fill:none"
         rx="5"
         cx="10"
         ry="75"
         cy="33.897598"
         id="ellipse209" />
      <ellipse
         transform="matrix(0.75307097,-0.65793929,0.65793929,0.75307097,0,0)"
         style="fill:none"
         rx="10"
         cx="10"
         ry="25"
         cy="150"
         id="ellipse211" />
      <rect
         x="50"
         y="0"
         transform="matrix(0.75307097,-0.65793929,0.65793929,0.75307097,0,0)"
         width="84.744003"
         style="fill:none"
         height="5"
         id="rect213" />
      <ellipse
         transform="matrix(0.93623505,-0.35137436,0.35137436,0.93623505,0,0)"
         style="fill:none"
         rx="5"
         cx="10"
         ry="75"
         cy="33.897598"
         id="ellipse215" />
      <ellipse
         transform="matrix(0.93623505,-0.35137436,0.35137436,0.93623505,0,0)"
         style="fill:none"
         rx="10"
         cx="10"
         ry="25"
         cy="150"
         id="ellipse217" />
      <rect
         x="50"
         y="0"
         transform="matrix(0.93623505,-0.35137436,0.35137436,0.93623505,0,0)"
         width="84.744003"
         style="fill:none"
         height="5"
         id="rect219" />
    </g>
  </g>
</svg>
