<?xml version="1.0" encoding="utf-8"?>
<!-- Generator: Adobe Illustrator 16.0.0, SVG Export Plug-In . SVG Version: 6.00 Build 0)  -->
<!DOCTYPE svg PUBLIC "-//W3C//DTD SVG 1.1//EN" "http://www.w3.org/Graphics/SVG/1.1/DTD/svg11.dtd">
<svg version="1.1" id="Capa_1" xmlns="http://www.w3.org/2000/svg" xmlns:xlink="http://www.w3.org/1999/xlink" x="0px" y="0px"
	 width="253px" height="248px" viewBox="489.5 202.5 253 248" enable-background="new 489.5 202.5 253 248" xml:space="preserve">
<g>
	<g>
		<circle fill="#01B8C4" cx="614.992" cy="328.989" r="116.992"/>
		<g>
			<g>
				<path fill="#FFFFFF" d="M558.136,427.16c-0.021,0.045-0.052,0.073-0.073,0.117c0.176,0.044,0.345,0.103,0.52,0.14
					L558.136,427.16z"/>
				<path fill="#FFFFFF" d="M550.777,262.269l-0.234-0.476c1.955-0.293,2.087-1.67,3.573-2.175c1.691-0.557,1.113,0.051,2.775,0
					c1.348-0.06,2.168,0.922,3.705,0.204c-0.373,0.659-0.98,1.113-1.589,1.561c-1.267,0.9-2.563,1.823-4.071,2.175
					C553.427,263.902,551.656,263.535,550.777,262.269z"/>
				<path fill="#FFFFFF" d="M574.181,366.548c-0.029,1.032-0.638,1.934-1.165,2.805c-2.351,3.838-3.778,8.282-4.093,12.786
					c-0.315,4.313-0.125,9.63-3.882,11.753c-2.146,1.194-5.162,0.981-6.591,2.995c-0.446,0.608-0.659,1.377-0.871,2.095
					c-0.923,3.361-1.853,6.723-2.775,10.084c-1.193-0.103-2.409-0.234-3.596-0.366c1.406,0.446,2.38,2.351,1.538,3.654
					c-1.348-0.71-3.12,0.132-3.867,1.486c-0.71,1.348-0.607,2.987-0.212,4.475c1.223,4.394,4.979,7.938,9.402,8.992
					c-0.769,1.458-3.119,0.82-4.555-0.153c-10.244-6.928-17.978-17.479-21.508-29.336c-1.245-4.182-2.043-8.627-4.481-12.222
					c-2.035-3.04-5.111-5.266-7.147-8.305c-2.855-4.364-3.39-10.025-6.7-14.017c-1.853-2.277-4.716-5.074-3.075-7.513
					c0.658-1.004,2.064-1.955,1.508-3.018c-0.183-0.344-0.557-0.557-0.85-0.85c-1.113-1.193-0.344-3.068,0.213-4.605
					c0.923-2.673,0.923-5.529,0.527-8.386c-2.783-2.489-4.98-5.579-6.356-9.051c-0.82-2.116-1.911-4.76-4.182-4.789
					c-0.586-1.641-1.193-3.281-1.779-4.921c-0.213,0.586-0.791,0.951-1.429,1.032c1.758-26.81,12.566-51.137,29.388-69.986
					c0.374-0.16,0.739-0.373,1.113-0.585c3.991-2.329,7.169-5.822,11.028-8.363c0.791-0.527,1.691-1.032,2.673-0.93
					c0.952,0.08,1.853,1.055,1.509,1.955c-0.132,0.373-0.447,0.666-0.77,0.9c-4.518,3.845-9.469,7.206-14.733,9.988
					c-0.63,0.315-1.296,0.688-1.582,1.326c-0.534,1.083,0.366,2.432,1.509,2.826c1.135,0.396,2.409,0.161,3.574-0.103
					c-0.981,1.399-1.274,3.281-0.77,4.922c1.084,0.102,1.428-1.377,1.75-2.409c1.318-4.102,7.857-5.771,7.433-10.092
					c1.772,0.923,3.574-1.143,4.658-2.834c1.084-1.721,3.493-3.412,4.818-1.903c0.073,0.842,0.176,1.691,0.256,2.541
					c2.329-0.586,4.687-1.194,7.016-1.78c-1.325,0.931-1.772,2.915-1.011,4.343c0.77,1.428,2.673,2.146,4.182,1.56
					c-0.021,1.245-1.135,2.197-2.146,2.937c-2.563,1.934-5.316,3.918-8.305,4.87l0.688,1.428c-0.073,0.029-0.153,0.059-0.234,0.059
					c-1.903,0.184-3.918-1.187-5.953-0.923c-1.245,0.161-2.775,0.161-3.493,1.429c-0.103,0.16-0.55,2.38-0.234,2.196
					c1.113-0.637,2.219-1.273,3.31-1.904c0.337,0.901,0.418,1.904,0.234,2.886c1.348-0.132,2.754,0.154,3.947,0.872
					c-1.245,2.885-4.445,4.818-7.594,4.576c-0.029-0.952-0.08-1.903-0.11-2.855c-2.592-0.213-4.708,2.014-6.005,4.239
					c-1.318,2.249-2.321,4.819-4.496,6.247c-1.317,0.9-2.937,1.245-4.364,1.984c-1.399,0.769-2.695,2.227-2.402,3.786
					c0.132,0.739,0.608,1.428,0.586,2.196c-0.08,1.429-1.742,2.095-2.855,3.018c-1.904,1.589-2.381,4.504-4.416,5.902
					c-1.479,1.032-3.441,1.011-5.163,1.538c-1.721,0.527-3.441,2.248-2.746,3.918c-0.85,0.292-1.882-0.345-1.962-1.245
					c-3.039,5.982-5.046,12.493-5.866,19.164c1.509,1.055,3.039-1.354,3.332-3.179c0.314-1.823,1.904-4.21,3.383-3.127
					c-0.344,2.622-0.688,5.215-1.024,7.836c-0.081,0.506-0.132,1.033,0.109,1.479c0.293,0.557,0.923,0.791,1.406,1.187
					c1.348,1.164,1.164,3.229,1.245,5.002c0.08,2.167,0.798,4.283,1.933,6.136c-0.109-0.373-0.183-0.739-0.264-1.113
					c2.065,0.264,4.211-0.402,5.771-1.779c0.82-0.739,1.509-1.691,2.542-2.064c1.062-0.396,2.226-0.11,3.31,0.183
					c3.361,0.923,6.935,1.955,9.183,4.599c1.136,1.348,1.853,3.047,3.208,4.152c3.068,2.593,8.26,1.45,11.064,4.335
					c2.248,2.329,1.831,6.086,1.224,9.286c-1.538-0.842-3.596,1.274-2.695,2.782c0.82-0.9,1.772-1.853,2.966-1.853
					c1.216-0.029,2.277,1.641,1.377,2.409c2.116-2.702,7.301-1.589,8.121,1.772c2.966,0.212,5.954,0.417,8.92,0.659
					C565.255,361.92,574.364,362.177,574.181,366.548z"/>
				<path fill="#FFFFFF" d="M556.144,244.115c-1.143,0.563-2.717-0.073-3.142-1.274c-0.432-1.201,0.381-2.688,1.626-2.974
					c0.783-0.183,1.875-0.095,2.116-0.863c0.073-0.235,0.029-0.491,0.029-0.732c-0.029-1.45,1.267-2.651,2.666-3.018
					c1.398-0.358,2.878-0.08,4.298,0.198c0.506,1.047,0.652,2.263,0.41,3.397c-0.974,0.044-1.947,0.081-2.922,0.125
					c0.088,1.618-0.073,3.654-1.574,4.254c-1.348,0.535-3.105-0.461-4.225,0.447"/>
				<path fill="#FFFFFF" d="M571.31,227.953c2.658-1.274,4.906-3.28,7.528-4.628c4.511-2.314,9.776-2.52,14.844-2.681
					c11.534-0.358,23.067-0.718,34.601-1.076c-2.672,1.465-5.345,2.937-8.025,4.401c-2.183,1.2-4.665,2.431-7.06,1.75
					c-0.052,1.926,1.699,3.713,3.632,3.698c-4.737,2.929-11.313-0.066-16.315,2.395c-2.095,1.032-3.786,2.98-6.093,3.347
					c-1.332,0.212-2.717-0.146-4.042,0.146c-2.219,0.482-3.618,2.585-5.258,4.151c-1.89,1.81-4.665,3.047-7.133,2.183
					s-3.757-4.532-1.779-6.246c0.974-0.842,2.365-0.981,3.515-1.575c1.149-0.586,2.058-2.16,1.194-3.119
					c-0.374-0.418-0.989-0.579-1.333-1.025c-0.374-0.483-0.337-1.172-0.645-1.699c-1.172-2.058-4.431,0.711-6.649-0.117"/>
				<path fill="#FFFFFF" d="M606.337,237.686c1.56-0.359,2.914-1.281,4.371-1.955c1.458-0.674,3.193-1.069,4.621-0.359
					c0.425,1.063-0.798,2.029-1.874,2.409c-2.065,0.726-4.307,0.923-6.467,0.564"/>
				<path fill="#FFFFFF" d="M700.635,249.322c-0.425,0.052-0.871,0.029-1.325-0.08c-1.984-0.425-3.493-1.955-5.192-3.068
					c-3.918-2.593-9.264-2.93-13.496-0.813c1.004-1.458,1.509-3.259,1.398-5.031l-0.607,0.212
					c-6.935-4.02-15.063-8.194-22.628-5.492c-1.75,0.638-3.332,1.589-5.104,2.197c-1.882,0.659-3.969,0.93-5.58,2.094
					c-1.641,1.165-2.512,3.735-1.105,5.134c1.193,1.193,3.098,0.872,4.768,1.032c1.64,0.161,3.521,1.795,2.621,3.201
					c-7.25,3.391-14.521,6.81-21.771,10.229c3.332,1.084,5.536,4.862,4.818,8.305c-2.438,0.425-4.789-1.055-7.249-1.216
					c-3.574-0.183-6.986,2.966-7.06,6.539c-0.103,3.574,3.178,6.877,6.752,6.825c2.673-0.029,5.294-1.641,7.887-0.959
					c0.103-2.438,1.772-4.504,3.485-6.246c3.332-3.34,8.092-6.356,12.545-4.717c1.457,0.527,2.702,1.509,3.917,2.482
					c2.674,2.117,5.346,4.255,8.026,6.4c0.85-0.871,1.691-1.75,2.541-2.592c1.458,1.538,2.915,3.068,4.394,4.628
					c0.74-0.506,1.509-0.981,2.248-1.486c0.527,1.377,1.084,2.724,1.619,4.101c0.212-1.509,0.395-2.987,0.578-4.475
					c1.75,0.052,3.603,0.103,5.185-0.688c1.59-0.769,2.754-2.673,2.087-4.313c-0.344-0.872-1.164-1.561-1.325-2.49
					c-0.344-1.853,2.3-3.12,4.021-2.277c1.691,0.82,2.541,2.754,3.259,4.525c0.396-1.801,0.762-3.573,1.164-5.375
					c1.655,4.35,4.042,8.422,7.008,11.995c-5.426-1.032-11.146-0.439-16.22,1.647c1.618,2.277,4.394,3.625,7.177,3.516
					c1.244-0.03,2.621-0.315,3.573,0.476c0.718,0.607,0.9,1.589,1.032,2.49c0.425,2.541,0.85,5.053,1.245,7.564
					c-2.863-2.351-6.986-2.088-10.721-2.16c-3.735-0.103-8.1-1.136-9.476-4.6c-1.479,1.67-2.139,4.05-1.714,6.276
					c-3.867-0.923-8.312-2.402-9.425-6.217c-3.017,1.112-6.773-0.813-7.594-3.911c-0.293-1.084-0.374-2.409-1.326-2.987
					c-0.578-0.345-1.325-0.293-2.014-0.213c-5.741,0.666-11.46,1.304-17.172,1.97c-3.12,0.374-6.35,0.747-9.103,2.277
					c-2.754,1.509-4.943,4.475-4.629,7.602c-5.265,3.127-9.731,7.652-12.749,12.977c-0.952,1.641-1.772,3.522-1.398,5.375
					c0.264,1.428,1.216,2.644,1.509,4.05c0.505,2.409-0.871,4.737-1.45,7.118c-1.641,6.773,3.5,13.151,8.268,18.277
					c2.248,2.38,4.848,4.973,8.128,5.104c2.036,0.081,3.97-0.82,5.874-1.567c5.448-2.146,11.38-3.127,17.224-2.893
					c-1.326,1.033,0.051,3.281,1.699,3.625c1.64,0.345,3.412-0.19,5.001,0.366c3.625,1.296,3.127,6.613,1.487,10.084
					c0.819-0.161,1.669-0.322,2.511-0.476c-0.446,1.164-0.9,2.328-1.347,3.463c4.972,0.63,6.854,7.17,5.697,12.062
					c-1.136,4.898-4.043,9.396-4.123,14.427c-0.022,2.753,0.82,5.426,1.67,8.04c2.123,6.642,4.239,13.283,6.363,19.947
					c5.932,0.711,9.337-6.832,14.844-9.189c2.064-0.901,4.496-1.084,6.114-2.622c1.561-1.479,1.055-4.95-0.952-4.95
					c2.725-0.293,5.054-2.783,5.134-5.536c0.029-0.77-0.08-1.538,0.022-2.3c0.183-1.084,0.871-2.036,1.53-2.966
					c4.203-6.034,6.927-12.947,9.651-19.771c0.711-1.831,1.429-3.625,2.139-5.456c2.694-6.803,5.368-13.577,8.063-20.38
					c1.055-2.673,2.116-5.316,3.171-7.996c-1.457,2.409-5.266,2.094-7.44,0.293c-2.196-1.795-3.339-4.526-5.06-6.774
					c-1.458-1.934-3.42-3.646-4.108-6.005c-0.396-1.348-0.322-2.805-0.557-4.211c-0.535-3.046-2.541-5.58-3.918-8.333
					c-1.377-2.754-2.094-6.32-0.161-8.736c5.565,9.71,10.626,19.706,15.202,29.951c0.506-1.59,1.67-2.966,3.149-3.735
					c1.084-0.586,2.3-0.82,3.441-1.296c3.018-1.325,5.104-4.525,5.104-7.807c-0.029-3.28-2.116-6.48-5.162-7.776
					c-1.509-0.638-3.229-0.843-4.658-1.721c-1.428-0.843-2.461-2.776-1.56-4.182c0.842-1.325,2.885-1.297,4.284-0.557
					c1.406,0.769,2.438,2.064,3.757,2.937c0.951,0.637,2.064,1.054,3.097,1.641c5.588,3.199,6.965,10.479,8.137,16.828
					c0.637,3.412,1.354,6.803,2.204,10.135c0.029-0.718,0.021-1.457,0.021-2.168C731.969,298.158,720.07,270.193,700.635,249.322z
					 M711.348,287.768c-0.77-0.052-1.479-0.557-2.095-1.033c-1.003-0.79-2.014-1.721-2.307-2.965
					c-0.345-1.479,0.366-3.179-0.425-4.497c-0.373-0.637-1.032-1.032-1.589-1.479c-1.457-1.164-2.52-2.834-2.915-4.628
					c-0.344-1.589,0.154-3.705,1.772-3.969c0.77-0.132,1.611,0.293,1.955,1.003l-1.084,0.586c1.824,0.213,2.674,2.966,1.274,4.152
					c-0.183,0.183-0.425,0.344-0.425,0.607c0,0.162,0.103,0.315,0.242,0.425c1.135,1.245,2.834,1.691,4.313,2.482
					c1.479,0.77,2.937,2.197,2.702,3.838c-0.477,0.183-0.923,0.344-1.399,0.527c-0.505,0.505-0.103,1.406,0.425,1.903
					c0.527,0.498,1.216,1.003,1.245,1.743C713.04,287.262,712.138,287.819,711.348,287.768z"/>
				<path fill="#FFFFFF" d="M712.11,369.185l-1.911,1.354c0.666,2.344-0.667,5.09-2.93,6.005c-1.193,0.483-2.783,0.695-3.186,1.919
					c-0.337,1.039,0.469,2.094,0.578,3.178c0.177,1.802-1.508,3.149-2.724,4.489s-1.86,3.859-0.241,4.664
					c0.373,0.191,0.805,0.228,1.223,0.264c1.758,0.154,3.683,0.206,5.118-0.819c4.116-2.937,0.205-10.904,4.27-13.921
					c0.579-0.425,1.304-0.732,1.618-1.377C714.885,373.044,711.348,371.161,712.11,369.185z"/>
			</g>
		</g>
	</g>
</g>
</svg>
