<?xml version="1.0" encoding="utf-8"?>
<!-- Generator: Adobe Illustrator 16.0.0, SVG Export Plug-In . SVG Version: 6.00 Build 0)  -->
<!DOCTYPE svg PUBLIC "-//W3C//DTD SVG 1.1//EN" "http://www.w3.org/Graphics/SVG/1.1/DTD/svg11.dtd">
<svg version="1.1" id="Calque_1" xmlns="http://www.w3.org/2000/svg" xmlns:xlink="http://www.w3.org/1999/xlink" x="0px" y="0px"
	 width="409px" height="472px" viewBox="29.5 0 409 472" enable-background="new 29.5 0 409 472" xml:space="preserve">
<g id="Panneau">
	<path fill="#E95723" d="M54.016,33.901h366.409v270.825H54.016V33.901z"/>
	<path fill="#FFFFFF" d="M64.124,49.063H409.4v237.622H64.124V49.063z"/>
	<path fill="#E95723" d="M85.877,2.04h47.793v31.861H85.877V2.04z"/>
	<path fill="#E95723" d="M340.769,2.04h47.795v31.861h-47.795V2.04z"/>
	<path fill="#E95723" d="M85.877,304.726h47.793v159.309H85.877V304.726z"/>
	<path fill="#E95723" d="M340.769,304.726h47.795v159.309h-47.795V304.726z"/>
	<path fill="#14B4BE" d="M133.67,462.759c6.333,2.256,13.313,1.831,19.325-1.175c6.014-3.008,10.542-8.334,12.537-14.755
		c0,0,7.966-31.863,15.931-31.863C181.462,414.966,133.67,399.036,133.67,462.759z"/>
	<path fill="#14B4BE" d="M85.877,462.759c-6.332,2.256-13.313,1.831-19.326-1.175c-6.011-3.008-10.54-8.334-12.535-14.755
		c0,0-7.966-31.863-15.932-31.863C38.084,414.966,85.877,399.036,85.877,462.759z"/>
	<path fill="#14B4BE" d="M388.564,462.759c6.331,2.256,13.312,1.831,19.324-1.175c6.014-3.008,10.541-8.334,12.536-14.755
		c0,0,7.965-31.863,15.932-31.863C436.356,414.966,388.564,399.036,388.564,462.759z"/>
	<path fill="#14B4BE" d="M340.769,462.759c-6.33,2.256-13.311,1.831-19.324-1.175c-6.015-3.008-10.541-8.334-12.536-14.755
		c0,0-7.966-31.863-15.931-31.863C292.978,414.966,340.769,399.036,340.769,462.759z"/>
	<path fill="#EF805E" d="M85.877,328.622h23.896v15.931H85.877V328.622z"/>
	<path fill="#EF805E" d="M364.667,344.553h23.897v15.93h-23.897V344.553z"/>
	<path fill="#EF805E" d="M340.769,392.346h23.897v15.933h-23.897V392.346z"/>
	<path fill="#EF805E" d="M109.773,400.313h23.896v15.93h-23.896V400.313z"/>
	<path fill="#14B4BE" d="M38.084,456.07h159.309V472H38.084V456.07z"/>
	<path fill="#14B4BE" d="M213.324,456.07h15.931V472h-15.931V456.07z"/>
	<path fill="#14B4BE" d="M245.186,456.07h191.17V472h-191.17V456.07z"/>
</g>
</svg>
