<?xml version="1.0" encoding="utf-8"?>
<!-- Generator: Adobe Illustrator 16.0.0, SVG Export Plug-In . SVG Version: 6.00 Build 0)  -->
<!DOCTYPE svg PUBLIC "-//W3C//DTD SVG 1.1//EN" "http://www.w3.org/Graphics/SVG/1.1/DTD/svg11.dtd">
<svg version="1.1" xmlns="http://www.w3.org/2000/svg" xmlns:xlink="http://www.w3.org/1999/xlink" x="0px" y="0px" width="260px"
	 height="256px" viewBox="0 0 260 256" enable-background="new 0 0 260 256" xml:space="preserve">
<g id="Fond005" display="none">
	<g display="inline">
		<path fill="#E5E6E5" d="M51.714,29.345L32.336,66.258l-38.098-72.4c-1.612-3.06-5.992-3.05-7.595,0.014l-138.209,264.901h331.322
			L59.306,29.345C57.696,26.288,53.319,26.288,51.714,29.345z"/>
		<path fill="#C6C5C6" d="M179.757,258.773L59.306,29.345c-1.609-3.058-5.986-3.058-7.592,0L32.336,66.258l101.307,192.516H179.757z
			"/>
		<path fill="#E5E6E5" d="M37.085,76.043L23.039,90.085c-1.671,1.675-4.383,1.675-6.059,0L5.293,78.397
			c-1.673-1.673-4.387-1.673-6.06,0l-23.522,23.521c-1.673,1.673-4.387,1.673-6.062,0l-25.874-25.875l42.854-82.141
			c1.604-3.069,5.997-3.069,7.602,0L37.085,76.043z"/>
		<path fill="#C6C5C6" d="M83.82,76.043L69.774,90.085c-1.672,1.675-4.386,1.675-6.059,0L52.024,78.397
			c-1.668-1.673-4.385-1.673-6.058,0l-5.028,5.028l-8.867-16.998l19.633-37.121c1.615-3.048,5.982-3.038,7.582,0.01L83.82,76.043z"
			/>
	</g>
	<g display="inline">
		<path fill="#E5E6E5" d="M312.657,9.409l-20.961,39.925l-41.208-78.309c-1.741-3.309-6.479-3.299-8.212,0.016L92.784,257.562
			H451.15L320.868,9.409C319.127,6.102,314.394,6.102,312.657,9.409z"/>
		<path fill="#C6C5C6" d="M451.15,257.562L320.868,9.409c-1.741-3.307-6.475-3.307-8.211,0l-20.961,39.925l109.576,208.228H451.15z"
			/>
		<path fill="#E5E6E5" d="M296.835,59.918l-15.191,15.187c-1.809,1.813-4.742,1.813-6.554,0l-12.642-12.641
			c-1.813-1.811-4.747-1.811-6.556,0l-25.442,25.44c-1.809,1.81-4.747,1.81-6.556,0l-27.986-27.987l46.354-88.846
			c1.731-3.32,6.484-3.32,8.215,0L296.835,59.918z"/>
		<path fill="#C6C5C6" d="M347.381,59.918l-15.19,15.187c-1.81,1.813-4.744,1.813-6.553,0l-12.645-12.641
			c-1.808-1.811-4.742-1.811-6.555,0l-5.438,5.438l-9.589-18.385l21.235-40.151c1.746-3.297,6.47-3.288,8.202,0.012L347.381,59.918z
			"/>
	</g>
	<g display="inline">
		<path fill="#D3D2D2" d="M505.878,128.93c5.884,0,10.221-1.951,9.119-4.044c-5.222-9.917-29.292-17.41-58.19-17.41
			c-9.676,0-18.813,0.841-26.878,2.331c-3.933,0.726-8.7,0.44-11.949-0.642c-13.178-4.38-30.741-7.055-50.033-7.055
			c-37.295,0-68.149,9.984-73.297,22.975c-0.805,2.027,3.563,3.845,9.22,3.845H505.878z"/>
		<path fill="#D3D2D2" d="M536.162,21.559c2,0,3.566-1.831,3.212-3.838c-1.772-10.02-10.353-17.616-20.671-17.616
			c-3.43,0-6.67,0.844-9.53,2.331c-1.395,0.728-3.082,0.44-4.236-0.64c-4.672-4.38-10.899-7.055-17.739-7.055
			c-13.242,0-24.191,10.013-25.994,23.028c-0.278,2,1.244,3.789,3.222,3.789H536.162z"/>
	</g>
	<rect x="-361.11" y="251.49" display="inline" fill="#D3D2D2" width="965.604" height="227.294"/>
	<g display="inline">
		<path fill="#14B4BE" d="M-44.266,198.544c-8.934,7.99-14.556,20.079-17.721,30.6c3.522,11.697,4.331,21.447,4.331,21.447h5.872
			c0-25.906,5.981-43.027,9.393-50.687C-41.87,198.741-43.313,197.696-44.266,198.544z"/>
		<path fill="#14B4BE" d="M-60.61,224.936c-0.501,1.421-0.96,2.826-1.376,4.208c3.522,11.697,4.331,21.447,4.331,21.447h2.738
			C-54.917,250.591-55.93,238.403-60.61,224.936z"/>
		<path fill="#14B4BE" d="M-52.119,250.591c0,0,2.168-26.146,16.196-38.681c0.709-0.632,1.778,0.145,1.392,1.011
			c-2.533,5.691-6.979,18.415-6.979,37.67H-52.119L-52.119,250.591z"/>
		<path fill="#14B4BE" d="M-34.531,212.921c0.387-0.866-0.683-1.643-1.392-1.011c-14.028,12.534-16.196,38.681-16.196,38.681h3.059
			c0,0,1.947-23.432,14.052-36.563C-34.843,213.633-34.683,213.265-34.531,212.921z"/>
		<path fill="#14B4BE" d="M-41.107,250.591c0,0,1.44-17.359,10.755-25.685c0.47-0.419,1.182,0.099,0.926,0.672
			c-1.686,3.779-4.635,12.228-4.635,25.013H-41.107z"/>
		<path fill="#14B4BE" d="M-29.427,225.578c0.256-0.579-0.456-1.091-0.926-0.672c-9.314,8.325-10.755,25.685-10.755,25.685h2.603
			c0,0,1.177-14.148,8.257-23.026C-29.955,226.802-29.678,226.138-29.427,225.578z"/>
		<path fill="#14B4BE" d="M-57.395,250.591c0,0-2.92-35.177-21.791-52.047c-0.954-0.848-2.395,0.197-1.877,1.36
			c3.413,7.659,9.393,24.78,9.393,50.687H-57.395L-57.395,250.591z"/>
		<path fill="#14B4BE" d="M-78.396,199.274c-0.262-0.248-0.523-0.49-0.79-0.73c-0.954-0.848-2.395,0.197-1.877,1.36
			c3.413,7.659,9.393,24.78,9.393,50.687h2.769c0-25.906-5.979-43.027-9.394-50.687C-78.391,199.686-78.42,199.472-78.396,199.274z"
			/>
		<path fill="#14B4BE" d="M-71.334,250.591c0,0-2.168-26.146-16.193-38.681c-0.709-0.632-1.781,0.145-1.395,1.011
			c2.536,5.691,6.979,18.415,6.979,37.67H-71.334L-71.334,250.591z"/>
		<path fill="#14B4BE" d="M-87.527,211.91c-0.709-0.632-1.781,0.145-1.395,1.011c2.536,5.691,6.979,18.415,6.979,37.67h2.735
			c0-18.729-4.208-31.28-6.768-37.188C-86.477,212.887-86.994,212.388-87.527,211.91z"/>
		<path fill="#14B4BE" d="M-82.343,250.591c0,0-1.44-17.359-10.753-25.685c-0.475-0.419-1.184,0.099-0.928,0.672
			c1.686,3.779,4.635,12.228,4.635,25.013H-82.343z"/>
		<g>
			<path fill="#14B4BE" d="M-93.096,224.906c-0.475-0.419-1.184,0.099-0.928,0.672c1.686,3.779,4.635,12.228,4.635,25.013h2.638
				c0-10.822-2.115-18.538-3.784-22.94C-91.316,226.661-92.168,225.74-93.096,224.906z"/>
			<path fill="#14B4BE" d="M-31.157,251.566h-61.029c-0.538,0-0.979-0.438-0.979-0.976c0-0.539,0.44-0.977,0.979-0.977h61.029
				c0.538,0,0.976,0.438,0.976,0.977C-30.182,251.129-30.616,251.566-31.157,251.566z"/>
		</g>
	</g>
	<g display="inline">
		<path fill="#14B4BE" d="M513.79,378.563c-8.934,7.99-14.556,20.079-17.721,30.6c3.522,11.697,4.331,21.447,4.331,21.447h5.872
			c0-25.906,5.981-43.027,9.393-50.687C516.186,378.76,514.742,377.715,513.79,378.563z"/>
		<path fill="#14B4BE" d="M497.445,404.954c-0.501,1.421-0.96,2.826-1.376,4.208c3.522,11.697,4.331,21.447,4.331,21.447h2.738
			C503.139,430.609,502.126,418.422,497.445,404.954z"/>
		<path fill="#14B4BE" d="M505.937,430.609c0,0,2.168-26.146,16.196-38.681c0.709-0.632,1.778,0.145,1.392,1.011
			c-2.533,5.691-6.979,18.415-6.979,37.67H505.937L505.937,430.609z"/>
		<path fill="#14B4BE" d="M523.524,392.939c0.387-0.866-0.683-1.643-1.392-1.011c-14.028,12.534-16.196,38.681-16.196,38.681h3.059
			c0,0,1.947-23.432,14.052-36.563C523.213,393.651,523.373,393.283,523.524,392.939z"/>
		<path fill="#14B4BE" d="M516.948,430.609c0,0,1.44-17.359,10.755-25.685c0.47-0.419,1.182,0.099,0.926,0.672
			c-1.686,3.779-4.635,12.228-4.635,25.013H516.948z"/>
		<path fill="#14B4BE" d="M528.629,405.597c0.256-0.579-0.456-1.091-0.926-0.672c-9.314,8.325-10.755,25.685-10.755,25.685h2.603
			c0,0,1.177-14.148,8.257-23.026C528.101,406.82,528.378,406.156,528.629,405.597z"/>
		<path fill="#14B4BE" d="M500.661,430.609c0,0-2.92-35.177-21.791-52.047c-0.954-0.848-2.395,0.197-1.877,1.36
			c3.413,7.659,9.393,24.78,9.393,50.687H500.661L500.661,430.609z"/>
		<path fill="#14B4BE" d="M479.66,379.293c-0.262-0.248-0.523-0.49-0.79-0.73c-0.954-0.848-2.395,0.197-1.877,1.36
			c3.413,7.659,9.393,24.78,9.393,50.687h2.769c0-25.906-5.979-43.027-9.394-50.687C479.665,379.704,479.636,379.49,479.66,379.293z
			"/>
		<path fill="#14B4BE" d="M486.722,430.609c0,0-2.168-26.146-16.193-38.681c-0.709-0.632-1.781,0.145-1.395,1.011
			c2.536,5.691,6.979,18.415,6.979,37.67H486.722L486.722,430.609z"/>
		<path fill="#14B4BE" d="M470.528,391.929c-0.709-0.632-1.781,0.145-1.395,1.011c2.536,5.691,6.979,18.415,6.979,37.67h2.735
			c0-18.729-4.208-31.28-6.768-37.188C471.579,392.905,471.062,392.406,470.528,391.929z"/>
		<path fill="#14B4BE" d="M475.713,430.609c0,0-1.44-17.359-10.753-25.685c-0.475-0.419-1.184,0.099-0.928,0.672
			c1.686,3.779,4.635,12.228,4.635,25.013H475.713z"/>
		<g>
			<path fill="#14B4BE" d="M464.96,404.925c-0.475-0.419-1.184,0.099-0.928,0.672c1.686,3.779,4.635,12.228,4.635,25.013h2.638
				c0-10.822-2.115-18.538-3.784-22.94C466.739,406.68,465.888,405.759,464.96,404.925z"/>
			<path fill="#14B4BE" d="M526.898,431.585h-61.029c-0.538,0-0.979-0.438-0.979-0.976c0-0.539,0.44-0.977,0.979-0.977h61.029
				c0.538,0,0.976,0.438,0.976,0.977C527.874,431.147,527.439,431.585,526.898,431.585z"/>
		</g>
	</g>
	<g display="inline">
		<path fill="#EF805E" d="M381.73,129.82L381.73,129.82c4.097-5.741,6.534-12.748,6.534-20.339c0-19.373-15.707-35.08-35.08-35.08
			c-0.287,0-0.565,0.037-0.852,0.043c-5.982-9.197-16.335-15.293-28.127-15.293c-13.68,0-25.426,8.197-30.65,19.938
			c-20.965,5.476-36.457,24.487-36.457,47.169c0,12.468,4.717,23.811,12.412,32.438c-0.136,1.373-0.211,2.76-0.211,4.165
			c0,23.586,19.118,42.705,42.703,42.705c2.572,0,12.809-0.229,15.253-0.667l1.032-10.57c6.044,3.275,12.963,5.138,20.32,5.138
			c23.586,0,42.706-19.121,42.706-42.706C391.314,146.544,387.715,137.169,381.73,129.82z"/>
		<path fill="#E95723" d="M327.256,189.513c-4.895,1.265-10.314,1.223-16.104-1.514c-7.847-3.705-13.531-11.235-14.301-19.877
			c-0.302-3.395,0.103-6.654,1.068-9.662c0.381-1.186-0.109-2.441-1.07-3.23c-7.498-6.15-12.298-15.466-12.298-25.924
			c0-13.565,8.069-25.22,19.657-30.504c1.21-0.551,1.99-1.754,1.855-3.076c-0.099-0.994-0.16-2.002-0.16-3.021
			c0-15.891,11.06-29.171,25.892-32.642c-2.442-0.569-4.972-0.911-7.589-0.911c-13.68,0-25.426,8.197-30.65,19.938
			c-20.965,5.476-36.457,24.487-36.457,47.169c0,12.468,4.717,23.811,12.412,32.438c-0.136,1.373-0.211,2.76-0.211,4.165
			c0,23.586,19.118,42.705,42.703,42.705c2.572,0,12.809-0.229,15.253-0.667v-9.32V189.513L327.256,189.513L327.256,189.513z"/>
		<path fill="#D3D2D2" d="M321.158,190.319c-0.097,0-0.19-0.016-0.288-0.018l-2.764,58.051h18.324l-2.705-56.799
			c-0.098-2.035-2.132-3.502-4.039-2.785C327.034,189.767,324.164,190.319,321.158,190.319z"/>
		<path fill="#969596" d="M333.726,191.554c-0.098-2.035-2.132-3.502-4.039-2.785c-2.652,0.998-5.522,1.551-8.528,1.551
			c-0.097,0-0.19-0.016-0.288-0.018l-2.764,58.051h9.162v-49.724c0-1.315,0.843-2.485,2.089-2.899l4.497-1.5L333.726,191.554z"/>
		<path fill="#14B4BE" d="M342.509,251.322h-30.503c-1.685,0-3.05-1.365-3.05-3.053c0-1.685,1.365-3.05,3.05-3.05h30.503
			c1.684,0,3.05,1.365,3.05,3.05C345.559,249.957,344.192,251.322,342.509,251.322z"/>
	</g>
	<path display="inline" fill="#F3F3F3" d="M791.19,267.231l-1256.979-1.645c-56.229,1.406-54.823,98.401,0,94.185l1256.979,8.647"/>
	<g display="inline">
		<g>
			<line fill="none" stroke="#E95723" stroke-miterlimit="10" x1="-430.441" y1="315.233" x2="-424.441" y2="315.233"/>
			
				<line fill="none" stroke="#E95723" stroke-miterlimit="10" stroke-dasharray="12.1252,12.1252" x1="-412.316" y1="315.233" x2="672.893" y2="315.233"/>
			<line fill="none" stroke="#E95723" stroke-miterlimit="10" x1="678.955" y1="315.233" x2="684.955" y2="315.233"/>
		</g>
	</g>
	<g display="inline">
		<path fill="#D3D2D2" d="M-246.968,354.495v60.549h-35.182v-60.549c0-3.287,2.581-5.868,5.862-5.868h23.457
			C-249.549,348.627-246.968,351.208-246.968,354.495z"/>
		<path fill="#969596" d="M-246.968,354.495v60.549h-17.591v-66.417h11.729C-249.549,348.627-246.968,351.208-246.968,354.495z"/>
		<path fill="#EF805E" d="M-200.298,358.949c-0.817,2.465-3.05,4.105-5.625,4.105h-20.639c-7.625,0-14.897-1.757-21.577-5.045
			c-5.984,8.327-11.848,14.66-12.198,14.892c-1.056,1.177-2.577,1.879-4.222,1.879c-1.644,0-3.169-0.702-4.225-1.879
			c-0.351-0.231-6.213-6.564-12.192-14.892c-6.686,3.288-13.954,5.045-21.577,5.045h-20.639c-2.583,0-4.808-1.641-5.631-4.105
			c-0.704-2.58,0.234-5.161,2.346-6.686c14.895-9.848,27.324-22.512,37.055-37.409h49.723c9.734,14.897,22.164,27.562,37.056,37.409
			C-200.533,353.788-199.594,356.369-200.298,358.949z"/>
		<path fill="#EF805E" d="M-200.298,358.949c-0.817,2.465-3.05,4.105-5.625,4.105h-20.639c-7.625,0-14.897-1.757-21.577-5.045
			c-5.984,8.327-11.848,14.66-12.198,14.892c-1.056,1.177-2.577,1.879-4.222,1.879v-59.926h24.859
			c9.734,14.897,22.164,27.562,37.056,37.409C-200.533,353.788-199.594,356.369-200.298,358.949z"/>
		<path fill="#E95723" d="M-200.298,323.768c-0.817,2.464-3.05,4.105-5.625,4.105h-20.639c-7.625,0-14.897-1.758-21.577-5.045
			c-5.984,8.327-11.848,14.659-12.198,14.896c-1.056,1.172-2.577,1.874-4.222,1.874c-1.644,0-3.169-0.702-4.225-1.874
			c-0.351-0.237-6.213-6.569-12.192-14.896c-6.686,3.287-13.954,5.045-21.577,5.045h-20.639c-2.583,0-4.808-1.642-5.631-4.105
			c-0.704-2.575,0.234-5.161,2.346-6.687c13.721-9.023,25.33-20.517,34.71-33.889h54.413c9.383,13.372,20.992,24.865,34.713,33.889
			C-200.533,318.606-199.594,321.192-200.298,323.768z"/>
		<path fill="#E95723" d="M-200.298,323.768c-0.817,2.464-3.05,4.105-5.625,4.105h-20.639c-7.625,0-14.897-1.758-21.577-5.045
			c-5.984,8.327-11.848,14.659-12.198,14.896c-1.056,1.172-2.577,1.874-4.222,1.874v-56.406h27.205
			c9.383,13.372,20.992,24.865,34.71,33.889C-200.533,318.606-199.594,321.192-200.298,323.768z"/>
		<path fill="#EF805E" d="M-215.073,281.551c-13.955-6.918-25.562-18.527-32.483-32.479l-11.728-24.005
			c-1.053-1.989-3.163-3.045-5.274-3.045c-2.107,0-4.225,1.056-5.279,3.045l-11.727,24.005
			c-6.918,13.952-18.527,25.562-32.479,32.479c-2.464,1.288-3.757,3.99-3.169,6.57c0.705,2.696,3.051,4.575,5.747,4.575h20.638
			c4.811,0,9.381-1.177,13.486-3.287c3.752,7.741,8.208,12.78,8.443,13.018c1.055,1.288,2.696,1.995,4.34,1.995
			c1.645,0,3.282-0.707,4.338-1.995c0.234-0.237,4.691-5.276,8.445-13.018c4.104,2.11,8.676,3.287,13.488,3.287h20.636
			c2.699,0,5.042-1.879,5.744-4.575C-211.321,285.541-212.609,282.839-215.073,281.551z"/>
		<path fill="#EF805E" d="M-260.221,302.427c-1.056,1.288-2.693,1.995-4.338,1.995v-82.4c2.111,0,4.222,1.056,5.274,3.045
			l11.728,24.005c6.922,13.952,18.528,25.562,32.483,32.479c2.464,1.288,3.752,3.99,3.166,6.57
			c-0.702,2.696-3.045,4.575-5.744,4.575h-20.636c-4.813,0-9.385-1.177-13.488-3.287
			C-255.529,297.15-259.986,302.189-260.221,302.427z"/>
		<path fill="#14B4BE" d="M-211.785,416.215c0,1.642-0.708,3.051-1.764,4.106c-1.055,1.055-2.464,1.757-4.103,1.757h-93.814
			c-1.644,0-3.048-0.702-4.103-1.757c-1.061-1.056-1.764-2.465-1.764-4.106c0-1.641,0.703-3.05,1.764-4.105
			c1.055-1.055,2.459-1.757,4.103-1.757h93.814c1.639,0,3.048,0.702,4.103,1.757C-212.493,413.165-211.785,414.574-211.785,416.215z
			"/>
		<path fill="#14B4BE" d="M-213.549,412.109c1.056,1.056,1.764,2.465,1.764,4.105c0,1.642-0.708,3.051-1.764,4.106
			c-1.055,1.055-2.464,1.757-4.103,1.757h-46.907v-11.726h46.907C-216.013,410.353-214.604,411.055-213.549,412.109z"/>
	</g>
	<g display="inline">
		<path fill="#D3D2D2" d="M-123.279,36.722c5.884,0,10.221-1.951,9.119-4.044c-5.222-9.917-29.292-17.41-58.19-17.41
			c-9.676,0-18.813,0.841-26.878,2.331c-3.933,0.726-8.7,0.44-11.949-0.642c-13.178-4.38-30.741-7.055-50.033-7.055
			c-37.295,0-68.149,9.984-73.297,22.975c-0.805,2.027,3.563,3.845,9.22,3.845H-123.279z"/>
		<path fill="#D3D2D2" d="M66.573,55.803c2,0,3.566-1.831,3.212-3.838c-1.772-10.02-10.353-17.616-20.671-17.616
			c-3.43,0-6.67,0.844-9.53,2.331c-1.395,0.728-3.082,0.44-4.236-0.64c-4.672-4.38-10.899-7.055-17.739-7.055
			c-13.242,0-24.191,10.013-25.994,23.028c-0.278,2,1.244,3.789,3.222,3.789H66.573z"/>
	</g>
</g>
<g id="Maison005">
	<g>
		<polygon fill="#14B4BE" points="250.138,87.619 8.598,87.619 37.28,8.616 221.453,8.616 		"/>
		<polygon id="mur" fill="#FFFFFF" points="117,88 117,97.682 71.857,53.088 36.891,88 31,88 31,93.203 27,97.682 27,250 117,250 
			117,226 227,226 227,88 		"/>
		<path fill="#B6B6B5" d="M97.664,226H46.339v-71.955h50.823V226H97.664z"/>
		<rect x="53.382" y="160.586" fill="#14B4BE" width="37.238" height="58.371"/>
		<rect x="149.497" y="164.107" fill="#14B4BE" width="46.292" height="46.295"/>
		<rect x="155.532" y="170.65" fill="#B6B6B5" width="33.717" height="33.713"/>
		<rect x="149.497" y="103.218" fill="#14B4BE" width="46.292" height="46.298"/>
		<rect x="155.532" y="109.259" fill="#B6B6B5" width="33.717" height="33.713"/>
		<rect x="8.598" y="226" fill="#14B4BE" width="241.54" height="24.156"/>
		<circle fill="#14B4BE" cx="72.003" cy="105.735" r="20.632"/>
		<path fill="#B6B6B5" d="M72.003,119.824c-8.053,0-14.089-6.54-14.089-14.089c0-8.053,6.54-14.089,14.089-14.089
			c8.051,0,14.09,6.542,14.09,14.089C86.093,113.788,80.054,119.824,72.003,119.824z"/>
		<path fill="#6BC3CE" d="M132.387,82.589l-52.838-52.84c-4.024-4.022-11.069-4.022-15.095,0l-52.838,52.84
			c-4.025,4.025-4.025,11.071,0,15.093c4.027,4.028,11.07,4.028,15.098,0l45.289-45.285l45.288,45.285
			c4.025,4.028,11.07,4.028,15.096,0C136.412,93.66,136.412,86.614,132.387,82.589z"/>
	</g>
</g>
</svg>
