<?xml version="1.0" encoding="utf-8"?>
<!-- Generator: Adobe Illustrator 16.0.0, SVG Export Plug-In . SVG Version: 6.00 Build 0)  -->
<!DOCTYPE svg PUBLIC "-//W3C//DTD SVG 1.1//EN" "http://www.w3.org/Graphics/SVG/1.1/DTD/svg11.dtd">
<svg version="1.1" id="Layer_1" xmlns="http://www.w3.org/2000/svg" xmlns:xlink="http://www.w3.org/1999/xlink" x="0px" y="0px"
	 width="187px" height="156px" viewBox="658.5 357.5 187 156" enable-background="new 658.5 357.5 187 156" xml:space="preserve">
<g>
	<g>
		<g>
			<g>
				<path fill="#EA81BD" d="M702.625,461.368c0,4.336-8.64,7.849-19.292,7.849c-10.655,0-19.294-3.514-19.294-7.849
					c0-4.334,16.956-17.137,27.611-17.137C702.306,444.233,702.625,457.034,702.625,461.368z"/>
			</g>
			<g>
				<path fill="#D363A9" d="M702.625,461.368c0,4.336-8.64,7.849-19.292,7.849c-10.655,0-19.294-3.514-19.294-7.849
					c0-4.334,17.856-2.523,28.511-2.523C703.206,458.845,702.625,457.034,702.625,461.368z"/>
			</g>
			<g>
				<path fill="#33363A" d="M683.334,471.259c-10.342,0-21.334-3.467-21.334-9.891c0-6.104,18.615-19.177,29.651-19.177
					c4.859,0,13.013,2.491,13.013,19.177C704.664,467.792,693.675,471.259,683.334,471.259z M691.651,446.273
					c-9.928,0-25.236,12.044-25.571,15.119c0,2.346,6.722,5.787,17.254,5.787c10.531,0,17.252-3.441,17.252-5.81
					C700.584,451.352,697.578,446.273,691.651,446.273z"/>
			</g>
		</g>
		<g>
			<g>
				<path fill="#EA81BD" d="M797.379,461.368c0,4.336,8.636,7.849,19.291,7.849c10.654,0,19.291-3.514,19.291-7.849
					c0-4.334-16.955-17.137-27.61-17.137C797.697,444.233,797.379,457.034,797.379,461.368z"/>
			</g>
			<g>
				<path fill="#D363A9" d="M797.379,461.368c0,4.336,8.636,7.849,19.291,7.849c10.654,0,19.291-3.514,19.291-7.849
					c0-4.334-17.856-2.523-28.511-2.523C796.795,458.845,797.379,457.034,797.379,461.368z"/>
			</g>
			<g>
				<path fill="#33363A" d="M816.67,471.259c-10.341,0-21.331-3.467-21.331-9.89c0-16.685,8.152-19.177,13.011-19.177
					c11.035,0,29.65,13.072,29.65,19.177C838,467.792,827.01,471.259,816.67,471.259z M808.35,446.273
					c-5.927,0-8.931,5.079-8.931,15.097c0,2.368,6.721,5.81,17.251,5.81c10.531,0,17.252-3.441,17.252-5.81
					C833.585,458.317,818.277,446.273,808.35,446.273z"/>
			</g>
		</g>
	</g>
	<g>
		<g>
			<g>
				<ellipse fill="#EA81BD" cx="719.301" cy="496.766" rx="29.452" ry="8.896"/>
			</g>
			<g>
				<path fill="#D363A9" d="M748.753,496.766c0,4.911-13.186,0-29.451,0c-16.267,0-29.453,4.911-29.453,0
					c0-4.914,13.187-8.896,29.453-8.896C735.567,487.869,748.753,491.852,748.753,496.766z"/>
			</g>
			<g>
				<path fill="#33363A" d="M719.302,507.702c-15.65,0-31.493-3.757-31.493-10.937s15.843-10.937,31.493-10.937
					c15.649,0,31.491,3.757,31.491,10.937S734.951,507.702,719.302,507.702z M719.302,489.909c-17.737,0-27.412,4.529-27.412,6.856
					s9.675,6.856,27.412,6.856c17.736,0,27.411-4.529,27.411-6.856S737.037,489.909,719.302,489.909z"/>
			</g>
		</g>
		<g>
			<g>
				<ellipse fill="#EA81BD" cx="780.701" cy="496.766" rx="29.453" ry="8.896"/>
			</g>
			<g>
				<path fill="#D363A9" d="M751.248,496.766c0,4.911,13.187,0,29.453,0c16.266,0,29.451,4.911,29.451,0
					c0-4.914-13.186-8.896-29.451-8.896C764.434,487.869,751.248,491.852,751.248,496.766z"/>
			</g>
			<g>
				<path fill="#33363A" d="M780.701,507.702c-15.65,0-31.493-3.757-31.493-10.937s15.843-10.937,31.493-10.937
					c15.649,0,31.491,3.757,31.491,10.937S796.351,507.702,780.701,507.702z M780.701,489.909c-17.737,0-27.412,4.529-27.412,6.856
					s9.675,6.856,27.412,6.856s27.411-4.529,27.411-6.856S798.438,489.909,780.701,489.909z"/>
			</g>
		</g>
	</g>
	<g>
		<path fill="#9E3256" d="M689.457,376.048c-7.692,10.569-9.305,24.98-2.898,37.389c6.405,12.413,19.084,19.444,32.158,19.297
			c7.692-10.569,9.306-24.979,2.898-37.389C715.209,382.934,702.533,375.903,689.457,376.048z"/>
	</g>
	<g>
		<path fill="#FFCAE8" d="M689.457,376.048c-7.692,10.569,6.367,22.773,12.774,35.182c6.404,12.413,3.412,21.651,16.486,21.504
			c7.693-10.569,9.306-24.979,2.899-37.389C715.209,382.934,702.533,375.903,689.457,376.048z"/>
	</g>
	<g>
		<path fill="#EFA3CC" d="M689.457,376.048c-7.692,10.569,6.367,22.773,12.774,35.182c6.404,12.413,3.412,21.651,16.486,21.504
			c7.693-10.569,4.354-15.931-2.054-28.342C710.259,391.979,702.533,375.903,689.457,376.048z"/>
	</g>
	<path fill="#33363A" d="M723.427,394.407c-6.578-12.744-19.59-20.593-33.993-20.399c-0.646,0.008-1.247,0.318-1.627,0.839
		c-8.469,11.637-9.642,26.781-3.062,39.525c6.51,12.616,19.335,20.404,33.551,20.404c0.146,0,0.296-0.002,0.443-0.003
		c0.645-0.008,1.247-0.318,1.626-0.84C728.834,422.299,730.008,407.153,723.427,394.407z M723.248,407.094
		c0.012,0.079,0.016,0.158,0.025,0.237c0.185,1.403,0.288,2.813,0.293,4.222c0.002,0.391-0.021,0.78-0.033,1.171
		c-0.011,0.353-0.009,0.706-0.031,1.057c-0.029,0.456-0.085,0.908-0.131,1.361c-0.03,0.286-0.047,0.574-0.083,0.858
		c-0.176,1.346-0.443,2.678-0.782,3.997c-0.032,0.128-0.056,0.259-0.09,0.387c-0.188,0.699-0.402,1.394-0.638,2.082
		c-0.007,0.021-0.013,0.044-0.021,0.065c-0.24,0.703-0.508,1.399-0.796,2.089c-0.002,0.007-0.005,0.016-0.008,0.021
		c-0.877,2.091-1.975,4.113-3.289,6.038c-6.589-0.204-7.537-3.286-9.501-9.679c-0.969-3.154-2.067-6.729-4.121-10.712
		c-1.815-3.518-4.21-6.992-6.522-10.352c-5.726-8.313-10.702-15.54-6.973-21.847c0.631,0.012,1.259,0.052,1.883,0.098
		c0.134,0.01,0.268,0.01,0.399,0.021c0.653,0.056,1.299,0.141,1.942,0.232c0.111,0.017,0.225,0.023,0.335,0.041
		c0.658,0.103,1.309,0.229,1.954,0.37c0.093,0.021,0.188,0.032,0.28,0.053c0.687,0.154,1.364,0.333,2.036,0.528
		c0.05,0.015,0.101,0.024,0.151,0.039c0.65,0.193,1.293,0.411,1.928,0.641c0.068,0.024,0.139,0.043,0.206,0.068
		c0.625,0.23,1.241,0.488,1.851,0.756c0.073,0.032,0.149,0.059,0.223,0.091c0.591,0.265,1.168,0.553,1.74,0.851
		c0.088,0.046,0.18,0.084,0.268,0.13c0.558,0.297,1.104,0.616,1.644,0.944c0.095,0.059,0.195,0.108,0.292,0.167
		c0.488,0.304,0.962,0.629,1.434,0.957c0.14,0.096,0.285,0.183,0.423,0.282c0.471,0.337,0.925,0.698,1.378,1.06
		c0.129,0.104,0.266,0.197,0.394,0.302c0.42,0.347,0.823,0.716,1.228,1.084c0.148,0.135,0.305,0.26,0.451,0.398
		c0.37,0.35,0.722,0.72,1.076,1.087c0.168,0.173,0.343,0.335,0.506,0.512c0.287,0.31,0.557,0.639,0.831,0.96
		c0.215,0.25,0.439,0.492,0.648,0.75c0.267,0.328,0.514,0.677,0.768,1.019c0.2,0.266,0.409,0.523,0.601,0.797
		c0.394,0.559,0.765,1.137,1.125,1.725c0.041,0.066,0.088,0.129,0.128,0.197c0.398,0.658,0.776,1.333,1.133,2.023
		C721.587,399.737,722.731,403.391,723.248,407.094z M688.372,412.501c-4.046-7.836-4.788-16.685-2.393-24.83
		c1.503,4.858,4.862,9.764,8.181,14.584c2.242,3.258,4.561,6.624,6.258,9.909c1.887,3.657,2.929,7.049,3.848,10.041
		c0.716,2.328,1.405,4.54,2.417,6.449C698.89,425.819,692.323,420.161,688.372,412.501z"/>
	<g>
		<path fill="#9E3256" d="M810.544,376.048c7.692,10.569,9.306,24.98,2.898,37.389c-6.404,12.413-19.082,19.444-32.158,19.297
			c-7.693-10.569-9.305-24.979-2.897-37.389C784.792,382.934,797.469,375.903,810.544,376.048z"/>
	</g>
	<g>
		<path fill="#FFCAE8" d="M810.544,376.048c7.692,10.569-6.365,22.773-12.772,35.182c-6.404,12.413-3.412,21.651-16.487,21.504
			c-7.693-10.569-9.305-24.979-2.897-37.389C784.792,382.934,797.469,375.903,810.544,376.048z"/>
	</g>
	<g>
		<path fill="#EFA3CC" d="M810.544,376.048c7.692,10.569-6.365,22.773-12.772,35.182c-6.404,12.413-3.412,21.651-16.487,21.504
			c-7.693-10.569-4.354-15.931,2.053-28.342C789.742,391.979,797.469,375.903,810.544,376.048z"/>
	</g>
	<path fill="#33363A" d="M812.193,374.847c-0.379-0.521-0.981-0.831-1.626-0.839c-14.338-0.184-27.414,7.657-33.992,20.399
		c-6.581,12.747-5.408,27.893,3.061,39.526c0.38,0.521,0.982,0.832,1.627,0.84c0.148,0.001,0.296,0.003,0.443,0.003
		c14.215,0,27.041-7.788,33.55-20.403C821.836,401.63,820.662,386.484,812.193,374.847z M781.332,394.256
		C781.334,394.255,781.334,394.255,781.332,394.256c0.398-0.658,0.817-1.299,1.254-1.923c0.009-0.011,0.019-0.021,0.026-0.034
		c0.869-1.234,1.813-2.401,2.824-3.494c0.009-0.009,0.019-0.017,0.026-0.025c0.503-0.541,1.021-1.066,1.557-1.572
		c0.008-0.007,0.016-0.013,0.022-0.02c0.537-0.505,1.089-0.993,1.658-1.461c0.014-0.012,0.028-0.022,0.043-0.033
		c0.562-0.461,1.138-0.904,1.726-1.327c0.063-0.045,0.13-0.085,0.193-0.13c0.544-0.385,1.097-0.759,1.662-1.109
		c0.101-0.063,0.207-0.116,0.308-0.177c0.534-0.324,1.073-0.641,1.625-0.935c0.128-0.068,0.263-0.125,0.392-0.191
		c0.532-0.273,1.066-0.545,1.615-0.789c0.163-0.073,0.333-0.134,0.496-0.204c0.521-0.223,1.042-0.446,1.575-0.644
		c0.192-0.072,0.393-0.128,0.587-0.195c0.512-0.179,1.023-0.359,1.546-0.513c0.199-0.059,0.405-0.103,0.606-0.158
		c0.523-0.145,1.047-0.291,1.58-0.409c0.207-0.046,0.418-0.076,0.624-0.118c0.535-0.109,1.068-0.221,1.61-0.305
		c0.204-0.031,0.412-0.047,0.618-0.075c0.552-0.074,1.103-0.151,1.661-0.2c0.173-0.015,0.349-0.015,0.522-0.027
		c0.585-0.042,1.171-0.08,1.763-0.092c3.729,6.307-1.247,13.534-6.971,21.849c-2.313,3.36-4.705,6.834-6.521,10.352
		c-2.054,3.98-3.152,7.557-4.121,10.71c-1.964,6.393-2.91,9.476-9.501,9.679c-1.313-1.923-2.411-3.945-3.289-6.036
		c-0.021-0.053-0.039-0.107-0.061-0.16c-3.733-9.02-3.397-19.273,1.213-28.207C780.557,395.589,780.935,394.913,781.332,394.256z
		 M811.63,412.502c-3.952,7.66-10.52,13.318-18.309,16.152c1.012-1.908,1.702-4.121,2.417-6.449
		c0.918-2.992,1.96-6.382,3.848-10.039c1.697-3.287,4.016-6.655,6.257-9.909c3.318-4.82,6.678-9.727,8.181-14.586
		C816.417,395.817,815.674,404.666,811.63,412.502z"/>
	<g>
		<g>
			<path fill="#FFCAE8" d="M816.929,448.218c0,28.121-29.965,50.923-66.928,50.923c-36.965,0-66.929-22.803-66.929-50.923
				c0-28.127,29.964-61.828,66.929-61.828C786.965,386.39,816.929,420.092,816.929,448.218z"/>
		</g>
		<g>
			<path fill="#EFA3CC" d="M816.929,448.218c0,28.121-29.965,50.923-66.928,50.923c-36.965,0-66.929-22.803-66.929-50.923
				c0-28.127,29.964-47.505,66.929-47.505C786.965,400.713,816.929,420.092,816.929,448.218z"/>
		</g>
		<g>
			<path fill="#EA81BD" d="M816.929,448.218c0,28.121-29.965,50.923-66.928,50.923c-36.965,0-66.929-22.803-66.929-50.923
				c0-28.129,8.516,24.943,66.929,24.943C808.413,473.16,816.929,420.089,816.929,448.218z"/>
		</g>
		<g>
			<path fill="#33363A" d="M750.002,501.181c-38.029,0-68.969-23.76-68.969-52.963c0-28.929,30.765-63.868,68.969-63.868
				c38.203,0,68.968,34.939,68.968,63.868C818.969,477.421,788.03,501.181,750.002,501.181z M750.002,388.43
				c-35.944,0-64.889,32.707-64.889,59.788c0,26.954,29.108,48.883,64.889,48.883c35.779,0,64.888-21.929,64.888-48.883
				C814.889,421.136,785.945,388.43,750.002,388.43z"/>
		</g>
	</g>
	<g>
		<path fill="#14A594" d="M728.019,445.281c0,6.051-4.903,10.95-10.952,10.95c-6.047,0-10.95-4.899-10.95-10.95
			c0-6.048,4.901-10.95,10.95-10.95C723.116,434.333,728.019,439.234,728.019,445.281z"/>
	</g>
	<g>
		<circle fill="#FFFFFF" cx="711.623" cy="441.722" r="4.462"/>
	</g>
	<path fill="#33363A" d="M717.067,432.293c-4.405,0-8.3,2.208-10.649,5.571c-0.151,0.204-0.284,0.418-0.411,0.64
		c-1.216,1.977-1.93,4.292-1.93,6.777c0,7.163,5.828,12.99,12.99,12.99c7.165,0,12.993-5.827,12.993-12.99
		C730.06,438.117,724.232,432.293,717.067,432.293z M717.067,454.192c-3.701,0-6.88-2.269-8.224-5.487
		c0.936-0.024,2.074-0.271,3.357-0.538c0.457-0.041,0.897-0.127,1.323-0.259c1.112-0.201,2.301-0.363,3.544-0.363
		c3.282,0,6.219,1.106,8.226,1.16C723.949,451.923,720.769,454.192,717.067,454.192z"/>
	<circle fill="#FFFFFF" cx="711.621" cy="441.724" r="2.421"/>
	<g>
		<path fill="#14A594" d="M793.885,445.281c0,6.051-4.902,10.95-10.95,10.95c-6.049,0-10.951-4.899-10.951-10.95
			c0-6.048,4.901-10.95,10.951-10.95C788.981,434.333,793.885,439.234,793.885,445.281z"/>
	</g>
	<g>
		<circle fill="#FFFFFF" cx="777.487" cy="441.722" r="4.461"/>
	</g>
	<path fill="#33363A" d="M782.934,432.293c-4.407,0-8.301,2.208-10.651,5.571c-0.15,0.204-0.284,0.418-0.41,0.64
		c-1.216,1.977-1.93,4.292-1.93,6.777c0,7.163,5.827,12.99,12.991,12.99c7.162,0,12.99-5.827,12.99-12.99
		C795.925,438.117,790.096,432.293,782.934,432.293z M782.934,454.192c-3.701,0-6.881-2.269-8.225-5.487
		c0.936-0.024,2.074-0.271,3.356-0.538c0.457-0.041,0.896-0.127,1.321-0.257c1.113-0.201,2.304-0.365,3.547-0.365
		c3.28,0,6.217,1.106,8.223,1.16C789.813,451.923,786.635,454.192,782.934,454.192z"/>
	<circle fill="#FFFFFF" cx="777.487" cy="441.724" r="2.421"/>
	<g>
		<path fill="#FFCAE8" d="M760.288,447.809c0,1.376-4.63,1.622-10.345,1.622c-5.713,0-10.344-0.247-10.344-1.622
			c0-1.374,4.631-4.97,10.344-4.97C755.657,442.837,760.288,446.435,760.288,447.809z"/>
	</g>
	<g>
		<path fill="#9E3256" d="M737.902,458.845c0,6.681,5.416,12.099,12.098,12.099c6.684,0,12.101-5.416,12.101-12.099H737.902z"/>
	</g>
	<g>
		<path fill="#33363A" d="M750,472.982c-7.796,0-14.139-6.342-14.139-14.138c0-1.126,0.912-2.04,2.039-2.04h24.199
			c1.127,0,2.04,0.914,2.04,2.04C764.14,466.64,757.798,472.982,750,472.982z M740.149,460.885c0.945,4.57,5.003,8.019,9.851,8.019
			s8.906-3.447,9.853-8.019H740.149z"/>
	</g>
	<g>
		<circle fill="#FFCAE8" cx="750" cy="402.177" r="26.127"/>
	</g>
	<g>
		<circle fill="#EFA3CC" cx="750" cy="412.517" r="26.127"/>
	</g>
	<path fill="#33363A" d="M750.002,374.008c-7.262,0-13.869,2.785-18.87,7.314c-0.138,0.076-0.282,0.132-0.402,0.242
		c-11.343,10.393-12.116,28.077-1.727,39.423c4.104,4.477,9.704,7.088,15.771,7.354c0.342,0.015,0.682,0.022,1.02,0.022
		c5.696,0,11.108-2.102,15.332-5.974c3.662-3.354,5.799-7.933,6.015-12.895c0.218-4.963-1.513-9.715-4.869-13.378
		c-5.693-6.213-15.381-6.637-21.595-0.945c-5.136,4.714-5.486,12.724-0.782,17.859c0.762,0.83,2.052,0.89,2.882,0.125
		c0.831-0.762,0.887-2.051,0.127-2.882c-3.186-3.477-2.948-8.901,0.53-12.094c4.556-4.172,11.658-3.858,15.829,0.695
		c2.621,2.86,3.971,6.567,3.802,10.442c-0.169,3.873-1.836,7.447-4.694,10.064c-3.673,3.366-8.436,5.095-13.418,4.883
		c-4.979-0.219-9.574-2.361-12.941-6.034c-4.018-4.388-6.06-9.884-6.215-15.41c0.069-0.204,0.114-0.42,0.114-0.647
		c0-13.282,10.806-24.089,24.089-24.089c13.28,0,24.085,10.807,24.085,24.089c0,1.126,0.913,2.04,2.04,2.04
		c1.128,0,2.04-0.914,2.04-2.04C778.168,386.645,765.532,374.008,750.002,374.008z"/>
</g>
</svg>
