<?xml version="1.0" encoding="utf-8"?>
<!-- Generator: Adobe Illustrator 16.0.0, SVG Export Plug-In . SVG Version: 6.00 Build 0)  -->
<!DOCTYPE svg PUBLIC "-//W3C//DTD SVG 1.1//EN" "http://www.w3.org/Graphics/SVG/1.1/DTD/svg11.dtd">
<svg version="1.1" id="Calque_1" xmlns="http://www.w3.org/2000/svg" xmlns:xlink="http://www.w3.org/1999/xlink" x="0px" y="0px"
	 width="99px" height="100px" viewBox="0 0 99 100" enable-background="new 0 0 99 100" xml:space="preserve">
<g>
	<polygon fill="#E95723" points="34.285,11.645 32.27,12.764 32.27,10.748 12.105,10.748 2.021,28.896 4.039,28.896 34.285,28.896 	
		"/>
	<polygon fill="#E95723" points="88.729,10.748 68.564,10.748 68.564,12.764 66.549,11.645 66.549,28.896 96.795,28.896 
		98.813,28.896 	"/>
	<path fill="#B6B6B5" d="M34.285,28.896H4.039v60.492h30.246V28.896z M26.219,65.191v4.033v2.018v8.064v2.018h-2.016H14.121h-2.018
		v-2.018v-8.064v-2.018v-4.033v-2.016h2.018h10.082h2.016V65.191z M26.219,38.979v4.033v2.016v8.066v2.016h-2.016H14.121h-2.018
		v-2.016v-8.066v-2.016v-4.033v-2.018h2.018h10.082h2.016V38.979z"/>
	<path fill="#B6B6B5" d="M66.549,89.389h30.246V28.896H66.549V89.389z M74.615,53.094v-8.066v-2.016v-4.033v-2.018h2.016h10.082
		h2.018v2.018v4.033v2.016v8.066v2.016h-2.018H76.631h-2.016V53.094z M74.615,79.307v-8.064v-2.018v-4.033v-2.016h2.016h10.082
		h2.018v2.016v4.033v2.018v8.064v2.018h-2.018H76.631h-2.016V79.307z"/>
	<path fill="#F2F2F2" d="M34.285,11.645v17.252v60.492h8.066V65.191h16.131v24.197h8.066V28.896V11.645L50.416,2.682L34.285,11.645z
		 M58.482,38.979v4.033v2.016v8.066v2.016h-2.016h-2.018H44.367h-2.016v-2.016v-8.066v-2.016v-4.033v-2.018h2.016h12.1h2.016V38.979
		z M56.467,20.83c0,3.342-2.709,6.049-6.051,6.049c-3.34,0-6.049-2.707-6.049-6.049s2.709-6.049,6.049-6.049
		C53.758,14.781,56.467,17.49,56.467,20.83z"/>
	<polygon fill="#A6DAF2" points="14.121,53.094 22.188,53.094 14.121,45.027 	"/>
	<polygon fill="#A6DAF2" points="22.188,53.094 24.203,53.094 24.203,45.027 14.121,45.027 	"/>
	<rect x="14.121" y="38.979" fill="#A6DAF2" width="10.082" height="4.033"/>
	<path fill="#14B4BE" d="M14.121,36.961h-2.018v2.018v4.033v2.016v8.066v2.016h2.018h10.082h2.016v-2.016v-8.066v-2.016v-4.033
		v-2.018h-2.016H14.121z M24.203,53.094h-2.016h-8.066v-8.066h10.082V53.094z M24.203,43.012H14.121v-4.033h10.082V43.012z"/>
	<polygon fill="#A6DAF2" points="44.367,53.094 52.434,53.094 44.367,45.027 	"/>
	<rect x="44.367" y="38.979" fill="#A6DAF2" width="12.1" height="4.033"/>
	<polygon fill="#A6DAF2" points="44.367,45.027 52.434,53.094 56.467,53.094 56.467,45.027 54.449,45.027 	"/>
	<path fill="#14B4BE" d="M44.367,36.961h-2.016v2.018v4.033v2.016v8.066v2.016h2.016h10.082h2.018h2.016v-2.016v-8.066v-2.016
		v-4.033v-2.018h-2.016H44.367z M56.467,53.094h-4.033h-8.066v-8.066h10.082h2.018V53.094z M56.467,43.012h-12.1v-4.033h12.1V43.012
		z"/>
	<polygon fill="#14B4BE" points="58.482,65.191 42.352,65.191 42.352,89.389 42.352,97.455 58.482,97.455 58.482,89.389 	"/>
	<rect x="4.039" y="89.389" fill="#E95723" width="30.246" height="8.066"/>
	<rect x="66.549" y="89.389" fill="#E95723" width="30.246" height="8.066"/>
	<rect x="58.482" y="89.389" fill="#E95723" width="8.066" height="8.066"/>
	<rect x="34.285" y="89.389" fill="#E95723" width="8.066" height="8.066"/>
	<polygon fill="#E95723" points="34.285,11.645 50.416,2.682 66.549,11.645 68.564,12.764 68.564,10.748 68.564,8.732 
		50.416,-1.352 32.27,8.732 32.27,10.748 32.27,12.764 	"/>
	<path fill="#14B4BE" d="M44.367,20.83c0,3.342,2.709,6.049,6.049,6.049c3.342,0,6.051-2.707,6.051-6.049s-2.709-6.049-6.051-6.049
		C47.076,14.781,44.367,17.49,44.367,20.83z M54.449,20.83c0,2.227-1.805,4.033-4.033,4.033c-2.227,0-4.031-1.805-4.031-4.033
		c0-1.457,0.775-2.73,1.934-3.439c0.613-0.375,1.328-0.594,2.098-0.594C52.645,16.797,54.449,18.604,54.449,20.83z"/>
	<path fill="#A6DAF2" d="M47.566,17.979c0.225-0.225,0.479-0.42,0.752-0.588c-1.158,0.709-1.934,1.982-1.934,3.439
		c0,2.227,1.805,4.033,4.031,4.033c2.229,0,4.033-1.805,4.033-4.033c0,1.113-0.451,2.121-1.182,2.852L47.566,17.979z"/>
	<path fill="#A5D8E5" d="M54.449,20.83c0-2.227-1.805-4.033-4.033-4.033C52.645,16.797,54.449,18.604,54.449,20.83z"/>
	<path fill="#A6DAF2" d="M50.416,16.797c-0.77,0-1.484,0.219-2.098,0.594c-0.273,0.168-0.527,0.363-0.752,0.588l5.701,5.703
		c0.73-0.73,1.182-1.738,1.182-2.852C54.449,18.604,52.645,16.797,50.416,16.797z"/>
	<polygon fill="#A6DAF2" points="76.631,45.027 76.631,53.094 84.697,53.094 	"/>
	<polygon fill="#A6DAF2" points="86.713,53.094 86.713,45.027 76.631,45.027 84.697,53.094 	"/>
	<rect x="76.631" y="38.979" fill="#A6DAF2" width="10.082" height="4.033"/>
	<path fill="#14B4BE" d="M86.713,55.109h2.018v-2.016v-8.066v-2.016v-4.033v-2.018h-2.018H76.631h-2.016v2.018v4.033v2.016v8.066
		v2.016h2.016H86.713z M76.631,38.979h10.082v4.033H76.631V38.979z M76.631,45.027h10.082v8.066h-2.016h-8.066V45.027L76.631,45.027
		z"/>
	<polygon fill="#A6DAF2" points="14.121,79.307 22.188,79.307 14.121,71.242 	"/>
	<polygon fill="#A6DAF2" points="22.188,79.307 24.203,79.307 24.203,71.242 14.121,71.242 	"/>
	<rect x="14.121" y="65.191" fill="#A6DAF2" width="10.082" height="4.033"/>
	<path fill="#14B4BE" d="M14.121,63.176h-2.018v2.016v4.033v2.018v8.064v2.018h2.018h10.082h2.016v-2.018v-8.064v-2.018v-4.033
		v-2.016h-2.016H14.121z M24.203,79.307h-2.016h-8.066v-8.064h10.082V79.307z M24.203,69.225H14.121v-4.033h10.082V69.225z"/>
	<polygon fill="#A6DAF2" points="76.631,71.242 76.631,79.307 84.697,79.307 	"/>
	<polygon fill="#A6DAF2" points="86.713,79.307 86.713,71.242 76.631,71.242 84.697,79.307 	"/>
	<rect x="76.631" y="65.191" fill="#6FB0E1" width="10.082" height="4.033"/>
	<path fill="#14B4BE" d="M86.713,81.324h2.018v-2.018v-8.064v-2.018v-4.033v-2.016h-2.018H76.631h-2.016v2.016v4.033v2.018v8.064
		v2.018h2.016H86.713z M76.631,65.191h10.082v4.033H76.631V65.191z M76.631,71.242h10.082v8.064h-2.016h-8.066V71.242L76.631,71.242
		z"/>
</g>
</svg>
