<?xml version="1.0" encoding="utf-8"?>
<!-- Generator: Adobe Illustrator 16.0.0, SVG Export Plug-In . SVG Version: 6.00 Build 0)  -->
<!DOCTYPE svg PUBLIC "-//W3C//DTD SVG 1.1//EN" "http://www.w3.org/Graphics/SVG/1.1/DTD/svg11.dtd">
<svg version="1.1" xmlns="http://www.w3.org/2000/svg" xmlns:xlink="http://www.w3.org/1999/xlink" x="0px" y="0px" width="960px"
	 height="502px" viewBox="0 0 960 502" enable-background="new 0 0 960 502" xml:space="preserve">
<g id="Fond005">
	<g>
		<path fill="#E5E6E5" d="M248.714,72.345l-19.378,36.913l-38.098-72.4c-1.612-3.06-5.992-3.05-7.595,0.014L45.435,301.773h331.322
			L256.306,72.345C254.696,69.288,250.319,69.288,248.714,72.345z"/>
		<path fill="#C6C5C6" d="M376.757,301.773L256.306,72.345c-1.609-3.058-5.986-3.058-7.592,0l-19.378,36.913l101.307,192.516
			H376.757z"/>
		<path fill="#E5E6E5" d="M234.085,119.043l-14.046,14.042c-1.671,1.675-4.383,1.675-6.059,0l-11.688-11.688
			c-1.673-1.673-4.387-1.673-6.06,0l-23.522,23.521c-1.673,1.673-4.387,1.673-6.062,0l-25.874-25.875l42.854-82.141
			c1.604-3.069,5.997-3.069,7.602,0L234.085,119.043z"/>
		<path fill="#C6C5C6" d="M280.82,119.043l-14.046,14.042c-1.672,1.675-4.386,1.675-6.059,0l-11.691-11.688
			c-1.668-1.673-4.385-1.673-6.058,0l-5.028,5.028l-8.867-16.998l19.633-37.121c1.615-3.048,5.982-3.038,7.582,0.01L280.82,119.043z
			"/>
	</g>
	<g>
		<path fill="#E5E6E5" d="M509.657,52.409l-20.961,39.925l-41.208-78.309c-1.741-3.309-6.479-3.299-8.212,0.016L289.784,300.562
			H648.15L517.868,52.409C516.127,49.102,511.394,49.102,509.657,52.409z"/>
		<path fill="#C6C5C6" d="M648.15,300.562L517.868,52.409c-1.741-3.307-6.475-3.307-8.211,0l-20.961,39.925l109.576,208.228H648.15z
			"/>
		<path fill="#E5E6E5" d="M493.835,102.918l-15.191,15.187c-1.809,1.813-4.742,1.813-6.554,0l-12.642-12.641
			c-1.813-1.811-4.747-1.811-6.556,0l-25.442,25.44c-1.809,1.81-4.747,1.81-6.556,0l-27.986-27.987l46.354-88.846
			c1.731-3.32,6.484-3.32,8.215,0L493.835,102.918z"/>
		<path fill="#C6C5C6" d="M544.381,102.918l-15.19,15.187c-1.81,1.813-4.744,1.813-6.553,0l-12.645-12.641
			c-1.808-1.811-4.742-1.811-6.555,0l-5.438,5.438l-9.589-18.385l21.235-40.151c1.746-3.297,6.47-3.288,8.202,0.012L544.381,102.918
			z"/>
	</g>
	<g>
		<path fill="#D3D2D2" d="M864.878,171.93c5.884,0,10.221-1.951,9.119-4.044c-5.222-9.917-29.292-17.41-58.19-17.41
			c-9.676,0-18.813,0.841-26.878,2.331c-3.933,0.726-8.7,0.44-11.949-0.642c-13.178-4.38-30.741-7.055-50.033-7.055
			c-37.295,0-68.149,9.984-73.297,22.975c-0.805,2.027,3.563,3.845,9.22,3.845H864.878z"/>
		<path fill="#D3D2D2" d="M895.162,64.559c2,0,3.566-1.831,3.212-3.838c-1.772-10.02-10.353-17.616-20.671-17.616
			c-3.43,0-6.67,0.844-9.53,2.331c-1.395,0.728-3.082,0.44-4.236-0.64c-4.672-4.38-10.899-7.055-17.739-7.055
			c-13.242,0-24.191,10.013-25.994,23.028c-0.278,2,1.244,3.789,3.222,3.789H895.162z"/>
	</g>
	<rect x="-2.11" y="294.49" fill="#D3D2D2" width="965.604" height="227.294"/>
	<g>
		<path fill="#14B4BE" d="M193.79,414.563c-8.934,7.99-14.556,20.079-17.721,30.6c3.522,11.697,4.331,21.447,4.331,21.447h5.872
			c0-25.906,5.981-43.027,9.393-50.687C196.186,414.76,194.742,413.715,193.79,414.563z"/>
		<path fill="#14B4BE" d="M177.445,440.954c-0.501,1.421-0.96,2.826-1.376,4.208c3.522,11.697,4.331,21.447,4.331,21.447h2.738
			C183.139,466.609,182.126,454.422,177.445,440.954z"/>
		<path fill="#14B4BE" d="M185.937,466.609c0,0,2.168-26.146,16.196-38.681c0.709-0.632,1.778,0.145,1.392,1.011
			c-2.533,5.691-6.979,18.415-6.979,37.67H185.937L185.937,466.609z"/>
		<path fill="#14B4BE" d="M203.524,428.939c0.387-0.866-0.683-1.643-1.392-1.011c-14.028,12.534-16.196,38.681-16.196,38.681h3.059
			c0,0,1.947-23.432,14.052-36.563C203.213,429.651,203.373,429.283,203.524,428.939z"/>
		<path fill="#14B4BE" d="M196.948,466.609c0,0,1.44-17.359,10.755-25.685c0.47-0.419,1.182,0.099,0.926,0.672
			c-1.686,3.779-4.635,12.228-4.635,25.013H196.948z"/>
		<path fill="#14B4BE" d="M208.629,441.597c0.256-0.579-0.456-1.091-0.926-0.672c-9.314,8.325-10.755,25.685-10.755,25.685h2.603
			c0,0,1.177-14.148,8.257-23.026C208.101,442.82,208.378,442.156,208.629,441.597z"/>
		<path fill="#14B4BE" d="M180.661,466.609c0,0-2.92-35.177-21.791-52.047c-0.954-0.848-2.395,0.197-1.877,1.36
			c3.413,7.659,9.393,24.78,9.393,50.687H180.661L180.661,466.609z"/>
		<path fill="#14B4BE" d="M159.66,415.293c-0.262-0.248-0.523-0.49-0.79-0.73c-0.954-0.848-2.395,0.197-1.877,1.36
			c3.413,7.659,9.393,24.78,9.393,50.687h2.769c0-25.906-5.979-43.027-9.394-50.687C159.665,415.704,159.636,415.49,159.66,415.293z
			"/>
		<path fill="#14B4BE" d="M166.722,466.609c0,0-2.168-26.146-16.193-38.681c-0.709-0.632-1.781,0.145-1.395,1.011
			c2.536,5.691,6.979,18.415,6.979,37.67H166.722L166.722,466.609z"/>
		<path fill="#14B4BE" d="M150.528,427.929c-0.709-0.632-1.781,0.145-1.395,1.011c2.536,5.691,6.979,18.415,6.979,37.67h2.735
			c0-18.729-4.208-31.28-6.768-37.188C151.579,428.905,151.062,428.406,150.528,427.929z"/>
		<path fill="#14B4BE" d="M155.713,466.609c0,0-1.44-17.359-10.753-25.685c-0.475-0.419-1.184,0.099-0.928,0.672
			c1.686,3.779,4.635,12.228,4.635,25.013H155.713z"/>
		<g>
			<path fill="#14B4BE" d="M144.96,440.925c-0.475-0.419-1.184,0.099-0.928,0.672c1.686,3.779,4.635,12.228,4.635,25.013h2.638
				c0-10.822-2.115-18.538-3.784-22.94C146.739,442.68,145.888,441.759,144.96,440.925z"/>
			<path fill="#14B4BE" d="M206.898,467.585h-61.029c-0.538,0-0.979-0.438-0.979-0.976c0-0.539,0.44-0.977,0.979-0.977h61.029
				c0.538,0,0.976,0.438,0.976,0.977C207.874,467.147,207.439,467.585,206.898,467.585z"/>
		</g>
	</g>
	<g>
		<path fill="#EF805E" d="M1104.579,131.821L1104.579,131.821c4.097-5.741,6.534-12.748,6.534-20.339
			c0-19.373-15.707-35.08-35.08-35.08c-0.287,0-0.565,0.037-0.852,0.043c-5.982-9.197-16.335-15.293-28.127-15.293
			c-13.68,0-25.426,8.197-30.65,19.938c-20.965,5.476-36.457,24.487-36.457,47.169c0,12.468,4.717,23.811,12.412,32.438
			c-0.136,1.373-0.211,2.76-0.211,4.165c0,23.586,19.118,42.705,42.703,42.705c2.572,0,12.809-0.229,15.253-0.667l1.032-10.57
			c6.044,3.275,12.963,5.138,20.32,5.138c23.586,0,42.706-19.121,42.706-42.706C1114.163,148.545,1110.563,139.17,1104.579,131.821z
			"/>
		<path fill="#E95723" d="M1050.104,191.514c-4.895,1.265-10.314,1.223-16.104-1.514c-7.847-3.705-13.531-11.235-14.301-19.877
			c-0.302-3.395,0.103-6.654,1.068-9.662c0.381-1.186-0.109-2.441-1.07-3.23c-7.498-6.15-12.298-15.466-12.298-25.924
			c0-13.565,8.069-25.22,19.657-30.504c1.21-0.551,1.99-1.754,1.855-3.076c-0.099-0.994-0.16-2.002-0.16-3.021
			c0-15.891,11.06-29.171,25.892-32.642c-2.442-0.569-4.972-0.911-7.589-0.911c-13.68,0-25.426,8.197-30.65,19.938
			c-20.965,5.476-36.457,24.487-36.457,47.169c0,12.468,4.717,23.811,12.412,32.438c-0.136,1.373-0.211,2.76-0.211,4.165
			c0,23.586,19.118,42.705,42.703,42.705c2.572,0,12.809-0.229,15.253-0.667v-9.32V191.514L1050.104,191.514L1050.104,191.514z"/>
		<path fill="#D3D2D2" d="M1044.007,192.32c-0.097,0-0.19-0.016-0.288-0.018l-2.764,58.051h18.324l-2.705-56.799
			c-0.098-2.035-2.132-3.502-4.039-2.785C1049.883,191.768,1047.013,192.32,1044.007,192.32z"/>
		<path fill="#969596" d="M1056.574,193.555c-0.098-2.035-2.132-3.502-4.039-2.785c-2.652,0.998-5.522,1.551-8.528,1.551
			c-0.097,0-0.19-0.016-0.288-0.018l-2.764,58.051h9.162V200.63c0-1.315,0.843-2.485,2.089-2.899l4.497-1.5L1056.574,193.555z"/>
		<path fill="#14B4BE" d="M1065.357,253.323h-30.503c-1.685,0-3.05-1.365-3.05-3.053c0-1.685,1.365-3.05,3.05-3.05h30.503
			c1.684,0,3.05,1.365,3.05,3.05C1068.407,251.958,1067.041,253.323,1065.357,253.323z"/>
	</g>
	<path fill="#F3F3F3" d="M1150.19,310.231l-1256.979-1.645c-56.229,1.406-54.823,98.401,0,94.185l1256.979,8.647"/>
	<g>
		<g>
			<line fill="none" stroke="#E95723" stroke-miterlimit="10" x1="-76.441" y1="359.233" x2="-70.441" y2="359.233"/>
			
				<line fill="none" stroke="#E95723" stroke-miterlimit="10" stroke-dasharray="12.1252,12.1252" x1="-58.316" y1="359.233" x2="1026.893" y2="359.233"/>
			<line fill="none" stroke="#E95723" stroke-miterlimit="10" x1="1032.955" y1="359.233" x2="1038.955" y2="359.233"/>
		</g>
	</g>
	<g>
		<path fill="#D3D2D2" d="M106.032,226.495v60.549H70.851v-60.549c0-3.287,2.581-5.868,5.862-5.868h23.457
			C103.451,220.627,106.032,223.208,106.032,226.495z"/>
		<path fill="#969596" d="M106.032,226.495v60.549H88.441v-66.417h11.729C103.451,220.627,106.032,223.208,106.032,226.495z"/>
		<path fill="#EF805E" d="M152.702,230.949c-0.817,2.465-3.05,4.105-5.625,4.105h-20.639c-7.625,0-14.897-1.757-21.577-5.045
			c-5.984,8.327-11.848,14.66-12.198,14.892c-1.056,1.177-2.577,1.879-4.222,1.879c-1.644,0-3.169-0.702-4.225-1.879
			c-0.351-0.231-6.213-6.564-12.192-14.892c-6.686,3.288-13.954,5.045-21.577,5.045H29.809c-2.583,0-4.808-1.641-5.631-4.105
			c-0.704-2.58,0.234-5.161,2.346-6.686c14.895-9.848,27.324-22.512,37.055-37.409h49.723c9.734,14.897,22.164,27.562,37.056,37.409
			C152.467,225.788,153.406,228.369,152.702,230.949z"/>
		<path fill="#EF805E" d="M152.702,230.949c-0.817,2.465-3.05,4.105-5.625,4.105h-20.639c-7.625,0-14.897-1.757-21.577-5.045
			c-5.984,8.327-11.848,14.66-12.198,14.892c-1.056,1.177-2.577,1.879-4.222,1.879v-59.926h24.859
			c9.734,14.897,22.164,27.562,37.056,37.409C152.467,225.788,153.406,228.369,152.702,230.949z"/>
		<path fill="#E95723" d="M152.702,195.768c-0.817,2.464-3.05,4.105-5.625,4.105h-20.639c-7.625,0-14.897-1.758-21.577-5.045
			c-5.984,8.327-11.848,14.659-12.198,14.896c-1.056,1.172-2.577,1.874-4.222,1.874c-1.644,0-3.169-0.702-4.225-1.874
			c-0.351-0.237-6.213-6.569-12.192-14.896c-6.686,3.287-13.954,5.045-21.577,5.045H29.809c-2.583,0-4.808-1.642-5.631-4.105
			c-0.704-2.575,0.234-5.161,2.346-6.687c13.721-9.023,25.33-20.517,34.71-33.889h54.413c9.383,13.372,20.992,24.865,34.713,33.889
			C152.467,190.606,153.406,193.192,152.702,195.768z"/>
		<path fill="#E95723" d="M152.702,195.768c-0.817,2.464-3.05,4.105-5.625,4.105h-20.639c-7.625,0-14.897-1.758-21.577-5.045
			c-5.984,8.327-11.848,14.659-12.198,14.896c-1.056,1.172-2.577,1.874-4.222,1.874v-56.406h27.205
			c9.383,13.372,20.992,24.865,34.71,33.889C152.467,190.606,153.406,193.192,152.702,195.768z"/>
		<path fill="#EF805E" d="M137.927,153.551c-13.955-6.918-25.562-18.527-32.483-32.479L93.716,97.066
			c-1.053-1.989-3.163-3.045-5.274-3.045c-2.107,0-4.225,1.056-5.279,3.045l-11.727,24.005
			c-6.918,13.952-18.527,25.562-32.479,32.479c-2.464,1.288-3.757,3.99-3.169,6.57c0.705,2.696,3.051,4.575,5.747,4.575h20.638
			c4.811,0,9.381-1.177,13.486-3.287c3.752,7.741,8.208,12.78,8.443,13.018c1.055,1.288,2.696,1.995,4.34,1.995
			c1.645,0,3.282-0.707,4.338-1.995c0.234-0.237,4.691-5.276,8.445-13.018c4.104,2.11,8.676,3.287,13.488,3.287h20.636
			c2.699,0,5.042-1.879,5.744-4.575C141.679,157.541,140.391,154.839,137.927,153.551z"/>
		<path fill="#EF805E" d="M92.779,174.427c-1.056,1.288-2.693,1.995-4.338,1.995v-82.4c2.111,0,4.222,1.056,5.274,3.045
			l11.728,24.005c6.922,13.952,18.528,25.562,32.483,32.479c2.464,1.288,3.752,3.99,3.166,6.57
			c-0.702,2.696-3.045,4.575-5.744,4.575h-20.636c-4.813,0-9.385-1.177-13.488-3.287C97.471,169.15,93.014,174.189,92.779,174.427z"
			/>
		<path fill="#14B4BE" d="M141.215,288.215c0,1.642-0.708,3.051-1.764,4.106c-1.055,1.055-2.464,1.757-4.103,1.757H41.534
			c-1.644,0-3.048-0.702-4.103-1.757c-1.061-1.056-1.764-2.465-1.764-4.106c0-1.641,0.703-3.05,1.764-4.105
			c1.055-1.055,2.459-1.757,4.103-1.757h93.814c1.639,0,3.048,0.702,4.103,1.757C140.507,285.165,141.215,286.574,141.215,288.215z"
			/>
		<path fill="#14B4BE" d="M139.451,284.109c1.056,1.056,1.764,2.465,1.764,4.105c0,1.642-0.708,3.051-1.764,4.106
			c-1.055,1.055-2.464,1.757-4.103,1.757H88.441v-11.726h46.907C136.987,282.353,138.396,283.055,139.451,284.109z"/>
	</g>
	<g>
		<path fill="#D3D2D2" d="M235.721,79.722c5.884,0,10.221-1.951,9.119-4.044c-5.222-9.917-29.292-17.41-58.19-17.41
			c-9.676,0-18.813,0.841-26.878,2.331c-3.933,0.726-8.7,0.44-11.949-0.642c-13.178-4.38-30.741-7.055-50.033-7.055
			c-37.295,0-68.149,9.984-73.297,22.975c-0.805,2.027,3.563,3.845,9.22,3.845H235.721z"/>
		<path fill="#D3D2D2" d="M425.573,98.803c2,0,3.566-1.831,3.212-3.838c-1.772-10.02-10.353-17.616-20.671-17.616
			c-3.43,0-6.67,0.844-9.53,2.331c-1.395,0.728-3.082,0.44-4.236-0.64c-4.672-4.38-10.899-7.055-17.739-7.055
			c-13.242,0-24.191,10.013-25.994,23.028c-0.278,2,1.244,3.789,3.222,3.789H425.573z"/>
	</g>
</g>
<g id="Maison005" display="none">
	<g display="inline">
		<polygon fill="#14B4BE" points="447.138,130.619 205.598,130.619 234.28,51.616 418.453,51.616 		"/>
		<polygon id="Mur005_1_" fill="#FFFFFF" points="314,131 314,140.682 268.857,96.088 233.891,131 228,131 228,136.203 224,140.682 
			224,293 314,293 314,269 424,269 424,131 		"/>
		<path fill="#B6B6B5" d="M294.664,269h-51.325v-71.955h50.823V269H294.664z"/>
		<rect x="250.382" y="203.586" fill="#14B4BE" width="37.238" height="58.371"/>
		<rect x="346.497" y="207.107" fill="#14B4BE" width="46.292" height="46.295"/>
		<rect x="352.532" y="213.65" fill="#B6B6B5" width="33.717" height="33.713"/>
		<rect x="346.497" y="146.218" fill="#14B4BE" width="46.292" height="46.298"/>
		<rect x="352.532" y="152.259" fill="#B6B6B5" width="33.717" height="33.713"/>
		<rect x="205.598" y="269" fill="#14B4BE" width="241.54" height="24.156"/>
		<circle fill="#14B4BE" cx="269.003" cy="148.735" r="20.632"/>
		<path fill="#B6B6B5" d="M269.003,162.824c-8.053,0-14.089-6.54-14.089-14.089c0-8.053,6.54-14.089,14.089-14.089
			c8.051,0,14.09,6.542,14.09,14.089C283.093,156.788,277.054,162.824,269.003,162.824z"/>
		<path fill="#6BC3CE" d="M329.387,125.589l-52.838-52.84c-4.024-4.022-11.069-4.022-15.095,0l-52.838,52.84
			c-4.025,4.025-4.025,11.071,0,15.093c4.027,4.028,11.07,4.028,15.098,0l45.289-45.285l45.288,45.285
			c4.025,4.028,11.07,4.028,15.096,0C333.412,136.66,333.412,129.614,329.387,125.589z"/>
	</g>
</g>
</svg>
