<?xml version="1.0" encoding="utf-8"?>
<!-- Generator: Adobe Illustrator 16.0.0, SVG Export Plug-In . SVG Version: 6.00 Build 0)  -->
<!DOCTYPE svg PUBLIC "-//W3C//DTD SVG 1.1//EN" "http://www.w3.org/Graphics/SVG/1.1/DTD/svg11.dtd">
<svg version="1.1" id="Calque_1" xmlns="http://www.w3.org/2000/svg" xmlns:xlink="http://www.w3.org/1999/xlink" x="0px" y="0px"
	 width="263px" height="144px" viewBox="0 0 263 144" enable-background="new 0 0 263 144" xml:space="preserve">
<g>
	<path fill="#E5E6E5" d="M89.457,42.09L81.46,57.323L65.737,27.445c-0.665-1.263-2.473-1.259-3.134,0.006L5.566,136.771h136.732
		L92.59,42.09C91.926,40.828,90.119,40.828,89.457,42.09z"/>
	<path fill="#C6C5C6" d="M142.299,136.771L92.59,42.09c-0.664-1.262-2.471-1.262-3.133,0L81.46,57.323l41.808,79.448H142.299z"/>
	<path fill="#E5E6E5" d="M83.42,61.361l-5.797,5.795c-0.689,0.691-1.809,0.691-2.5,0L70.3,62.333c-0.69-0.69-1.811-0.69-2.501,0
		l-9.707,9.707c-0.69,0.69-1.811,0.69-2.502,0L44.912,61.361l17.686-33.898c0.662-1.267,2.475-1.267,3.137,0L83.42,61.361z"/>
	<path fill="#C6C5C6" d="M102.707,61.361l-5.797,5.795c-0.689,0.691-1.81,0.691-2.5,0l-4.825-4.823c-0.688-0.69-1.81-0.69-2.5,0
		l-2.075,2.075l-3.659-7.015l8.103-15.319c0.666-1.258,2.469-1.254,3.129,0.004L102.707,61.361z"/>
</g>
<g>
	<path fill="#E5E6E5" d="M197.145,33.862l-8.65,16.477l-17.006-32.317c-0.719-1.366-2.674-1.362-3.389,0.006l-61.693,118.243
		h147.893L200.533,33.862C199.814,32.498,197.861,32.498,197.145,33.862z"/>
	<path fill="#C6C5C6" d="M254.299,136.271L200.533,33.862c-0.719-1.365-2.672-1.365-3.389,0l-8.65,16.477l45.221,85.933H254.299z"/>
	<path fill="#E5E6E5" d="M190.615,54.707l-6.27,6.268c-0.746,0.748-1.957,0.748-2.705,0l-5.217-5.217
		c-0.748-0.747-1.959-0.747-2.705,0l-10.5,10.499c-0.746,0.747-1.959,0.747-2.705,0l-11.55-11.55l19.13-36.666
		c0.715-1.37,2.676-1.37,3.391,0L190.615,54.707z"/>
	<path fill="#C6C5C6" d="M211.475,54.707l-6.27,6.268c-0.746,0.748-1.957,0.748-2.703,0l-5.219-5.217
		c-0.746-0.747-1.957-0.747-2.705,0l-2.244,2.244l-3.957-7.587l8.764-16.57c0.721-1.361,2.67-1.357,3.385,0.005L211.475,54.707z"/>
</g>
<g>
	<path fill="#EF805E" d="M235.974,85.406L235.974,85.406c1.69-2.369,2.696-5.261,2.696-8.394c0-7.995-6.481-14.477-14.477-14.477
		c-0.118,0-0.233,0.015-0.352,0.018c-2.469-3.796-6.741-6.312-11.607-6.312c-5.646,0-10.493,3.383-12.649,8.229
		c-8.651,2.26-15.045,10.105-15.045,19.466c0,5.146,1.946,9.826,5.122,13.387c-0.056,0.566-0.087,1.139-0.087,1.719
		c0,9.733,7.89,17.624,17.623,17.624c1.062,0,5.286-0.095,6.295-0.275l0.426-4.362c2.494,1.352,5.35,2.12,8.386,2.12
		c9.733,0,17.624-7.891,17.624-17.624C239.929,92.308,238.443,88.439,235.974,85.406z"/>
	<path fill="#E95723" d="M213.493,110.041c-2.021,0.521-4.257,0.504-6.646-0.625c-3.238-1.529-5.584-4.637-5.901-8.203
		c-0.125-1.4,0.042-2.746,0.44-3.987c0.157-0.489-0.045-1.008-0.441-1.333c-3.095-2.538-5.075-6.383-5.075-10.698
		c0-5.599,3.33-10.408,8.112-12.589c0.499-0.228,0.821-0.724,0.766-1.27c-0.041-0.41-0.066-0.826-0.066-1.247
		c0-6.558,4.564-12.038,10.686-13.471c-1.008-0.234-2.052-0.376-3.132-0.376c-5.646,0-10.493,3.383-12.649,8.229
		c-8.651,2.26-15.045,10.105-15.045,19.466c0,5.146,1.946,9.826,5.122,13.387c-0.056,0.566-0.087,1.139-0.087,1.719
		c0,9.733,7.89,17.624,17.623,17.624c1.062,0,5.286-0.095,6.295-0.275v-3.847V110.041L213.493,110.041L213.493,110.041z"/>
	<path fill="#D3D2D2" d="M210.977,110.373c-0.04,0-0.079-0.006-0.119-0.007l-1.141,23.957h7.563l-1.116-23.44
		c-0.04-0.84-0.88-1.445-1.667-1.149C213.401,110.146,212.217,110.373,210.977,110.373z"/>
	<path fill="#969596" d="M216.163,110.883c-0.04-0.84-0.88-1.445-1.667-1.149c-1.095,0.412-2.279,0.64-3.52,0.64
		c-0.04,0-0.079-0.006-0.119-0.007l-1.141,23.957h3.781v-20.521c0-0.543,0.348-1.025,0.862-1.196l1.855-0.619L216.163,110.883z"/>
	<path fill="#14B4BE" d="M219.787,135.549h-12.588c-0.695,0-1.259-0.563-1.259-1.26c0-0.695,0.563-1.259,1.259-1.259h12.588
		c0.695,0,1.259,0.563,1.259,1.259C221.046,134.985,220.482,135.549,219.787,135.549z"/>
</g>
<g>
	<path fill="#14B4BE" d="M54.395,118.512c-3.271,2.926-5.33,7.353-6.489,11.205c1.29,4.283,1.586,7.854,1.586,7.854h2.15
		c0-9.486,2.19-15.756,3.439-18.561C55.271,118.584,54.743,118.201,54.395,118.512z"/>
	<path fill="#14B4BE" d="M48.409,128.176c-0.184,0.521-0.352,1.035-0.504,1.541c1.29,4.283,1.586,7.854,1.586,7.854h1.003
		C50.494,137.57,50.123,133.107,48.409,128.176z"/>
	<path fill="#14B4BE" d="M51.519,137.57c0,0,0.794-9.574,5.931-14.164c0.26-0.231,0.651,0.053,0.51,0.37
		c-0.928,2.084-2.556,6.743-2.556,13.794H51.519L51.519,137.57z"/>
	<path fill="#14B4BE" d="M57.959,123.776c0.142-0.317-0.25-0.602-0.51-0.37c-5.137,4.59-5.931,14.164-5.931,14.164h1.12
		c0,0,0.713-8.58,5.146-13.389C57.845,124.037,57.903,123.902,57.959,123.776z"/>
	<path fill="#14B4BE" d="M55.551,137.57c0,0,0.527-6.356,3.938-9.405c0.172-0.153,0.433,0.036,0.339,0.246
		c-0.617,1.384-1.697,4.478-1.697,9.159H55.551z"/>
	<path fill="#14B4BE" d="M59.828,128.411c0.094-0.212-0.167-0.399-0.339-0.246c-3.411,3.049-3.938,9.405-3.938,9.405h0.953
		c0,0,0.431-5.181,3.023-8.432C59.635,128.859,59.736,128.616,59.828,128.411z"/>
	<path fill="#14B4BE" d="M49.587,137.57c0,0-1.069-12.881-7.979-19.059c-0.35-0.311-0.877,0.072-0.688,0.498
		c1.25,2.805,3.439,9.074,3.439,18.561H49.587L49.587,137.57z"/>
	<path fill="#14B4BE" d="M41.896,118.779c-0.096-0.091-0.191-0.18-0.289-0.268c-0.35-0.311-0.877,0.072-0.688,0.498
		c1.25,2.805,3.439,9.074,3.439,18.561h1.014c0-9.486-2.189-15.756-3.439-18.561C41.898,118.93,41.888,118.852,41.896,118.779z"/>
	<path fill="#14B4BE" d="M44.482,137.57c0,0-0.794-9.574-5.93-14.164c-0.26-0.231-0.652,0.053-0.511,0.37
		c0.929,2.084,2.556,6.743,2.556,13.794H44.482L44.482,137.57z"/>
	<path fill="#14B4BE" d="M38.553,123.406c-0.26-0.231-0.652,0.053-0.511,0.37c0.929,2.084,2.556,6.743,2.556,13.794H41.6
		c0-6.858-1.541-11.454-2.479-13.617C38.938,123.764,38.748,123.581,38.553,123.406z"/>
	<path fill="#14B4BE" d="M40.451,137.57c0,0-0.527-6.356-3.938-9.405c-0.174-0.153-0.434,0.036-0.34,0.246
		c0.617,1.384,1.697,4.478,1.697,9.159H40.451z"/>
	<g>
		<path fill="#14B4BE" d="M36.514,128.165c-0.174-0.153-0.434,0.036-0.34,0.246c0.617,1.384,1.697,4.478,1.697,9.159h0.966
			c0-3.963-0.774-6.788-1.386-8.4C37.165,128.808,36.854,128.471,36.514,128.165z"/>
		<path fill="#14B4BE" d="M59.194,137.928H36.847c-0.197,0-0.358-0.16-0.358-0.357s0.161-0.357,0.358-0.357h22.348
			c0.197,0,0.357,0.16,0.357,0.357S59.393,137.928,59.194,137.928z"/>
	</g>
</g>
<g>
	<g>
		<polygon fill="#FFFFFF" points="78.531,78.568 80.744,78.568 78.531,80.783 		"/>
		<polygon fill="#FFFFFF" points="110.076,82.258 110.076,129.299 150.477,129.299 150.477,78.568 110.076,78.568 		"/>
	</g>
	<polygon fill="#14B4BE" points="158.777,78.568 70.229,78.568 80.744,49.606 148.262,49.606 	"/>
	<path fill="#6BC3CE" d="M115.61,76.725L96.24,57.354c-1.476-1.475-4.059-1.475-5.534,0l-19.37,19.371
		c-1.476,1.476-1.476,4.059,0,5.533c1.477,1.477,4.059,1.477,5.535,0l16.603-16.602l16.603,16.602c1.476,1.477,4.059,1.477,5.534,0
		C117.086,80.783,117.086,78.2,115.61,76.725z"/>
	<polygon fill="#FFFFFF" points="110.076,138.154 110.076,82.258 93.474,65.84 76.871,82.258 76.871,138.154 	"/>
	<path fill="#B6B6B5" d="M102.881,129.299H84.065V102.92h18.632v26.379H102.881z"/>
	<rect x="86.647" y="105.318" fill="#14B4BE" width="13.651" height="21.398"/>
	<rect x="121.883" y="106.609" fill="#14B4BE" width="16.971" height="16.972"/>
	<rect x="124.096" y="109.008" fill="#B6B6B5" width="12.36" height="12.359"/>
	<rect x="121.883" y="84.287" fill="#14B4BE" width="16.971" height="16.973"/>
	<rect x="124.096" y="86.502" fill="#B6B6B5" width="12.36" height="12.359"/>
	<rect x="70.229" y="129.299" fill="#14B4BE" width="88.548" height="8.855"/>
	<circle fill="#14B4BE" cx="93.474" cy="85.21" r="7.563"/>
	<path fill="#B6B6B5" d="M93.474,90.375c-2.952,0-5.165-2.397-5.165-5.165c0-2.952,2.397-5.165,5.165-5.165
		c2.951,0,5.165,2.398,5.165,5.165C98.639,88.162,96.425,90.375,93.474,90.375z"/>
</g>
</svg>
