<?xml version="1.0" encoding="utf-8"?>
<!-- Generator: Adobe Illustrator 16.0.0, SVG Export Plug-In . SVG Version: 6.00 Build 0)  -->
<!DOCTYPE svg PUBLIC "-//W3C//DTD SVG 1.1//EN" "http://www.w3.org/Graphics/SVG/1.1/DTD/svg11.dtd">
<svg version="1.1" id="Capa_1" xmlns="http://www.w3.org/2000/svg" xmlns:xlink="http://www.w3.org/1999/xlink" x="0px" y="0px"
	 width="573px" height="452px" viewBox="297.5 73.5 573 452" enable-background="new 297.5 73.5 573 452" xml:space="preserve">
<g>
	<path fill="#E95723" d="M423.387,335.442h-46.793c-4.148,0-8.195-1.754-12.099-0.928c-26.339,5.568-46.106,28.947-46.106,56.945
		v56.277c0,2.51,2.032,4.541,4.54,4.541h154.123c2.508,0,4.54-2.031,4.54-4.541v-56.277c0-27.998-19.769-51.379-46.108-56.945
		C431.582,333.688,427.535,335.442,423.387,335.442z"/>
	<path fill="#14B4BE" d="M479.439,254.778v-43.375c0-43.879-35.57-79.449-79.449-79.449l0,0c-43.877,0-79.448,35.57-79.448,79.449
		v43.375c0,11.682-3.759,25.945-8.509,34.959c-1.596,3.029,0.586,6.662,4.01,6.662h167.896c3.424,0,5.605-3.633,4.01-6.662
		C483.198,280.723,479.439,266.459,479.439,254.778z"/>
	<path fill="#FACFAE" d="M458.903,233.139v12.375c0,32.533-26.379,58.904-58.913,58.904c-32.533,0-58.912-26.371-58.912-58.904
		v-38.348c0-2.068,0.119-4.119,0.348-6.127h7.527c8.002,0,15.156,4.982,17.937,12.494c2.179,5.891,6.078,10.791,10.994,14.225
		c4.925,3.424,10.875,5.381,17.156,5.381H458.903L458.903,233.139z"/>
	<path fill="#EAEDF1" d="M435.484,334.522c-3.903-0.826-7.946-1.266-12.096-1.266h-46.794c-4.148,0-8.193,0.441-12.096,1.266
		c2.799,21.234,16.6,38.994,35.493,47.373C418.885,373.514,432.685,355.754,435.484,334.522z"/>
	<path fill="#FACFAE" d="M783.271,304.422L783.271,304.422c-32.535,0-58.911-26.375-58.911-58.91v-38.344
		c0-30.162,24.451-54.615,54.615-54.615h8.593c30.164,0,54.615,24.453,54.615,54.615v38.344
		C842.182,278.047,815.806,304.422,783.271,304.422z"/>
	<path fill="#E95723" d="M806.668,333.254h-46.794c-32.146,0-58.204,26.059-58.204,58.205v56.277c0,2.51,2.031,4.541,4.54,4.541
		h154.122c2.508,0,4.54-2.031,4.54-4.541v-56.277C864.872,359.315,838.814,333.254,806.668,333.254z"/>
	<path fill="#14B4BE" d="M842.183,207.17v38.518c-84.266-7.432-91.383-52.883-91.383-52.883v29.068h-26.441V207.17
		c0-30.166,24.449-54.615,54.615-54.615h8.593C817.733,152.555,842.183,177.006,842.183,207.17z"/>
	<path fill="#EAEDF1" d="M818.764,334.522c-3.903-0.826-7.947-1.266-12.096-1.266h-46.795c-4.148,0-8.193,0.441-12.096,1.266
		c2.799,21.234,16.6,38.994,35.493,47.373C802.165,373.514,815.966,355.754,818.764,334.522z"/>
	<path fill="#EF805E" d="M703.263,410.795c-27.388-99.939-26.781-106.816-7.548-200.094c1.717-7.678,2.629-15.66,2.629-23.855
		c0-60.146-48.758-108.902-108.903-108.902s-108.903,48.758-108.903,108.902c0,8.195,0.912,16.178,2.629,23.855
		c19.234,93.277,19.841,100.154-7.548,200.094c-3.136,10.648-4.827,21.914-4.827,33.576c0,65.529,53.121,49.705,118.649,49.705
		s118.649,15.822,118.649-49.705C708.091,432.709,706.4,421.444,703.263,410.795z"/>
	<path fill="#E95723" d="M703.263,410.795c-27.388-99.939-26.781-106.816-7.548-200.092c1.717-7.68,2.629-15.66,2.629-23.855
		c0-60.146-48.758-108.904-108.903-108.904c-2.814,0-5.604,0.107-8.363,0.316c48.831,4.271,87.299,51.256,87.299,108.588
		c0,8.195-0.792,16.176-2.281,23.855c-16.702,93.277-17.228,100.152,6.554,200.092c2.724,10.648,4.191,21.914,4.191,33.576
		c0,39.539-16.797,49.455-42.616,51.105c43.328,1.494,73.867-1.424,73.867-51.105C708.091,432.709,706.4,421.444,703.263,410.795z"
		/>
	<path fill="#6BC3CE" d="M623.461,349.135h-68.039c-13.007,0-25.328,0.746-36.338,5.988c-28.556,13.596-48.292,42.719-48.292,76.451
		v77.082c0,6.27,5.081,11.352,11.351,11.352H696.74c6.268,0,11.351-5.082,11.351-11.352v-77.08
		c0-33.965-20.009-63.256-48.882-76.732C648.349,349.778,636.235,349.135,623.461,349.135z"/>
	<path fill="#14B4BE" d="M623.461,349.135h-17.16c17.72,0,34.006,4.725,46.852,16.287c17.229,15.506,28.266,39.379,28.266,66.154
		v77.082c0,6.268-4.511,11.35-10.075,11.35h25.398c6.269,0,11.351-5.082,11.351-11.35v-77.082c0-33.965-20.009-63.256-48.882-76.732
		C648.349,349.778,636.235,349.135,623.461,349.135z"/>
	<path fill="#FACFAE" d="M668.683,243.078c-4.43,39.826-38.222,70.807-79.242,70.807c-44.038,0-79.746-35.709-79.746-79.746V182.24
		c0-19.287,7.39-36.855,19.495-50.016C547.365,174.198,594.697,223.893,668.683,243.078z"/>
	<path fill="#E49F6A" d="M639.048,233.248c0.157,3.117,0.039,6.383-0.422,9.83c-3.347,37.109-27.371,66.527-57.545,70.369
		c2.748,0.285,5.536,0.438,8.36,0.438c41.021,0,74.813-30.98,79.242-70.807C658.267,240.375,648.399,237.053,639.048,233.248z"/>
	<path fill="#EAEDF1" d="M589.441,481.715l69.548-126.947c-10.806-5.008-22.836-7.82-35.529-7.82h-68.038
		c-12.693,0-24.724,2.813-35.528,7.82L589.441,481.715z"/>
</g>
</svg>
