<?xml version="1.0" encoding="utf-8"?>
<!-- Generator: Adobe Illustrator 16.0.0, SVG Export Plug-In . SVG Version: 6.00 Build 0)  -->
<!DOCTYPE svg PUBLIC "-//W3C//DTD SVG 1.1//EN" "http://www.w3.org/Graphics/SVG/1.1/DTD/svg11.dtd">
<svg version="1.1" id="Capa_1" xmlns="http://www.w3.org/2000/svg" xmlns:xlink="http://www.w3.org/1999/xlink" x="0px" y="0px"
	 width="239px" height="237px" viewBox="558.5 193.5 239 237" enable-background="new 558.5 193.5 239 237" xml:space="preserve">
<g>
	<path fill="#14B4BE" d="M642.888,378.522l-34.163,18.635c-2.004,1.093-3.806,2.437-5.482,3.901
		c19.918,16.794,45.629,26.926,73.721,26.926c27.885,0,53.433-9.98,73.294-26.545c-1.832-1.548-3.819-2.938-6.023-4.036
		l-36.582-18.288c-4.726-2.364-7.712-7.194-7.712-12.478v-14.354c1.028-1.171,2.204-2.674,3.461-4.45
		c4.986-7.042,8.758-14.789,11.372-22.916c4.691-1.447,8.148-5.78,8.148-10.931v-15.32c0-3.37-1.5-6.382-3.828-8.49V268.03
		c0,0,4.55-34.465-42.125-34.465s-42.125,34.465-42.125,34.465v22.146c-2.333,2.108-3.828,5.12-3.828,8.49v15.32
		c0,4.035,2.121,7.587,5.297,9.639c3.828,16.665,13.852,28.658,13.852,28.658v13.998
		C650.159,371.38,647.369,376.077,642.888,378.522z"/>
	<g>
		<path fill="#F3F3F3" d="M678.922,199.014c-63.223-1.081-115.354,49.297-116.434,112.519
			c-0.614,35.848,15.363,68.065,40.803,89.491c1.663-1.452,3.447-2.783,5.431-3.863l34.162-18.634
			c4.48-2.445,7.271-7.143,7.271-12.249V352.28c0,0-10.028-11.994-13.852-28.658c-3.171-2.053-5.297-5.599-5.297-9.639v-15.32
			c0-3.371,1.499-6.382,3.828-8.49v-22.147c0,0-4.55-34.464,42.125-34.464s42.125,34.464,42.125,34.464v22.147
			c2.333,2.108,3.828,5.119,3.828,8.49v15.32c0,5.149-3.456,9.483-8.148,10.931c-2.614,8.127-6.386,15.873-11.372,22.916
			c-1.257,1.775-2.432,3.279-3.46,4.45v14.353c0,5.284,2.985,10.118,7.712,12.478l36.581,18.289
			c2.195,1.098,4.179,2.484,6.006,4.026c24.671-20.574,40.608-51.336,41.201-85.978C792.52,252.225,742.148,200.094,678.922,199.014
			z"/>
	</g>
</g>
</svg>
